<svg width="28" height="18" viewBox="0 0 28 18" fill="none" xmlns="http://www.w3.org/2000/svg">
<path d="M25.2349 10.5803C25.8655 9.5293 26.25 8.3142 26.25 7C26.25 3.13425 23.1157 0 19.25 0C16.0371 0 13.3591 2.17722 12.5354 5.1269C11.5801 4.12798 10.2409 3.5 8.75 3.5C5.85085 3.5 3.5 5.85063 3.5 8.75C3.5 9.37891 3.62917 9.97451 3.83152 10.5342C3.72148 10.524 3.61342 10.5 3.5 10.5C1.56712 10.5 0 12.0671 0 14C0 15.9329 1.56712 17.5 3.5 17.5H24.5C26.4329 17.5 28 15.9329 28 14C28 12.3201 26.8139 10.9187 25.2349 10.5803Z" fill="white"/>
</svg>
