<svg width="84" height="55" viewBox="0 0 84 55" fill="none" xmlns="http://www.w3.org/2000/svg">
<g style="mix-blend-mode:lighten">
<path d="M18.4216 13.0469H36.9312C41.8155 13.0469 46.4998 14.9872 49.9536 18.4409C53.4073 21.8947 55.3476 26.579 55.3476 31.4633V54.2444H18.4216C16.0027 54.245 13.6073 53.7692 11.3723 52.844C9.13737 51.9188 7.10655 50.5623 5.39588 48.8522C3.68521 47.142 2.32819 45.1115 1.40236 42.8768C0.476524 40.6421 -9.55923e-08 38.2469 0 35.8279V31.4633C-9.55922e-08 29.0444 0.476524 26.6492 1.40236 24.4145C2.32819 22.1797 3.68521 20.1493 5.39588 18.4391C7.10655 16.7289 9.13737 15.3725 11.3723 14.4473C13.6073 13.5221 16.0027 13.0462 18.4216 13.0469Z" fill="#52FF4D"/>
</g>
<g style="mix-blend-mode:lighten" opacity="0.53">
<path d="M69.4201 32.6184L40.1827 32.6184V14.58C40.1827 12.6653 40.5598 10.7694 41.2925 9.00047C42.0252 7.23156 43.0992 5.62428 44.453 4.27041C45.8069 2.91654 47.4142 1.8426 49.1831 1.1099C50.952 0.377186 52.8479 6.48499e-05 54.7626 6.48499e-05L69.4201 6.48499e-05C71.3348 6.48499e-05 73.2307 0.377186 74.9996 1.1099C76.7685 1.8426 78.3758 2.91654 79.7296 4.27041C81.0835 5.62428 82.1575 7.23156 82.8902 9.00047C83.6229 10.7694 84 12.6653 84 14.58V18.0385C84 21.9053 82.4639 25.6138 79.7296 28.3481C76.9954 31.0823 73.2869 32.6184 69.4201 32.6184Z" fill="#52FF4D"/>
</g>
<path d="M40.2137 13.2957C40.1775 13.7047 40.1567 14.1137 40.1567 14.5279V32.5664H55.3269V31.4118C55.3255 27.101 53.8123 22.9271 51.0508 19.617C48.2893 16.3068 44.4544 14.0699 40.2137 13.2957Z" fill="#26D81D"/>
</svg>
