<svg width="84" height="60" viewBox="0 0 84 60" fill="none" xmlns="http://www.w3.org/2000/svg">
<path d="M59.2843 11.0137H7.2764C3.25776 11.0137 0 14.567 0 18.9503V51.1566C0 55.5399 3.25776 59.0933 7.2764 59.0933H59.2843C63.3029 59.0933 66.5607 55.5399 66.5607 51.1566V18.9503C66.5607 14.567 63.3029 11.0137 59.2843 11.0137Z" fill="#1AD4FF"/>
<path d="M8.1991 19.6528H38.4631" stroke="white" stroke-width="2.0059" stroke-miterlimit="10"/>
<path d="M8.1991 25.6658H30.941" stroke="white" stroke-width="2.0059" stroke-miterlimit="10"/>
<path d="M16.5787 31.678H39.3206" stroke="white" stroke-width="2.0059" stroke-miterlimit="10"/>
<path d="M16.5787 37.6907H46.8427" stroke="white" stroke-width="2.0059" stroke-miterlimit="10"/>
<path d="M8.1991 43.7036H30.941" stroke="white" stroke-width="2.0059" stroke-miterlimit="10"/>
<path d="M8.1991 49.7163H38.4631" stroke="white" stroke-width="2.0059" stroke-miterlimit="10"/>
<path fill-rule="evenodd" clip-rule="evenodd" d="M59.8979 7.85048H71.0106C71.16 7.86062 71.31 7.83993 71.4511 7.78971C71.5923 7.73948 71.7215 7.6608 71.831 7.55853C71.9404 7.45625 72.0277 7.33257 72.0873 7.19517C72.147 7.05777 72.1778 6.90957 72.1778 6.75978C72.1778 6.60998 72.147 6.46177 72.0873 6.32437C72.0277 6.18697 71.9404 6.06329 71.831 5.96101C71.7215 5.85874 71.5923 5.78006 71.4511 5.72983C71.31 5.67961 71.16 5.65892 71.0106 5.66906H59.8929C59.7435 5.65892 59.5935 5.67961 59.4524 5.72983C59.3113 5.78006 59.182 5.85874 59.0725 5.96101C58.9631 6.06329 58.8758 6.18697 58.8161 6.32437C58.7565 6.46177 58.7257 6.60998 58.7257 6.75978C58.7257 6.90957 58.7565 7.05777 58.8161 7.19517C58.8758 7.33257 58.9631 7.45625 59.0725 7.55853C59.182 7.6608 59.3113 7.73948 59.4524 7.78971C59.5935 7.83993 59.7435 7.86062 59.8929 7.85048H59.8979ZM66.2817 12.8151C66.2807 13.0732 66.3563 13.3257 66.499 13.5408C66.6417 13.7559 66.8449 13.9238 67.0831 14.0232C67.3212 14.1227 67.5836 14.1492 67.8368 14.0995C68.0901 14.0497 68.3229 13.926 68.5057 13.7438C68.6885 13.5617 68.8132 13.3294 68.8639 13.0763C68.9146 12.8233 68.8891 12.5608 68.7906 12.3223C68.6921 12.0838 68.5249 11.8798 68.3104 11.7363C68.0959 11.5928 67.8436 11.5163 67.5855 11.5163C67.4145 11.5156 67.2451 11.5487 67.0869 11.6137C66.9288 11.6787 66.785 11.7742 66.6639 11.8949C66.5427 12.0156 66.4466 12.159 66.381 12.3169C66.3155 12.4748 66.2817 12.6441 66.2817 12.8151ZM62.0292 12.8151C62.0292 13.072 62.1054 13.3231 62.2481 13.5367C62.3908 13.7502 62.5937 13.9167 62.831 14.015C63.0683 14.1133 63.3294 14.1391 63.5814 14.0889C63.8333 14.0388 64.0648 13.9151 64.2464 13.7335C64.4281 13.5518 64.5518 13.3204 64.6019 13.0685C64.652 12.8165 64.6262 12.5554 64.5279 12.318C64.4296 12.0807 64.2632 11.8779 64.0496 11.7351C63.836 11.5924 63.5849 11.5163 63.328 11.5163C63.1562 11.5143 62.9857 11.5464 62.8263 11.6108C62.667 11.6752 62.5221 11.7705 62.3999 11.8913C62.2777 12.0121 62.1807 12.156 62.1144 12.3145C62.0482 12.4731 62.0141 12.6432 62.0141 12.8151H62.0292ZM77.0584 6.25077C77.2038 7.47912 76.9984 8.72353 76.4659 9.83997C75.9334 10.9564 75.0956 11.8992 74.0495 12.5593C73.9976 12.5904 73.9531 12.6327 73.9193 12.683C73.8856 12.7333 73.8634 12.7904 73.8543 12.8503C73.8451 12.9102 73.8494 12.9714 73.8667 13.0294C73.884 13.0875 73.9139 13.141 73.9543 13.1862C75.4821 14.9735 76.4084 17.1965 76.602 19.5398C76.6084 19.5982 76.6024 19.6572 76.5843 19.713C76.5663 19.7689 76.5366 19.8202 76.4973 19.8638C76.458 19.9074 76.4099 19.9421 76.3562 19.9658C76.3026 19.9895 76.2445 20.0016 76.1858 20.0012H54.6926C54.6346 20.0001 54.5774 19.987 54.5247 19.9627C54.472 19.9385 54.4249 19.9036 54.3863 19.8603C54.3477 19.817 54.3184 19.7662 54.3004 19.711C54.2823 19.6559 54.2759 19.5976 54.2814 19.5398C54.4745 17.1954 55.4028 14.9718 56.9342 13.1862C56.9743 13.1411 57.0039 13.0877 57.0208 13.0298C57.0376 12.9719 57.0414 12.911 57.0318 12.8514C57.0222 12.7919 56.9995 12.7352 56.9652 12.6856C56.931 12.6359 56.8861 12.5945 56.8339 12.5643C55.7149 11.8539 54.8378 10.8207 54.3185 9.6012C53.7991 8.3817 53.6621 7.03332 53.9254 5.73426C54.1783 4.41285 54.8385 3.20376 55.8134 2.27655C56.7883 1.34934 58.0289 0.750511 59.3614 0.564056C60.6192 0.370106 61.9062 0.544268 63.0672 1.06553C63.815 1.40981 64.6285 1.58808 65.4517 1.58808C66.275 1.58808 67.0885 1.40981 67.8363 1.06553C68.7743 0.637514 69.8002 0.437037 70.8304 0.480406C71.8606 0.523775 72.8659 0.809761 73.7647 1.3151C74.6635 1.82045 75.4303 2.53087 76.0026 3.38854C76.5749 4.24621 76.9367 5.22689 77.0584 6.25077ZM54.818 21.962H76.0755C76.1377 21.9614 76.1992 21.9748 76.2556 22.0011C76.312 22.0275 76.3617 22.0661 76.4012 22.1142C76.4406 22.1624 76.4688 22.2187 76.4836 22.2791C76.4984 22.3396 76.4994 22.4025 76.4867 22.4634C76.0173 25.0474 74.6559 27.3847 72.6397 29.0676C70.6235 30.7506 68.0805 31.6724 65.4543 31.6724C62.828 31.6724 60.285 30.7506 58.2688 29.0676C56.2527 27.3847 54.8912 25.0474 54.4218 22.4634C54.4068 22.4021 54.4057 22.3381 54.4187 22.2763C54.4317 22.2144 54.4585 22.1563 54.497 22.1062C54.5356 22.0562 54.5849 22.0154 54.6413 21.9869C54.6977 21.9585 54.7598 21.9431 54.823 21.9419L54.818 21.962ZM50.5504 7.83544C49.5024 8.25807 48.6046 8.98413 47.972 9.9205C47.3394 10.8569 47.0009 11.9609 47 13.0909V14.0236C47.0029 15.1532 47.3422 16.2563 47.9745 17.1923C48.6068 18.1283 49.5036 18.8548 50.5504 19.2791C50.6136 19.3045 50.6821 19.3141 50.7498 19.3069C50.8175 19.2997 50.8824 19.276 50.9389 19.2379C50.9953 19.1998 51.0415 19.1484 51.0735 19.0882C51.1054 19.0281 51.1221 18.961 51.1221 18.8929V8.20152C51.1218 8.13404 51.1051 8.06764 51.0734 8.00806C51.0417 7.94848 50.9961 7.89749 50.9403 7.85949C50.8845 7.8215 50.8204 7.79762 50.7533 7.78994C50.6863 7.78225 50.6184 7.79098 50.5555 7.81537L50.5504 7.83544ZM79.7714 8.22156C79.771 8.15283 79.7877 8.08509 79.8199 8.02438C79.8521 7.96366 79.8989 7.91186 79.956 7.87362C80.0131 7.83538 80.0788 7.81187 80.1472 7.80521C80.2156 7.79855 80.2847 7.80893 80.3481 7.83544C81.3944 8.25998 82.2904 8.98665 82.9219 9.9227C83.5533 10.8588 83.8916 11.9618 83.8935 13.0909V14.0236C83.8923 15.1529 83.5543 16.2562 82.9227 17.1924C82.2912 18.1286 81.3948 18.8551 80.3481 19.2791C80.2846 19.3043 80.2159 19.3137 80.148 19.3065C80.0801 19.2992 80.0149 19.2756 79.9582 19.2376C79.9014 19.1996 79.8548 19.1484 79.8222 19.0883C79.7897 19.0283 79.7722 18.9612 79.7714 18.8929V8.22156Z" fill="white"/>
</svg>
