<svg width="115" height="50" viewBox="0 0 115 50" fill="none" xmlns="http://www.w3.org/2000/svg">
<path opacity="0.7" d="M107.713 10.9028C106.869 10.9076 106.032 11.0654 105.245 11.3685C104.917 8.80012 103.779 6.40307 101.996 4.52536C100.214 2.64764 97.8787 1.38703 95.3308 0.926558C92.7829 0.466084 90.1545 0.829717 87.8273 1.96466C85.5001 3.0996 83.5953 4.94677 82.3893 7.23797C81.1233 6.74167 79.7634 6.53066 78.4065 6.61997C77.0496 6.70927 75.7292 7.09669 74.5391 7.75463C73.3491 8.41258 72.3188 9.32486 71.5216 10.4265C70.7244 11.5281 70.1799 12.792 69.927 14.1281C69.6741 15.4641 69.7189 16.8396 70.0583 18.1563C70.3976 19.4731 71.0232 20.6989 71.8904 21.7463C72.7576 22.7937 73.8451 23.637 75.0755 24.216C76.3058 24.7951 77.6487 25.0958 79.0085 25.0966H107.713C109.562 25.0492 111.319 24.2814 112.61 22.957C113.901 21.6325 114.623 19.8562 114.623 18.0067C114.623 16.1572 113.901 14.3808 112.61 13.0564C111.319 11.7319 109.562 10.9642 107.713 10.9168V10.9028Z" fill="#9742EA"/>
<path d="M46.6533 8.52324C45.1517 8.52222 43.6633 8.80504 42.2667 9.3568C40.7015 6.3855 38.2305 3.99001 35.212 2.51773C32.1936 1.04544 28.7847 0.572903 25.4796 1.16864C22.1745 1.76437 19.1451 3.39742 16.8307 5.83094C14.5162 8.26445 13.0372 11.3719 12.6079 14.7027C11.5845 14.3216 10.5008 14.1276 9.4087 14.13C8.1832 14.1024 6.96459 14.3199 5.82434 14.7699C4.68408 15.2198 3.64522 15.893 2.76875 16.75C1.89228 17.6069 1.19585 18.6304 0.720396 19.7602C0.244938 20.8901 0 22.1035 0 23.3294C0 24.5552 0.244938 25.7686 0.720396 26.8984C1.19585 28.0283 1.89228 29.0517 2.76875 29.9087C3.64522 30.7657 4.68408 31.4389 5.82434 31.8888C6.96459 32.3387 8.1832 32.5563 9.4087 32.5287H46.6626C49.805 32.4668 52.7978 31.1751 54.9982 28.9309C57.1987 26.6866 58.4313 23.669 58.4313 20.526C58.4313 17.383 57.1987 14.3653 54.9982 12.1211C52.7978 9.87692 49.805 8.58514 46.6626 8.52324H46.6533Z" fill="#9742EA"/>
<g style="mix-blend-mode:lighten" opacity="0.51">
<g style="mix-blend-mode:color-dodge" opacity="0.51">
<path d="M34.844 49.4742C36.0167 49.4742 36.9674 48.7799 36.9674 47.9235C36.9674 47.0671 36.0167 46.3728 34.844 46.3728C33.6712 46.3728 32.7205 47.0671 32.7205 47.9235C32.7205 48.7799 33.6712 49.4742 34.844 49.4742Z" fill="#9742EA"/>
</g>
<g style="mix-blend-mode:color-dodge" opacity="0.51">
<path d="M41.6101 49.4742C42.7829 49.4742 43.7336 48.7799 43.7336 47.9235C43.7336 47.0671 42.7829 46.3728 41.6101 46.3728C40.4374 46.3728 39.4867 47.0671 39.4867 47.9235C39.4867 48.7799 40.4374 49.4742 41.6101 49.4742Z" fill="#9742EA"/>
</g>
<g style="mix-blend-mode:color-dodge" opacity="0.51">
<path d="M48.3811 49.4742C49.5538 49.4742 50.5045 48.7799 50.5045 47.9235C50.5045 47.0671 49.5538 46.3728 48.3811 46.3728C47.2083 46.3728 46.2576 47.0671 46.2576 47.9235C46.2576 48.7799 47.2083 49.4742 48.3811 49.4742Z" fill="#9742EA"/>
</g>
<g style="mix-blend-mode:color-dodge" opacity="0.51">
<path d="M55.1473 49.4742C56.3201 49.4742 57.2707 48.7799 57.2707 47.9235C57.2707 47.0671 56.3201 46.3728 55.1473 46.3728C53.9745 46.3728 53.0238 47.0671 53.0238 47.9235C53.0238 48.7799 53.9745 49.4742 55.1473 49.4742Z" fill="#9742EA"/>
</g>
<g style="mix-blend-mode:color-dodge" opacity="0.51">
<path d="M61.9181 49.4742C63.0909 49.4742 64.0416 48.7799 64.0416 47.9235C64.0416 47.0671 63.0909 46.3728 61.9181 46.3728C60.7454 46.3728 59.7947 47.0671 59.7947 47.9235C59.7947 48.7799 60.7454 49.4742 61.9181 49.4742Z" fill="#9742EA"/>
</g>
<g style="mix-blend-mode:color-dodge" opacity="0.51">
<path d="M68.6891 49.4742C69.8619 49.4742 70.8126 48.7799 70.8126 47.9235C70.8126 47.0671 69.8619 46.3728 68.6891 46.3728C67.5164 46.3728 66.5657 47.0671 66.5657 47.9235C66.5657 48.7799 67.5164 49.4742 68.6891 49.4742Z" fill="#9742EA"/>
</g>
<g style="mix-blend-mode:color-dodge" opacity="0.51">
<path d="M75.4553 49.4742C76.628 49.4742 77.5787 48.7799 77.5787 47.9235C77.5787 47.0671 76.628 46.3728 75.4553 46.3728C74.2825 46.3728 73.3318 47.0671 73.3318 47.9235C73.3318 48.7799 74.2825 49.4742 75.4553 49.4742Z" fill="#9742EA"/>
</g>
<g style="mix-blend-mode:color-dodge" opacity="0.51">
<path d="M82.2263 49.4742C83.399 49.4742 84.3497 48.7799 84.3497 47.9235C84.3497 47.0671 83.399 46.3728 82.2263 46.3728C81.0535 46.3728 80.1028 47.0671 80.1028 47.9235C80.1028 48.7799 81.0535 49.4742 82.2263 49.4742Z" fill="#9742EA"/>
</g>
<g style="mix-blend-mode:color-dodge" opacity="0.51">
<path d="M88.9925 49.4742C90.1652 49.4742 91.116 48.7799 91.116 47.9235C91.116 47.0671 90.1652 46.3728 88.9925 46.3728C87.8197 46.3728 86.869 47.0671 86.869 47.9235C86.869 48.7799 87.8197 49.4742 88.9925 49.4742Z" fill="#9742EA"/>
</g>
<g style="mix-blend-mode:color-dodge" opacity="0.51">
<path d="M32.6785 44.1749C33.9464 44.1749 34.9742 43.4243 34.9742 42.4985C34.9742 41.5726 33.9464 40.822 32.6785 40.822C31.4106 40.822 30.3827 41.5726 30.3827 42.4985C30.3827 43.4243 31.4106 44.1749 32.6785 44.1749Z" fill="#9742EA"/>
</g>
<g style="mix-blend-mode:color-dodge" opacity="0.51">
<path d="M39.985 44.1749C41.2529 44.1749 42.2807 43.4243 42.2807 42.4985C42.2807 41.5726 41.2529 40.822 39.985 40.822C38.717 40.822 37.6892 41.5726 37.6892 42.4985C37.6892 43.4243 38.717 44.1749 39.985 44.1749Z" fill="#9742EA"/>
</g>
<g style="mix-blend-mode:color-dodge" opacity="0.51">
<path d="M47.296 44.1749C48.564 44.1749 49.5918 43.4243 49.5918 42.4985C49.5918 41.5726 48.564 40.822 47.296 40.822C46.0281 40.822 45.0002 41.5726 45.0002 42.4985C45.0002 43.4243 46.0281 44.1749 47.296 44.1749Z" fill="#9742EA"/>
</g>
<g style="mix-blend-mode:color-dodge" opacity="0.51">
<path d="M54.6071 44.1749C55.875 44.1749 56.9029 43.4243 56.9029 42.4985C56.9029 41.5726 55.875 40.822 54.6071 40.822C53.3392 40.822 52.3113 41.5726 52.3113 42.4985C52.3113 43.4243 53.3392 44.1749 54.6071 44.1749Z" fill="#9742EA"/>
</g>
<g style="mix-blend-mode:color-dodge" opacity="0.51">
<path d="M61.9182 44.1749C63.1861 44.1749 64.214 43.4243 64.214 42.4985C64.214 41.5726 63.1861 40.822 61.9182 40.822C60.6503 40.822 59.6224 41.5726 59.6224 42.4985C59.6224 43.4243 60.6503 44.1749 61.9182 44.1749Z" fill="#9742EA"/>
</g>
<g style="mix-blend-mode:color-dodge" opacity="0.51">
<path d="M69.2293 44.1749C70.4972 44.1749 71.525 43.4243 71.525 42.4985C71.525 41.5726 70.4972 40.822 69.2293 40.822C67.9613 40.822 66.9335 41.5726 66.9335 42.4985C66.9335 43.4243 67.9613 44.1749 69.2293 44.1749Z" fill="#9742EA"/>
</g>
<g style="mix-blend-mode:color-dodge" opacity="0.51">
<path d="M76.5404 44.1749C77.8083 44.1749 78.8362 43.4243 78.8362 42.4985C78.8362 41.5726 77.8083 40.822 76.5404 40.822C75.2724 40.822 74.2446 41.5726 74.2446 42.4985C74.2446 43.4243 75.2724 44.1749 76.5404 44.1749Z" fill="#9742EA"/>
</g>
<g style="mix-blend-mode:color-dodge" opacity="0.51">
<path d="M83.8515 44.1749C85.1194 44.1749 86.1472 43.4243 86.1472 42.4985C86.1472 41.5726 85.1194 40.822 83.8515 40.822C82.5835 40.822 81.5557 41.5726 81.5557 42.4985C81.5557 43.4243 82.5835 44.1749 83.8515 44.1749Z" fill="#9742EA"/>
</g>
<g style="mix-blend-mode:color-dodge" opacity="0.51">
<path d="M91.1578 44.1749C92.4257 44.1749 93.4536 43.4243 93.4536 42.4985C93.4536 41.5726 92.4257 40.822 91.1578 40.822C89.8899 40.822 88.8621 41.5726 88.8621 42.4985C88.8621 43.4243 89.8899 44.1749 91.1578 44.1749Z" fill="#9742EA"/>
</g>
<g style="mix-blend-mode:color-dodge" opacity="0.51">
<path d="M30.3361 38.8895C31.7043 38.8895 32.8135 38.0785 32.8135 37.0781C32.8135 36.0776 31.7043 35.2666 30.3361 35.2666C28.9679 35.2666 27.8588 36.0776 27.8588 37.0781C27.8588 38.0785 28.9679 38.8895 30.3361 38.8895Z" fill="#9742EA"/>
</g>
<g style="mix-blend-mode:color-dodge" opacity="0.51">
<path d="M38.234 38.8895C39.6022 38.8895 40.7114 38.0785 40.7114 37.0781C40.7114 36.0776 39.6022 35.2666 38.234 35.2666C36.8657 35.2666 35.7566 36.0776 35.7566 37.0781C35.7566 38.0785 36.8657 38.8895 38.234 38.8895Z" fill="#9742EA"/>
</g>
<g style="mix-blend-mode:color-dodge" opacity="0.51">
<path d="M46.1272 38.8895C47.4954 38.8895 48.6046 38.0785 48.6046 37.0781C48.6046 36.0776 47.4954 35.2666 46.1272 35.2666C44.759 35.2666 43.6498 36.0776 43.6498 37.0781C43.6498 38.0785 44.759 38.8895 46.1272 38.8895Z" fill="#9742EA"/>
</g>
<g style="mix-blend-mode:color-dodge" opacity="0.51">
<path d="M54.025 38.8895C55.3932 38.8895 56.5023 38.0785 56.5023 37.0781C56.5023 36.0776 55.3932 35.2666 54.025 35.2666C52.6567 35.2666 51.5476 36.0776 51.5476 37.0781C51.5476 38.0785 52.6567 38.8895 54.025 38.8895Z" fill="#9742EA"/>
</g>
<g style="mix-blend-mode:color-dodge" opacity="0.51">
<path d="M61.9182 38.8895C63.2864 38.8895 64.3956 38.0785 64.3956 37.0781C64.3956 36.0776 63.2864 35.2666 61.9182 35.2666C60.5499 35.2666 59.4408 36.0776 59.4408 37.0781C59.4408 38.0785 60.5499 38.8895 61.9182 38.8895Z" fill="#9742EA"/>
</g>
<g style="mix-blend-mode:color-dodge" opacity="0.51">
<path d="M69.8114 38.8895C71.1796 38.8895 72.2888 38.0785 72.2888 37.0781C72.2888 36.0776 71.1796 35.2666 69.8114 35.2666C68.4432 35.2666 67.334 36.0776 67.334 37.0781C67.334 38.0785 68.4432 38.8895 69.8114 38.8895Z" fill="#9742EA"/>
</g>
<g style="mix-blend-mode:color-dodge" opacity="0.51">
<path d="M77.7092 38.8895C79.0774 38.8895 80.1866 38.0785 80.1866 37.0781C80.1866 36.0776 79.0774 35.2666 77.7092 35.2666C76.3409 35.2666 75.2318 36.0776 75.2318 37.0781C75.2318 38.0785 76.3409 38.8895 77.7092 38.8895Z" fill="#9742EA"/>
</g>
<g style="mix-blend-mode:color-dodge" opacity="0.51">
<path d="M85.6024 38.8895C86.9706 38.8895 88.0798 38.0785 88.0798 37.0781C88.0798 36.0776 86.9706 35.2666 85.6024 35.2666C84.2342 35.2666 83.125 36.0776 83.125 37.0781C83.125 38.0785 84.2342 38.8895 85.6024 38.8895Z" fill="#9742EA"/>
</g>
<g style="mix-blend-mode:color-dodge" opacity="0.51">
<path d="M93.5002 38.8895C94.8685 38.8895 95.9776 38.0785 95.9776 37.0781C95.9776 36.0776 94.8685 35.2666 93.5002 35.2666C92.132 35.2666 91.0228 36.0776 91.0228 37.0781C91.0228 38.0785 92.132 38.8895 93.5002 38.8895Z" fill="#9742EA"/>
</g>
<g style="mix-blend-mode:color-dodge" opacity="0.51">
<path d="M27.8121 33.6089C29.291 33.6089 30.4898 32.7333 30.4898 31.6531C30.4898 30.5729 29.291 29.6973 27.8121 29.6973C26.3333 29.6973 25.1345 30.5729 25.1345 31.6531C25.1345 32.7333 26.3333 33.6089 27.8121 33.6089Z" fill="#9742EA"/>
</g>
<g style="mix-blend-mode:color-dodge" opacity="0.51">
<path d="M36.3388 33.6089C37.8176 33.6089 39.0164 32.7333 39.0164 31.6531C39.0164 30.5729 37.8176 29.6973 36.3388 29.6973C34.8599 29.6973 33.6611 30.5729 33.6611 31.6531C33.6611 32.7333 34.8599 33.6089 36.3388 33.6089Z" fill="#9742EA"/>
</g>
<g style="mix-blend-mode:color-dodge" opacity="0.51">
<path d="M44.8651 33.6089C46.3439 33.6089 47.5428 32.7333 47.5428 31.6531C47.5428 30.5729 46.3439 29.6973 44.8651 29.6973C43.3863 29.6973 42.1875 30.5729 42.1875 31.6531C42.1875 32.7333 43.3863 33.6089 44.8651 33.6089Z" fill="#9742EA"/>
</g>
<g style="mix-blend-mode:color-dodge" opacity="0.51">
<path d="M53.3917 33.6089C54.8705 33.6089 56.0694 32.7333 56.0694 31.6531C56.0694 30.5729 54.8705 29.6973 53.3917 29.6973C51.9129 29.6973 50.7141 30.5729 50.7141 31.6531C50.7141 32.7333 51.9129 33.6089 53.3917 33.6089Z" fill="#9742EA"/>
</g>
<g style="mix-blend-mode:color-dodge" opacity="0.51">
<path d="M61.9181 33.6089C63.3969 33.6089 64.5957 32.7333 64.5957 31.6531C64.5957 30.5729 63.3969 29.6973 61.9181 29.6973C60.4393 29.6973 59.2405 30.5729 59.2405 31.6531C59.2405 32.7333 60.4393 33.6089 61.9181 33.6089Z" fill="#9742EA"/>
</g>
<g style="mix-blend-mode:color-dodge" opacity="0.51">
<path d="M70.4447 33.6089C71.9235 33.6089 73.1223 32.7333 73.1223 31.6531C73.1223 30.5729 71.9235 29.6973 70.4447 29.6973C68.9659 29.6973 67.7671 30.5729 67.7671 31.6531C67.7671 32.7333 68.9659 33.6089 70.4447 33.6089Z" fill="#9742EA"/>
</g>
<g style="mix-blend-mode:color-dodge" opacity="0.51">
<path d="M78.9711 33.6089C80.4499 33.6089 81.6487 32.7333 81.6487 31.6531C81.6487 30.5729 80.4499 29.6973 78.9711 29.6973C77.4923 29.6973 76.2935 30.5729 76.2935 31.6531C76.2935 32.7333 77.4923 33.6089 78.9711 33.6089Z" fill="#9742EA"/>
</g>
<g style="mix-blend-mode:color-dodge" opacity="0.51">
<path d="M87.4977 33.6089C88.9765 33.6089 90.1753 32.7333 90.1753 31.6531C90.1753 30.5729 88.9765 29.6973 87.4977 29.6973C86.0189 29.6973 84.8201 30.5729 84.8201 31.6531C84.8201 32.7333 86.0189 33.6089 87.4977 33.6089Z" fill="#9742EA"/>
</g>
<g style="mix-blend-mode:color-dodge" opacity="0.51">
<path d="M96.0241 33.6089C97.5029 33.6089 98.7017 32.7333 98.7017 31.6531C98.7017 30.5729 97.5029 29.6973 96.0241 29.6973C94.5452 29.6973 93.3464 30.5729 93.3464 31.6531C93.3464 32.7333 94.5452 33.6089 96.0241 33.6089Z" fill="#9742EA"/>
</g>
<g style="mix-blend-mode:color-dodge" opacity="0.51">
<path d="M25.0833 28.3372C26.6805 28.3372 27.9752 27.3927 27.9752 26.2277C27.9752 25.0626 26.6805 24.1182 25.0833 24.1182C23.4862 24.1182 22.1915 25.0626 22.1915 26.2277C22.1915 27.3927 23.4862 28.3372 25.0833 28.3372Z" fill="#9742EA"/>
</g>
<g style="mix-blend-mode:color-dodge" opacity="0.51">
<path d="M34.2898 28.3372C35.8869 28.3372 37.1816 27.3927 37.1816 26.2277C37.1816 25.0626 35.8869 24.1182 34.2898 24.1182C32.6926 24.1182 31.3979 25.0626 31.3979 26.2277C31.3979 27.3927 32.6926 28.3372 34.2898 28.3372Z" fill="#9742EA"/>
</g>
<g style="mix-blend-mode:color-dodge" opacity="0.51">
<path d="M43.5008 28.3372C45.0979 28.3372 46.3926 27.3927 46.3926 26.2277C46.3926 25.0626 45.0979 24.1182 43.5008 24.1182C41.9036 24.1182 40.6089 25.0626 40.6089 26.2277C40.6089 27.3927 41.9036 28.3372 43.5008 28.3372Z" fill="#9742EA"/>
</g>
<g style="mix-blend-mode:color-dodge" opacity="0.51">
<path d="M52.7072 28.3372C54.3043 28.3372 55.599 27.3927 55.599 26.2277C55.599 25.0626 54.3043 24.1182 52.7072 24.1182C51.1101 24.1182 49.8153 25.0626 49.8153 26.2277C49.8153 27.3927 51.1101 28.3372 52.7072 28.3372Z" fill="#9742EA"/>
</g>
<g style="mix-blend-mode:color-dodge" opacity="0.51">
<path d="M61.9182 28.3372C63.5153 28.3372 64.8101 27.3927 64.8101 26.2277C64.8101 25.0626 63.5153 24.1182 61.9182 24.1182C60.3211 24.1182 59.0264 25.0626 59.0264 26.2277C59.0264 27.3927 60.3211 28.3372 61.9182 28.3372Z" fill="#9742EA"/>
</g>
<g style="mix-blend-mode:color-dodge" opacity="0.51">
<path d="M71.1292 28.3372C72.7264 28.3372 74.0211 27.3927 74.0211 26.2277C74.0211 25.0626 72.7264 24.1182 71.1292 24.1182C69.5321 24.1182 68.2374 25.0626 68.2374 26.2277C68.2374 27.3927 69.5321 28.3372 71.1292 28.3372Z" fill="#9742EA"/>
</g>
<g style="mix-blend-mode:color-dodge" opacity="0.51">
<path d="M80.3355 28.3372C81.9327 28.3372 83.2274 27.3927 83.2274 26.2277C83.2274 25.0626 81.9327 24.1182 80.3355 24.1182C78.7384 24.1182 77.4437 25.0626 77.4437 26.2277C77.4437 27.3927 78.7384 28.3372 80.3355 28.3372Z" fill="#9742EA"/>
</g>
<g style="mix-blend-mode:color-dodge" opacity="0.51">
<path d="M89.5467 28.3372C91.1438 28.3372 92.4385 27.3927 92.4385 26.2277C92.4385 25.0626 91.1438 24.1182 89.5467 24.1182C87.9495 24.1182 86.6548 25.0626 86.6548 26.2277C86.6548 27.3927 87.9495 28.3372 89.5467 28.3372Z" fill="#9742EA"/>
</g>
<g style="mix-blend-mode:color-dodge" opacity="0.51">
<path d="M98.753 28.3372C100.35 28.3372 101.645 27.3927 101.645 26.2277C101.645 25.0626 100.35 24.1182 98.753 24.1182C97.1558 24.1182 95.8611 25.0626 95.8611 26.2277C95.8611 27.3927 97.1558 28.3372 98.753 28.3372Z" fill="#9742EA"/>
</g>
<g style="mix-blend-mode:color-dodge" opacity="0.51">
<path d="M22.1356 23.0851C23.8613 23.0851 25.2603 22.0635 25.2603 20.8033C25.2603 19.5431 23.8613 18.5215 22.1356 18.5215C20.4099 18.5215 19.011 19.5431 19.011 20.8033C19.011 22.0635 20.4099 23.0851 22.1356 23.0851Z" fill="#9742EA"/>
</g>
<g style="mix-blend-mode:color-dodge" opacity="0.51">
<path d="M32.0824 23.0846C33.8081 23.0846 35.2071 22.063 35.2071 20.8028C35.2071 19.5426 33.8081 18.521 32.0824 18.521C30.3567 18.521 28.9578 19.5426 28.9578 20.8028C28.9578 22.063 30.3567 23.0846 32.0824 23.0846Z" fill="#9742EA"/>
</g>
<g style="mix-blend-mode:color-dodge" opacity="0.51">
<path d="M42.0246 23.0846C43.7503 23.0846 45.1492 22.063 45.1492 20.8028C45.1492 19.5426 43.7503 18.521 42.0246 18.521C40.2988 18.521 38.8999 19.5426 38.8999 20.8028C38.8999 22.063 40.2988 23.0846 42.0246 23.0846Z" fill="#9742EA"/>
</g>
<g style="mix-blend-mode:color-dodge" opacity="0.51">
<path d="M51.9713 23.0846C53.697 23.0846 55.096 22.063 55.096 20.8028C55.096 19.5426 53.697 18.521 51.9713 18.521C50.2456 18.521 48.8467 19.5426 48.8467 20.8028C48.8467 22.063 50.2456 23.0846 51.9713 23.0846Z" fill="#9742EA"/>
</g>
<g style="mix-blend-mode:color-dodge" opacity="0.51">
<path d="M61.9181 23.0846C63.6438 23.0846 65.0428 22.063 65.0428 20.8028C65.0428 19.5426 63.6438 18.521 61.9181 18.521C60.1924 18.521 58.7935 19.5426 58.7935 20.8028C58.7935 22.063 60.1924 23.0846 61.9181 23.0846Z" fill="#9742EA"/>
</g>
<g style="mix-blend-mode:color-dodge" opacity="0.51">
<path d="M71.8649 23.0846C73.5907 23.0846 74.9896 22.063 74.9896 20.8028C74.9896 19.5426 73.5907 18.521 71.8649 18.521C70.1392 18.521 68.7402 19.5426 68.7402 20.8028C68.7402 22.063 70.1392 23.0846 71.8649 23.0846Z" fill="#9742EA"/>
</g>
<g style="mix-blend-mode:color-dodge" opacity="0.51">
<path d="M81.8118 23.0846C83.5376 23.0846 84.9365 22.063 84.9365 20.8028C84.9365 19.5426 83.5376 18.521 81.8118 18.521C80.0861 18.521 78.6871 19.5426 78.6871 20.8028C78.6871 22.063 80.0861 23.0846 81.8118 23.0846Z" fill="#9742EA"/>
</g>
<g style="mix-blend-mode:color-dodge" opacity="0.51">
<path d="M91.7539 23.0846C93.4796 23.0846 94.8786 22.063 94.8786 20.8028C94.8786 19.5426 93.4796 18.521 91.7539 18.521C90.0282 18.521 88.6293 19.5426 88.6293 20.8028C88.6293 22.063 90.0282 23.0846 91.7539 23.0846Z" fill="#9742EA"/>
</g>
<g style="mix-blend-mode:color-dodge" opacity="0.51">
<path d="M101.701 23.0846C103.426 23.0846 104.825 22.063 104.825 20.8028C104.825 19.5426 103.426 18.521 101.701 18.521C99.975 18.521 98.576 19.5426 98.576 20.8028C98.576 22.063 99.975 23.0846 101.701 23.0846Z" fill="#9742EA"/>
</g>
</g>
</svg>
