<svg width="119" height="29" viewBox="0 0 119 29" fill="none" xmlns="http://www.w3.org/2000/svg">
<path d="M44.617 14.6213C44.617 10.9921 43.5822 9.1289 41.5124 9.02697C40.6887 8.98809 39.885 9.11918 39.1026 9.42299C38.4783 9.64629 38.0581 9.86761 37.8371 10.0912V18.7538C39.1609 19.5847 40.3365 19.971 41.3619 19.9102C43.5309 19.7664 44.617 18.0053 44.617 14.6213ZM47.1701 14.7719C47.1701 16.6157 46.7377 18.1462 45.8679 19.3631C44.8986 20.7406 43.5553 21.4499 41.8379 21.4888C40.5432 21.5299 39.2093 21.1244 37.8368 20.274V28.1473L35.6165 27.3553V9.87957C35.9808 9.43271 36.4499 9.0489 37.0181 8.72316C38.3397 7.95305 39.9453 7.55728 41.8354 7.53784L41.8668 7.56924C43.5942 7.54756 44.925 8.25686 45.8604 9.69489C46.7327 11.014 47.1701 12.7048 47.1701 14.7719ZM60.7397 19.9391C60.7397 22.4122 60.492 24.1246 59.9965 25.0769C59.4985 26.0289 58.551 26.7893 57.1518 27.3556C56.0174 27.8024 54.7904 28.0454 53.474 28.0868L53.1069 26.6876C54.4455 26.5057 55.3881 26.3233 55.9346 26.1411C57.0108 25.7767 57.7492 25.2182 58.155 24.4698C58.4805 23.8602 58.6407 22.6965 58.6407 20.9744V20.3962C57.1224 21.0863 55.5314 21.4287 53.8675 21.4287C52.7742 21.4287 51.8099 21.0863 50.979 20.3962C50.0462 19.6455 49.5798 18.6935 49.5798 17.5395V8.29823L51.8002 7.53784V16.8392C51.8002 17.8326 52.1207 18.598 52.762 19.1348C53.4032 19.6717 54.2341 19.9294 55.252 19.9097C56.2698 19.8877 57.3604 19.4942 58.5191 18.7241V7.8728H60.7394V19.9391H60.7397ZM69.407 21.3674C69.1638 21.3879 68.9199 21.3984 68.6758 21.3988C67.42 21.3988 66.4407 21.1002 65.7414 20.5001C65.0441 19.9002 64.6944 19.072 64.6944 18.0151V9.26971H63.1736V7.87305H64.6944V4.16357L66.9123 3.37402V7.87305H69.407V9.26971H66.9123V17.9542C66.9123 18.7877 67.1356 19.3778 67.5824 19.723C67.9663 20.0071 68.5761 20.1699 69.4068 20.2112V21.3674H69.407ZM82.8505 21.1852H80.6302V12.6148C80.6302 11.7428 80.4263 10.9921 80.0206 10.3656C79.5518 9.65602 78.9008 9.30137 78.0649 9.30137C77.0471 9.30137 75.7743 9.8382 74.2463 10.9119V21.1852H72.0261V0.699578L74.2463 0V9.33053C75.6648 8.29798 77.2148 7.78059 78.8983 7.78059C80.0742 7.78059 81.0262 8.17661 81.7552 8.96616C82.4864 9.75546 82.8508 10.7394 82.8508 11.9152V21.1852H82.8505ZM94.6516 14.2717C94.6516 12.8773 94.387 11.7258 93.8596 10.8149C93.2328 9.70486 92.2588 9.11918 90.9422 9.05862C88.508 9.19943 87.2932 10.9435 87.2932 14.2864C87.2932 15.8191 87.546 17.0994 88.0561 18.127C88.7071 19.4364 89.6838 20.0826 90.986 20.0607C93.4297 20.041 94.6516 18.1123 94.6516 14.2717ZM97.0833 14.2861C97.0833 16.271 96.5757 17.9228 95.5626 19.2417C94.4473 20.7189 92.9076 21.4596 90.9422 21.4596C88.994 21.4596 87.4757 20.7187 86.3801 19.2417C85.3864 17.9228 84.8907 16.271 84.8907 14.2861C84.8907 12.4207 85.4275 10.8513 86.5014 9.57352C87.6359 8.21798 89.1273 7.53784 90.9713 7.53784C92.8148 7.53784 94.3162 8.21798 95.4726 9.57352C96.5465 10.8513 97.0833 12.4207 97.0833 14.2861ZM109.812 21.1852H107.592V12.1291C107.592 11.1357 107.293 10.3606 106.696 9.80181C106.098 9.24554 105.301 8.97588 104.308 8.99756C103.254 9.017 102.25 9.36193 101.298 10.0301V21.1852H99.0776V9.7557C100.355 8.82559 101.531 8.21798 102.605 7.93386C103.618 7.66918 104.512 7.53784 105.282 7.53784C105.809 7.53784 106.305 7.58868 106.771 7.69087C107.643 7.89249 108.353 8.26658 108.899 8.81562C109.509 9.42299 109.812 10.1515 109.812 11.0043V21.1852Z" fill="#B4A2DA"/>
<path d="M13.6871 0.781616C12.5447 0.786849 11.4538 0.884297 10.4941 1.05427C7.66634 1.55397 7.15294 2.59947 7.15294 4.52798V7.07482H13.8352V7.92369H4.64498C2.70301 7.92369 1.00229 9.09106 0.470438 11.3117C-0.143156 13.857 -0.170322 15.4453 0.470438 18.1031C0.945463 20.0814 2.07994 21.4911 4.02191 21.4911H6.31952V18.438C6.31952 16.2324 8.22785 14.2869 10.4941 14.2869H17.1686C19.0266 14.2869 20.5097 12.7572 20.5097 10.8912V4.52773C20.5097 2.71686 18.982 1.35633 17.1686 1.05402C16.0204 0.863113 14.8296 0.776133 13.6871 0.781616ZM10.0734 2.82976C10.7637 2.82976 11.3272 3.40273 11.3272 4.10704C11.3272 4.80886 10.7635 5.3766 10.0734 5.3766C9.38077 5.3766 8.81951 4.80911 8.81951 4.10704C8.81951 3.40273 9.38077 2.82976 10.0734 2.82976Z" fill="#B4A2DA"/>
<path d="M21.3433 7.92346V10.8907C21.3433 13.1914 19.3928 15.1276 17.1687 15.1276H10.4942C8.66588 15.1276 7.15308 16.6922 7.15308 18.5233V24.8863C7.15308 26.6974 8.72769 27.7626 10.4942 28.282C12.6094 28.9041 14.6378 29.0165 17.1687 28.282C18.851 27.795 20.5098 26.8146 20.5098 24.8863V22.3397H13.8353V21.4908H23.851C25.7932 21.4908 26.5167 20.136 27.1921 18.1029C27.8899 16.0099 27.8603 13.9966 27.1921 11.3114C26.7121 9.37819 25.7954 7.92346 23.851 7.92346H21.3433ZM17.5892 24.0374C18.2818 24.0374 18.843 24.6049 18.843 25.307C18.843 26.0113 18.2818 26.5843 17.5892 26.5843C16.8988 26.5843 16.3353 26.0113 16.3353 25.307C16.3353 24.6052 16.8991 24.0374 17.5892 24.0374Z" fill="#B4A2DA"/>
<path d="M114.136 5.8934H114.526V3.45199H115.447V3.16089H113.214V3.45199H114.136V5.8934H114.136ZM115.793 5.8934H116.125V3.66358L116.847 5.89315H117.217L117.97 3.67105V5.8934H118.332V3.16114H117.852L117.03 5.50212L116.329 3.16114H115.793V5.8934Z" fill="#B4A2DA"/>
</svg>
