<svg width="31" height="38" viewBox="0 0 31 38" fill="none" xmlns="http://www.w3.org/2000/svg">
<path fill-rule="evenodd" clip-rule="evenodd" d="M17.8244 3.39447C20.4077 0.0165324 23.9993 0 23.9993 0C23.9993 0 24.5334 3.17589 21.9671 6.23529C19.2268 9.50205 16.112 8.9675 16.112 8.9675C16.112 8.9675 15.5272 6.39831 17.8244 3.39447Z" fill="#B4A2DA"/>
<mask id="mask0" mask-type="alpha" maskUnits="userSpaceOnUse" x="0" y="9" width="31" height="29">
<path fill-rule="evenodd" clip-rule="evenodd" d="M0.0454102 9.04065H30.9988V37.9999H0.0454102V9.04065Z" fill="white"/>
</mask>
<g mask="url(#mask0)">
<path fill-rule="evenodd" clip-rule="evenodd" d="M22.5535 9.04065C27.8904 9.04065 29.9899 12.8541 29.9899 12.8541C29.9899 12.8541 25.8836 14.9622 25.8836 20.0777C25.8836 25.8486 30.9988 27.8372 30.9988 27.8372C30.9988 27.8372 27.423 37.9439 22.5932 37.9439C20.3748 37.9439 18.6503 36.4427 16.3129 36.4427C13.931 36.4427 11.5672 37.9999 10.0277 37.9999C5.6173 37.9999 0.0454102 28.4128 0.0454102 20.7065C0.0454102 13.1243 4.76171 9.14688 9.1853 9.14688C12.0611 9.14688 14.2927 10.8122 15.7877 10.8122C17.0712 10.8122 19.4531 9.04065 22.5535 9.04065Z" fill="#B4A2DA"/>
</g>
</svg>
