<svg width="142" height="30" viewBox="0 0 142 30" fill="none" xmlns="http://www.w3.org/2000/svg">
<path fill-rule="evenodd" clip-rule="evenodd" d="M141.326 13.5526V11.0847H138.262V7.24813L138.158 7.2799L135.28 8.16062L135.223 8.17786V11.0849H130.68V9.46542C130.68 8.71134 130.849 8.13429 131.181 7.74944C131.511 7.36922 131.983 7.17592 132.585 7.17592C133.018 7.17592 133.466 7.27786 133.917 7.4789L134.03 7.5294V4.93039L133.977 4.91085C133.556 4.75963 132.984 4.68347 132.274 4.68347C131.381 4.68347 130.568 4.878 129.86 5.26352C129.151 5.64958 128.594 6.20071 128.203 6.90144C127.814 7.60134 127.617 8.40972 127.617 9.30429V11.0847H125.483V13.5526H127.617V23.9493H130.68V13.5526H135.223V20.1595C135.223 22.8806 136.507 24.2595 139.038 24.2595C139.454 24.2595 139.892 24.2108 140.339 24.1153C140.794 24.0173 141.104 23.9194 141.286 23.8149L141.326 23.791V21.3004L141.202 21.3827C141.036 21.4935 140.828 21.5841 140.586 21.6514C140.342 21.7199 140.138 21.7543 139.981 21.7543C139.388 21.7543 138.949 21.5945 138.677 21.2792C138.401 20.961 138.262 20.4046 138.262 19.6262V13.5526H141.326ZM118.642 21.7547C117.53 21.7547 116.653 21.386 116.035 20.6598C115.414 19.9299 115.099 18.8892 115.099 17.567C115.099 16.2029 115.414 15.1353 116.035 14.3925C116.654 13.6546 117.522 13.28 118.617 13.28C119.679 13.28 120.524 13.6377 121.13 14.3437C121.739 15.0534 122.048 16.1125 122.048 17.4925C122.048 18.8895 121.757 19.9626 121.184 20.6804C120.615 21.3928 119.76 21.7547 118.642 21.7547ZM113.77 12.6223C114.971 11.3964 116.656 10.7748 118.778 10.7748C120.776 10.7748 122.361 11.3694 123.488 12.5424C124.614 13.7148 125.185 15.347 125.185 17.3927C125.185 19.4638 124.577 21.1445 123.376 22.3861C122.175 23.6289 120.524 24.2592 118.467 24.2592C116.494 24.2592 114.899 23.6611 113.727 22.4804C112.555 21.3001 111.961 19.6799 111.961 17.6657C111.961 15.5451 112.57 13.8484 113.77 12.6223ZM107.022 10.7748C105.579 10.7748 104.385 11.1439 103.473 11.8717C102.556 12.6037 102.091 13.5639 102.091 14.7257C102.091 15.3297 102.191 15.8661 102.389 16.3212C102.588 16.7777 102.895 17.1796 103.304 17.517C103.71 17.8516 104.336 18.2021 105.166 18.5587C105.864 18.8458 106.384 19.0886 106.715 19.28C107.038 19.4676 107.267 19.6562 107.397 19.8399C107.523 20.0196 107.586 20.2656 107.586 20.5691C107.586 21.4334 106.939 21.8539 105.607 21.8539C105.113 21.8539 104.55 21.7508 103.933 21.5474C103.32 21.3471 102.741 21.0538 102.218 20.6778L102.09 20.5866V23.536L102.137 23.5577C102.57 23.7578 103.117 23.9265 103.761 24.0593C104.404 24.1922 104.988 24.2598 105.496 24.2598C107.061 24.2598 108.322 23.8889 109.242 23.1568C110.168 22.4197 110.638 21.4369 110.638 20.2349C110.638 19.3677 110.385 18.6241 109.887 18.0244C109.393 17.4295 108.534 16.8834 107.337 16.4007C106.383 16.0179 105.772 15.7001 105.52 15.4562C105.277 15.2205 105.154 14.8873 105.154 14.4652C105.154 14.0911 105.306 13.7914 105.619 13.5487C105.934 13.3047 106.372 13.1807 106.923 13.1807C107.433 13.1807 107.955 13.2613 108.475 13.4193C108.993 13.5773 109.449 13.7889 109.83 14.0478L109.955 14.1333V11.3356L109.907 11.315C109.556 11.1644 109.093 11.0356 108.531 10.9311C107.971 10.8272 107.463 10.7748 107.022 10.7748ZM91.4983 20.6598C92.116 21.386 92.9929 21.7547 94.1045 21.7547C95.2233 21.7547 96.0784 21.3928 96.6473 20.6804C97.2202 19.9626 97.5108 18.8895 97.5108 17.4925C97.5108 16.1125 97.202 15.0534 96.5932 14.3437C95.9873 13.6377 95.1418 13.28 94.0799 13.28C92.9847 13.28 92.1166 13.6546 91.499 14.3925C90.877 15.1353 90.5622 16.2029 90.5622 17.567C90.5622 18.8895 90.8766 19.9299 91.4983 20.6598ZM94.2411 10.7748C92.1192 10.7748 90.4342 11.3964 89.2335 12.6223C88.033 13.8484 87.4239 15.5451 87.4239 17.6657C87.4239 19.6808 88.0185 21.3001 89.1905 22.4804C90.3625 23.6611 91.9574 24.2592 93.9308 24.2592C95.9868 24.2592 97.6385 23.6289 98.8394 22.3861C100.04 21.1445 100.648 19.4638 100.648 17.3927C100.648 15.347 100.077 13.7148 98.9508 12.5424C97.8237 11.3694 96.239 10.7748 94.2411 10.7748ZM82.7737 11.0847V13.3126H82.8059C83.0887 12.5896 83.4585 12.0099 83.9701 11.587C84.553 11.1059 85.2335 10.8616 85.9939 10.8616C86.4984 10.8616 86.897 10.922 87.1789 11.0417L87.2279 11.0627V14.1135L87.1007 14.0213C86.9606 13.9204 86.723 13.8244 86.3951 13.736C86.0637 13.6471 85.7577 13.6022 85.4851 13.6022C84.681 13.6022 84.0223 13.9498 83.5281 14.6359C83.0275 15.3302 82.7737 16.2495 82.7737 17.3684V23.949H79.7477V11.0847H82.7737ZM74.3285 10.7748C72.9403 10.7748 71.702 11.0725 70.6487 11.6594C69.5933 12.2475 68.777 13.0873 68.2217 14.1551C67.6688 15.2203 67.3881 16.4645 67.3881 17.8521C67.3881 19.0676 67.6603 20.183 68.1982 21.1661C68.7365 22.1508 69.4983 22.9212 70.4626 23.4555C71.4256 23.9891 72.5386 24.2596 73.7709 24.2596C75.209 24.2596 76.4368 23.9721 77.4213 23.4051L77.461 23.3823V20.6099L77.3338 20.7028C76.8879 21.0276 76.3896 21.2869 75.8534 21.4737C75.3185 21.6603 74.8309 21.7547 74.4033 21.7547C73.216 21.7547 72.2627 21.3832 71.5708 20.6507C70.8775 19.9172 70.5259 18.8873 70.5259 17.5913C70.5259 16.2872 70.8925 15.2308 71.6151 14.4514C72.3355 13.6742 73.2905 13.28 74.4533 13.28C75.4479 13.28 76.4171 13.6168 77.3341 14.282L77.461 14.3742V11.453L77.42 11.4299C77.075 11.2368 76.6043 11.0773 76.0201 10.9563C75.4383 10.8356 74.8692 10.7748 74.3285 10.7748ZM62.2779 11.0849H65.304V23.949H62.2779V11.0849ZM63.8219 5.60465C63.3238 5.60465 62.8894 5.7742 62.5326 6.11017C62.1742 6.44709 61.9924 6.8713 61.9924 7.37193C61.9924 7.86469 62.172 8.28116 62.527 8.60913C62.8797 8.93614 63.3154 9.10189 63.822 9.10189C64.3285 9.10189 64.7659 8.93614 65.1227 8.60967C65.4819 8.28116 65.6641 7.86483 65.6641 7.37193C65.6641 6.88881 65.4868 6.46895 65.1375 6.12374C64.7885 5.77922 64.3457 5.60465 63.8219 5.60465ZM56.2717 23.949V10.1357H56.172L50.6915 23.949H48.5014L42.934 10.1344H42.8344V23.9489H39.9323V5.99845H44.3805L49.6528 19.3316L55.0856 5.99845H59.3599V23.949H56.2717Z" fill="#B4A2DA"/>
<path d="M15.2343 14.2355H0.998779V0H15.2343V14.2355Z" fill="#B4A2DA"/>
<path d="M30.9518 14.2355H16.7166V0H30.9518V14.2355Z" fill="#B4A2DA"/>
<path d="M15.2338 29.9586H0.998779V15.7233H15.2338V29.9586Z" fill="#B4A2DA"/>
<path d="M30.9518 29.9586H16.7166V15.7233H30.9518V29.9586Z" fill="#B4A2DA"/>
</svg>
