<svg width="31" height="35" viewBox="0 0 31 35" fill="none" xmlns="http://www.w3.org/2000/svg">
<path d="M3.11933 30.7455L0.326416 0L30.4148 0.0117348L27.6453 30.7221L15.3471 34.1956L3.11933 30.7455ZM25.3805 29.0674L27.7158 2.73424H15.3941L15.488 31.7782L25.3805 29.0674ZM14.2441 6.59504H11.2516L11.2164 22.3551L5.40764 20.7708L5.41938 24.3735L14.2441 26.7557V6.59504Z" fill="#B4A2DA"/>
<path opacity="0.986" d="M13.2584 26.4624C12.8712 26.345 10.9584 25.8287 9.01037 25.3006L5.47815 24.3501V22.5781C5.47815 20.8413 5.47815 20.8061 5.65417 20.8648C5.74805 20.9 7.0389 21.252 8.5175 21.6628L11.2048 22.4021L11.2283 14.5397L11.2517 6.67725H14.1855V16.6754C14.1855 24.62 14.162 26.6736 14.0799 26.6736C14.0212 26.6618 13.6457 26.568 13.2584 26.4624Z" fill="#B4A2DA"/>
<path opacity="0.986" d="M5.41933 24.3735L5.40759 20.7709C5.40759 20.7709 9.11583 21.8153 11.2164 22.3551L11.2516 6.60681H14.244V26.7557L5.41933 24.3735Z" fill="#B4A2DA"/>
<path d="M15.394 2.72253H27.7157L25.3805 29.0557L15.394 31.7665V2.72253ZM24.7468 24.6434L25.5565 14.7978L19.5717 15.4667V10.2094L25.9555 10.186L26.2137 6.59506L16.5793 6.642L16.7084 19.7147L22.5289 18.7173L22.4467 21.6275L16.5793 23.1883L16.6379 26.7557L24.7468 24.6434Z" fill="#B4A2DA"/>
</svg>
