<svg width="37" height="36" viewBox="0 0 37 36" fill="none" xmlns="http://www.w3.org/2000/svg">
<path d="M36.3611 17.6816C36.3611 27.4464 28.4449 35.3627 18.6795 35.3627C8.91389 35.3627 0.997803 27.4464 0.997803 17.6816C0.997803 7.91623 8.91417 0 18.6795 0C28.445 0 36.3611 7.91623 36.3611 17.6816Z" fill="#B4A2DA"/>
<path d="M6.6565 15.3205C5.35215 15.3205 4.29541 16.3772 4.29541 17.6816C4.29541 18.9852 5.35215 20.0421 6.6565 20.0421C7.96029 20.0421 9.01703 18.9852 9.01703 17.6816C9.01703 16.3772 7.96029 15.3205 6.6565 15.3205ZM23.5116 26.0496C22.3826 26.7019 21.9953 28.1448 22.6475 29.2733C23.2991 30.4025 24.742 30.7895 25.8712 30.1374C27.0002 29.4859 27.3874 28.0429 26.7353 26.9136C26.0838 25.7853 24.64 25.3982 23.5116 26.0496ZM11.7843 17.6816C11.7843 15.3487 12.9431 13.2876 14.7161 12.0396L12.9902 9.14895C10.9249 10.5296 9.38802 12.6392 8.74935 15.1101C9.49465 15.718 9.97158 16.6438 9.97158 17.6814C9.97158 18.7185 9.49465 19.6442 8.74935 20.2523C9.38719 22.7238 10.924 24.8336 12.9902 26.2143L14.7161 23.3228C12.9431 22.0755 11.7843 20.0145 11.7843 17.6816ZM18.6795 10.7856C22.2818 10.7856 25.2372 13.5475 25.5474 17.0699L28.9111 17.0203C28.7458 14.4199 27.6097 12.0854 25.8643 10.3688C24.9666 10.708 23.9297 10.656 23.0337 10.1395C22.136 9.62144 21.573 8.74749 21.4192 7.7989C20.5268 7.55196 19.6052 7.42665 18.6794 7.42639C17.1029 7.42478 15.5474 7.78798 14.1346 8.48757L15.7749 11.4271C16.6846 11.0037 17.6761 10.7847 18.6795 10.7856ZM18.6795 24.5769C17.6761 24.5778 16.6847 24.3589 15.775 23.9355L14.1347 26.8747C15.5473 27.5751 17.103 27.9387 18.6796 27.937C19.6055 27.9368 20.5272 27.8111 21.4193 27.5635C21.5732 26.6149 22.1362 25.7418 23.0337 25.2229C23.9305 24.7054 24.9668 24.6544 25.8643 24.9936C27.6098 23.277 28.7458 20.9425 28.9114 18.3421L25.5467 18.2925C25.2372 21.8159 22.2819 24.5768 18.6795 24.5768V24.5769ZM23.5108 9.31208C24.64 9.96404 26.0831 9.57796 26.7345 8.44879C27.3867 7.31962 27.0004 5.87652 25.8712 5.22428C24.742 4.57287 23.2991 4.95978 22.6467 6.08895C21.9954 7.21756 22.3825 8.66053 23.5108 9.31208Z" fill="#3E2B6A"/>
</svg>
