<svg width="154" height="34" viewBox="0 0 154 34" fill="none" xmlns="http://www.w3.org/2000/svg">
<path fill-rule="evenodd" clip-rule="evenodd" d="M49.2569 14.5267H52.9708C54.2378 14.5267 55.2513 13.4322 55.1717 12.1233C55.0921 10.9326 54.0713 10.0304 52.8984 10.0304H49.2569C49.0904 10.0304 48.9528 10.1709 48.9528 10.341V14.2161C48.9528 14.3862 49.0904 14.5267 49.2569 14.5267ZM55.6785 17.8472C55.5916 17.9137 55.5554 18.0321 55.5988 18.1356L59.1825 26.7584C59.2476 26.9137 59.139 27.0838 58.9725 27.0838H55.2368C55.0486 27.0838 54.8821 26.9655 54.8097 26.788L51.6749 18.8603C51.6026 18.6828 51.436 18.5645 51.2478 18.5645L49.2424 18.5571C49.0759 18.5571 48.9384 18.6976 48.9384 18.8677V26.7732C48.9384 26.9433 48.8008 27.0838 48.6343 27.0838H45.3041C45.1376 27.0838 45 26.9433 45 26.7732V6.3106C45 6.14051 45.1376 6 45.3041 6H52.9636C56.2794 6 59.0304 8.68448 59.1101 12.0715C59.168 14.4158 58.263 16.0501 56.0622 17.5735C55.9575 17.6505 55.8721 17.7102 55.8034 17.7583V17.7584C55.7533 17.7933 55.7121 17.8222 55.6785 17.8472ZM66.328 23.6894C67.7687 23.6894 68.5867 23.083 68.7677 21.885C68.9487 20.6648 68.9487 18.5127 68.7677 17.2851C68.5867 16.0871 67.7687 15.4807 66.328 15.4807C64.8366 15.4807 64.1126 16.0205 63.9172 17.2851C63.7362 18.5053 63.7362 20.6574 63.9172 21.885C64.0837 23.0978 64.8728 23.6894 66.328 23.6894ZM60.2684 17.3147C60.6883 13.8833 63.005 11.7535 66.328 11.7535C69.6654 11.7535 72.0039 13.8833 72.4165 17.3147C72.5685 18.5275 72.5685 20.6426 72.4165 21.8554C71.9966 25.2868 69.6799 27.4166 66.3569 27.4166C63.0122 27.4166 60.6811 25.2868 60.2684 21.8554C60.1164 20.6426 60.1164 18.5201 60.2684 17.3147ZM83.1529 21.8776C83.0877 23.0534 82.1611 23.8151 80.8 23.8151C79.3883 23.8151 78.5195 23.1126 78.4182 21.8776C78.3313 20.6574 78.3313 18.5127 78.4182 17.2925C78.4833 16.4051 78.9539 15.355 80.8 15.355C82.1611 15.355 83.0805 16.1167 83.1529 17.2925C83.2398 18.5127 83.2398 20.6574 83.1529 21.8776ZM81.2489 11.7535C79.9819 11.7535 79.3448 12.0567 78.7512 12.5892C78.6354 12.7001 78.4471 12.6113 78.4471 12.4487V6.3106C78.4471 6.14051 78.3096 6 78.1431 6H75.1097C74.9431 6 74.8056 6.14051 74.8056 6.3106V26.7732C74.8056 26.9433 74.9431 27.0838 75.1097 27.0838H77.1078C77.2526 27.0838 77.3901 27.0173 77.477 26.8989L78.2155 25.9006C78.2879 25.797 78.4399 25.8044 78.5123 25.9006C79.048 26.6549 79.8082 27.4166 81.2561 27.4166C84.2316 27.4166 86.5628 25.0797 86.8089 21.8628C86.8958 20.65 86.8958 18.5275 86.8089 17.3147C86.5555 14.0904 84.2244 11.7535 81.2489 11.7535ZM147.933 23.8151C149.294 23.8151 150.221 23.0534 150.286 21.8776C150.38 20.6574 150.38 18.5127 150.286 17.2925C150.214 16.1167 149.294 15.355 147.933 15.355C146.521 15.355 145.653 16.0649 145.551 17.2925C145.464 18.5127 145.464 20.6574 145.551 21.8776C145.624 22.765 146.087 23.8151 147.933 23.8151ZM148.382 11.7535C151.358 11.7535 153.696 14.0904 153.935 17.3073C154.022 18.5201 154.022 20.65 153.935 21.8628C153.689 25.0797 151.358 27.4166 148.382 27.4166C147.115 27.4166 146.471 27.1134 145.884 26.5735C145.769 26.4626 145.58 26.5514 145.58 26.7141V32.6894C145.58 32.8595 145.443 33 145.276 33H142.243C142.076 33 141.939 32.8595 141.939 32.6894V12.3969C141.939 12.2268 142.076 12.0863 142.243 12.0863H144.241C144.386 12.0863 144.523 12.1528 144.61 12.2712L145.341 13.2695C145.421 13.3731 145.566 13.3731 145.638 13.2695C146.174 12.5152 146.934 11.7535 148.382 11.7535ZM97.1254 21.885C96.9444 23.083 96.1263 23.6894 94.6856 23.6894C93.2305 23.6894 92.4413 23.0978 92.2748 21.885C92.0938 20.6574 92.0938 18.5053 92.2748 17.2851C92.4703 16.0205 93.1943 15.4807 94.6856 15.4807C96.1263 15.4807 96.9444 16.0871 97.1254 17.2851C97.3064 18.5127 97.3064 20.6648 97.1254 21.885ZM94.6856 11.7535C91.3626 11.7535 89.046 13.8833 88.6261 17.3147C88.474 18.5201 88.474 20.6426 88.6261 21.8554C89.0387 25.2868 91.3771 27.4166 94.7146 27.4166C98.0376 27.4166 100.354 25.2868 100.774 21.8554C100.926 20.6426 100.926 18.5275 100.774 17.3147C100.354 13.8833 98.0231 11.7535 94.6856 11.7535ZM102.642 17.3147C103.062 13.8833 105.393 11.7535 108.731 11.7535C112.242 11.7535 114.696 14.1569 114.689 17.6253V17.8028C114.689 17.9729 114.551 18.1134 114.385 18.1134H111.511C111.351 18.1134 111.221 17.9951 111.206 17.8324C111.206 17.8184 111.205 17.8044 111.203 17.7897C111.201 17.7732 111.199 17.7558 111.199 17.7362C111.112 16.272 110.251 15.4955 108.702 15.4955C107.196 15.4955 106.45 16.0501 106.291 17.2999C106.139 18.5201 106.139 20.6721 106.291 21.8924C106.428 23.0978 107.246 23.7042 108.731 23.7042C110.236 23.7042 110.975 23.0312 111.199 21.4708V21.4702C111.206 21.426 111.214 21.3819 111.221 21.3451C111.243 21.1898 111.373 21.0789 111.525 21.0789H114.392C114.558 21.0789 114.696 21.2194 114.696 21.3895V21.567C114.696 25.4051 111.699 27.4166 108.731 27.4166C105.386 27.4166 103.055 25.2868 102.642 21.8554C102.49 20.6426 102.49 18.5201 102.642 17.3147ZM124.955 21.885C124.774 23.083 123.955 23.6894 122.515 23.6894C121.06 23.6894 120.271 23.0978 120.104 21.885C119.923 20.6574 119.923 18.5053 120.104 17.2851C120.299 16.0205 121.023 15.4807 122.515 15.4807C123.955 15.4807 124.774 16.0871 124.955 17.2851C125.136 18.5127 125.136 20.6648 124.955 21.885ZM122.515 11.7535C119.192 11.7535 116.875 13.8833 116.455 17.3147C116.303 18.5201 116.303 20.6426 116.455 21.8554C116.868 25.2868 119.206 27.4166 122.544 27.4166C125.867 27.4166 128.183 25.2868 128.603 21.8554C128.755 20.6426 128.755 18.5275 128.603 17.3147C128.183 13.8833 125.852 11.7535 122.515 11.7535ZM138.58 12.0937H139.767C139.941 12.0937 140.078 12.2342 140.071 12.4043V15.1997C140.071 15.3698 139.933 15.5103 139.767 15.5103H138.551C136.053 15.5103 134.562 16.9302 134.562 19.3114V26.7806C134.562 26.9507 134.424 27.0912 134.257 27.0912H131.224C131.058 27.0912 130.92 26.9507 130.92 26.7806V12.4117C130.92 12.2416 131.058 12.1011 131.224 12.1011H133.012C133.208 12.1011 133.382 12.2268 133.447 12.4191L134.019 14.1422C134.062 14.2753 134.229 14.3122 134.323 14.2161C134.598 13.9277 135.076 13.447 135.322 13.2473C135.915 12.7593 136.726 12.0937 138.58 12.0937Z" fill="white"/>
<mask id="path-2-outside-1" maskUnits="userSpaceOnUse" x="0" y="0" width="39" height="34" fill="black">
<rect fill="white" width="39" height="34"/>
<path d="M31.1058 8.11295C31.561 8.02625 32.0378 8.0696 32.4822 8.24843C35.0508 9.30514 36.7145 11.7654 36.7307 14.5183V15.2932C36.7307 18.0515 35.0725 20.5118 32.5039 21.5631C32.2058 21.6823 31.8915 21.7419 31.5826 21.7419C31.2954 21.7419 31.0136 21.6877 30.7481 21.5901C30.6397 21.5468 30.5259 21.6443 30.5476 21.7581C30.6018 22.0453 30.6072 22.3434 30.553 22.6414C29.583 28.0713 24.8793 32.011 19.3627 32.011C13.8461 32.011 9.14232 28.0713 8.17231 22.6414C8.11811 22.3434 8.12354 22.0453 8.17773 21.7581C8.1994 21.6443 8.0856 21.5468 7.97722 21.5901C7.70627 21.6877 7.42448 21.7419 7.14269 21.7419C6.8338 21.7419 6.52491 21.6823 6.22686 21.5631C3.65823 20.5063 2 18.0461 2 15.2932V14.5183C2 11.76 3.65823 9.29973 6.22686 8.24843C6.67123 8.06418 7.1481 8.02625 7.6033 8.11295C7.69001 8.12921 7.7713 8.08044 7.78755 7.99373C8.40533 4.9428 10.871 2.553 13.987 2.08696C15.4501 1.86478 16.9241 2.0707 18.2463 2.67764C18.5986 2.84021 18.9779 2.9215 19.3572 2.9215C19.7366 2.9215 20.1159 2.84021 20.4681 2.67764C21.7904 2.07612 23.2644 1.8702 24.7275 2.08696C27.8435 2.553 30.3092 4.9428 30.9269 7.99373C30.9432 8.08044 31.0191 8.12921 31.1058 8.11295Z"/>
</mask>
<path d="M31.1058 8.11295C31.561 8.02625 32.0378 8.0696 32.4822 8.24843C35.0508 9.30514 36.7145 11.7654 36.7307 14.5183V15.2932C36.7307 18.0515 35.0725 20.5118 32.5039 21.5631C32.2058 21.6823 31.8915 21.7419 31.5826 21.7419C31.2954 21.7419 31.0136 21.6877 30.7481 21.5901C30.6397 21.5468 30.5259 21.6443 30.5476 21.7581C30.6018 22.0453 30.6072 22.3434 30.553 22.6414C29.583 28.0713 24.8793 32.011 19.3627 32.011C13.8461 32.011 9.14232 28.0713 8.17231 22.6414C8.11811 22.3434 8.12354 22.0453 8.17773 21.7581C8.1994 21.6443 8.0856 21.5468 7.97722 21.5901C7.70627 21.6877 7.42448 21.7419 7.14269 21.7419C6.8338 21.7419 6.52491 21.6823 6.22686 21.5631C3.65823 20.5063 2 18.0461 2 15.2932V14.5183C2 11.76 3.65823 9.29973 6.22686 8.24843C6.67123 8.06418 7.1481 8.02625 7.6033 8.11295C7.69001 8.12921 7.7713 8.08044 7.78755 7.99373C8.40533 4.9428 10.871 2.553 13.987 2.08696C15.4501 1.86478 16.9241 2.0707 18.2463 2.67764C18.5986 2.84021 18.9779 2.9215 19.3572 2.9215C19.7366 2.9215 20.1159 2.84021 20.4681 2.67764C21.7904 2.07612 23.2644 1.8702 24.7275 2.08696C27.8435 2.553 30.3092 4.9428 30.9269 7.99373C30.9432 8.08044 31.0191 8.12921 31.1058 8.11295Z" fill="#2C3A4D"/>
<path d="M32.4822 8.24843L33.094 6.7614L33.0825 6.75678L32.4822 8.24843ZM31.1058 8.11295L31.4021 9.69332L31.4066 9.69246L31.1058 8.11295ZM30.9269 7.99373L32.5073 7.69743L32.5052 7.68601L32.5028 7.67463L30.9269 7.99373ZM24.7275 2.08696L24.9654 0.496744L24.9632 0.496417L24.7275 2.08696ZM20.4681 2.67764L19.8023 1.21404L19.7943 1.21773L20.4681 2.67764ZM18.2463 2.67764L18.9201 1.21772L18.9171 1.21633L18.2463 2.67764ZM13.987 2.08696L14.2248 3.67718L14.2283 3.67664L13.987 2.08696ZM7.78755 7.99373L6.21163 7.67463L6.20933 7.68601L6.20719 7.69741L7.78755 7.99373ZM7.6033 8.11295L7.30245 9.69246L7.30698 9.69332L7.6033 8.11295ZM6.22686 8.24843L6.83592 9.73654L6.84272 9.73372L6.22686 8.24843ZM6.22686 21.5631L5.61513 23.05L5.6224 23.053L5.6297 23.056L6.22686 21.5631ZM7.97722 21.5901L8.52185 23.103L8.54829 23.0935L8.57438 23.083L7.97722 21.5901ZM8.17773 21.7581L6.59822 21.4573L6.5977 21.46L8.17773 21.7581ZM8.17231 22.6414L9.75516 22.3587L9.75427 22.3538L8.17231 22.6414ZM30.553 22.6414L28.971 22.3538L28.9702 22.3587L30.553 22.6414ZM30.5476 21.7581L32.1276 21.46L32.1271 21.4573L30.5476 21.7581ZM30.7481 21.5901L30.1509 23.083L30.1722 23.0915L30.1937 23.0994L30.7481 21.5901ZM32.5039 21.5631L33.101 23.056L33.1129 23.0511L32.5039 21.5631ZM36.7307 14.5183H38.3387L38.3386 14.5088L36.7307 14.5183ZM33.0825 6.75678C32.3503 6.46212 31.5605 6.38952 30.8049 6.53345L31.4066 9.69246C31.5614 9.66297 31.7254 9.67708 31.8819 9.74007L33.0825 6.75678ZM30.8094 6.53259C31.1416 6.4703 31.5309 6.5226 31.8752 6.74972C32.2251 6.98048 32.4391 7.33376 32.5073 7.69743L29.3466 8.29003C29.5359 9.29971 30.4936 9.86367 31.4021 9.69332L30.8094 6.53259ZM32.5028 7.67463C31.7529 3.97085 28.7605 1.06436 24.9654 0.496745L24.4897 3.67718C26.9265 4.04164 28.8654 5.91476 29.351 8.31284L32.5028 7.67463ZM24.9632 0.496417C23.1977 0.234872 21.4104 0.482544 19.8023 1.21406L21.134 4.14122C22.1704 3.6697 23.331 3.50553 24.4919 3.67751L24.9632 0.496417ZM19.7943 1.21773C19.6561 1.28153 19.507 1.31359 19.3572 1.31359V4.5294C19.9662 4.5294 20.5757 4.39889 21.142 4.13755L19.7943 1.21773ZM19.3572 1.31359C19.2075 1.31359 19.0584 1.28153 18.9201 1.21773L17.5725 4.13755C18.1388 4.39889 18.7483 4.5294 19.3572 4.5294V1.31359ZM18.9171 1.21633C17.3063 0.476927 15.5149 0.228607 13.7456 0.497281L14.2283 3.67664C15.3853 3.50095 16.5419 3.66448 17.5756 4.13895L18.9171 1.21633ZM13.7491 0.496745C9.95398 1.06436 6.9616 3.97085 6.21163 7.67463L9.36347 8.31284C9.84905 5.91476 11.788 4.04164 14.2248 3.67718L13.7491 0.496745ZM6.20719 7.69741C6.37431 6.80609 7.22259 6.40564 7.89963 6.53259L7.30698 9.69332C8.15743 9.85278 9.16828 9.35479 9.36792 8.29005L6.20719 7.69741ZM7.90416 6.53345C7.1611 6.39191 6.36378 6.45102 5.61101 6.76314L6.84272 9.73372C6.97868 9.67734 7.1351 9.66058 7.30245 9.69246L7.90416 6.53345ZM5.61781 6.76034C2.44977 8.05696 0.392096 11.1021 0.392096 14.5183H3.6079C3.6079 12.4179 4.86669 10.5425 6.83591 9.73652L5.61781 6.76034ZM0.392096 14.5183V15.2932H3.6079V14.5183H0.392096ZM0.392096 15.2932C0.392096 18.7053 2.45067 21.7482 5.61513 23.05L6.8386 20.0761C4.8658 19.2645 3.6079 17.3869 3.6079 15.2932H0.392096ZM5.6297 23.056C6.11353 23.2495 6.62482 23.3498 7.14269 23.3498V20.134C7.04278 20.134 6.93629 20.1151 6.82402 20.0701L5.6297 23.056ZM7.14269 23.3498C7.63054 23.3498 8.09649 23.2561 8.52185 23.103L7.43259 20.0773C7.31605 20.1192 7.21841 20.134 7.14269 20.134V23.3498ZM8.57438 23.083C7.45289 23.5316 6.39247 22.5375 6.59822 21.4573L9.75723 22.059C10.0063 20.7512 8.71831 19.5619 7.38006 20.0972L8.57438 23.083ZM6.5977 21.46C6.50941 21.928 6.49867 22.4249 6.59034 22.9291L9.75427 22.3538C9.73755 22.2619 9.73766 22.1627 9.75775 22.0563L6.5977 21.46ZM6.58946 22.9242C7.6964 29.1206 13.0668 33.6189 19.3627 33.6189V30.4031C14.6253 30.4031 10.5882 27.0221 9.75515 22.3587L6.58946 22.9242ZM19.3627 33.6189C25.6585 33.6189 31.0289 29.1206 32.1359 22.9242L28.9702 22.3587C28.1371 27.0221 24.1 30.4031 19.3627 30.4031V33.6189ZM32.135 22.9291C32.2266 22.4249 32.2159 21.928 32.1276 21.46L28.9676 22.0563C28.9877 22.1627 28.9878 22.2618 28.971 22.3538L32.135 22.9291ZM32.1271 21.4573C32.3328 22.5374 31.2725 23.5317 30.1509 23.083L31.3453 20.0972C30.0069 19.5619 28.719 20.7513 28.9681 22.059L32.1271 21.4573ZM30.1937 23.0994C30.6235 23.2573 31.0926 23.3498 31.5826 23.3498V20.134C31.4983 20.134 31.4038 20.1181 31.3025 20.0809L30.1937 23.0994ZM31.5826 23.3498C32.0969 23.3498 32.6138 23.2508 33.101 23.056L31.9067 20.0701C31.7978 20.1137 31.6861 20.134 31.5826 20.134V23.3498ZM33.1129 23.0511C36.281 21.7545 38.3386 18.7094 38.3386 15.2932H35.1228C35.1228 17.3936 33.864 19.269 31.8948 20.075L33.1129 23.0511ZM38.3386 15.2932V14.5183H35.1228V15.2932H38.3386ZM38.3386 14.5088C38.3185 11.1023 36.2572 8.06278 33.0939 6.76144L31.8705 9.73542C33.8445 10.5475 35.1105 12.4285 35.1229 14.5278L38.3386 14.5088Z" fill="white" fill-opacity="0.15" mask="url(#path-2-outside-1)"/>
<path fill-rule="evenodd" clip-rule="evenodd" d="M31.7016 19.6505C33.4249 18.946 34.6442 17.2715 34.6442 15.299V14.524C34.6442 12.5515 33.4249 10.8716 31.7016 10.1671C31.474 10.075 31.2248 10.243 31.2248 10.4868V19.3307C31.2248 19.58 31.474 19.7426 31.7016 19.6505ZM28.6128 19.8618C28.4502 17.8568 27.6536 16.036 26.4181 14.5945C26.2772 14.4265 26.3151 14.1989 26.4993 14.0797C28.1793 13.0067 29.2306 11.0396 28.9759 8.85029C28.6995 6.4659 26.7974 4.49337 24.4238 4.13571C23.3129 3.97314 22.2508 4.14113 21.3296 4.56381C20.6955 4.85644 20.0236 4.99734 19.3516 4.99734C18.6742 4.99734 18.0023 4.85102 17.3737 4.56381C16.4524 4.14113 15.3903 3.96772 14.2794 4.13571C11.9058 4.48795 10.0037 6.4659 9.72737 8.85029C9.47267 11.045 10.524 13.0067 12.2039 14.0797C12.3881 14.1989 12.4261 14.4265 12.2852 14.5945C11.055 16.036 10.253 17.8568 10.0904 19.8618C10.0742 20.0677 10.2259 20.2411 10.4318 20.2411H19.3516H28.2714C28.4719 20.2411 28.629 20.0623 28.6128 19.8618ZM10.1988 22.2787C10.9792 26.6302 14.7725 29.9413 19.3516 29.9413C23.9307 29.9413 27.7241 26.6356 28.5044 22.2787C28.5423 22.0619 28.3798 21.8669 28.163 21.8669H19.3516H10.5402C10.3235 21.8669 10.1609 22.0674 10.1988 22.2787ZM7.007 19.6505C7.2346 19.7426 7.48388 19.5746 7.48388 19.3307V10.4814C7.48388 10.2321 7.2346 10.0696 7.007 10.1617C5.28374 10.8716 4.06445 12.5461 4.06445 14.5186V15.299C4.06445 17.2661 5.28374 18.946 7.007 19.6505ZM14.7455 8.3838H23.9579C24.4565 8.3838 24.8629 8.79023 24.8629 9.28878C24.8629 9.78734 24.4565 10.1938 23.9579 10.1938H14.7455C14.247 10.1938 13.8405 9.78734 13.8405 9.28878C13.8405 8.79023 14.247 8.3838 14.7455 8.3838ZM20.0344 14.3068C20.0344 13.7107 20.5167 13.2284 21.1128 13.2284C21.7089 13.2284 22.1912 13.7107 22.1912 14.3068C22.1912 14.9029 21.7089 15.3852 21.1128 15.3852C20.5167 15.3852 20.0344 14.9029 20.0344 14.3068ZM17.5904 13.2284C16.9943 13.2284 16.512 13.7107 16.512 14.3068C16.512 14.9029 16.9943 15.3852 17.5904 15.3852C18.1865 15.3852 18.6688 14.9029 18.6688 14.3068C18.6688 13.7107 18.1865 13.2284 17.5904 13.2284Z" fill="white"/>
</svg>
