<svg width="313" height="286" viewBox="0 0 313 286" fill="none" xmlns="http://www.w3.org/2000/svg">
<path fill-rule="evenodd" clip-rule="evenodd" d="M305.33 124.981H310.22C311.4 124.981 312.36 124.021 312.36 122.841V117.951C312.36 116.771 311.4 115.811 310.22 115.811H305.33C304.15 115.811 303.19 116.771 303.19 117.951V122.841C303.19 124.021 304.15 124.981 305.33 124.981Z" fill="white"/>
<path d="M291.86 94.25H240.35C238.51 94.25 237 92.74 237 90.9V3.35001C237 1.51001 238.51 0 240.35 0H291.86C293.7 0 295.21 1.51001 295.21 3.35001V90.9C295.21 92.74 293.7 94.25 291.86 94.25Z" fill="url(#paint0_linear)"/>
<path d="M289.22 87.74H243.84C243.55 87.74 243.31 87.5 243.31 87.21V79.88C243.31 79.59 243.55 79.35 243.84 79.35H289.22C289.51 79.35 289.75 79.59 289.75 79.88V87.21C289.75 87.5 289.51 87.74 289.22 87.74Z" fill="#43E8E1"/>
<path d="M287.64 35.5845V34.1045L244.4 34.1045V35.5845L287.64 35.5845Z" fill="white"/>
<path d="M287.645 40.4392V38.9592L244.405 38.9592V40.4392L287.645 40.4392Z" fill="white"/>
<path d="M270.249 45.069V43.589L244.399 43.589V45.069L270.249 45.069Z" fill="white"/>
<path d="M263.59 53.04H248.6V57.48H263.59V53.04Z" fill="white"/>
<path d="M247.49 53.04H242.92V57.48H247.49V53.04Z" fill="white"/>
<path d="M263.59 61.92H248.6V66.36H263.59V61.92Z" fill="white"/>
<path d="M247.49 61.92H242.92V66.36H247.49V61.92Z" fill="white"/>
<path d="M288.75 61.92H273.76V66.36H288.75V61.92Z" fill="white"/>
<path d="M272.66 61.92H268.09V66.36H272.66V61.92Z" fill="white"/>
<path d="M288.75 53.04H273.76V57.48H288.75V53.04Z" fill="white"/>
<path d="M272.66 53.04H268.09V57.48H272.66V53.04Z" fill="white"/>
<path d="M273.059 20.4478H260.179C260.019 20.4478 259.899 20.5878 259.929 20.7478C260.499 23.9278 263.269 26.3478 266.619 26.3478C269.969 26.3478 272.739 23.9278 273.309 20.7478C273.329 20.5878 273.209 20.4478 273.059 20.4478Z" fill="white"/>
<path d="M269.982 11.9173H263.252C262.882 11.9173 262.592 11.6173 262.592 11.2573C262.592 10.8973 262.892 10.5973 263.252 10.5973H269.982C270.352 10.5973 270.642 10.8973 270.642 11.2573C270.642 11.6173 270.352 11.9173 269.982 11.9173ZM267.902 15.7074C267.462 15.7074 267.112 15.3573 267.112 14.9173C267.112 14.4873 267.462 14.1274 267.902 14.1274C268.332 14.1274 268.692 14.4773 268.692 14.9173C268.692 15.3573 268.342 15.7074 267.902 15.7074ZM265.332 15.7074C264.892 15.7074 264.542 15.3573 264.542 14.9173C264.542 14.4873 264.892 14.1274 265.332 14.1274C265.772 14.1274 266.122 14.4773 266.122 14.9173C266.122 15.3573 265.762 15.7074 265.332 15.7074ZM271.842 14.7573C273.072 13.9773 273.842 12.5374 273.652 10.9374C273.452 9.19735 272.062 7.75735 270.322 7.49735C269.512 7.37735 268.732 7.49735 268.062 7.80735C267.142 8.22735 266.092 8.22735 265.172 7.80735C264.502 7.49735 263.732 7.37735 262.922 7.49735C261.262 7.73735 259.952 8.97735 259.632 10.6274C259.292 12.3574 260.082 13.9274 261.392 14.7674C261.532 14.8574 261.552 15.0174 261.452 15.1474C260.552 16.1974 259.972 17.5274 259.842 18.9974C259.832 19.1474 259.942 19.2774 260.092 19.2774H273.122C273.272 19.2774 273.382 19.1474 273.372 18.9974C273.252 17.5374 272.672 16.1974 271.772 15.1474C271.672 15.0074 271.702 14.8373 271.842 14.7573Z" fill="white"/>
<path d="M257.593 11.8957C256.333 12.4057 255.443 13.6357 255.443 15.0757V15.6457C255.443 17.0857 256.333 18.3157 257.593 18.8257C257.763 18.8957 257.943 18.7757 257.943 18.5957V12.1357C257.943 11.9457 257.763 11.8257 257.593 11.8957Z" fill="white"/>
<path d="M275.635 11.8946C275.465 11.8246 275.285 11.9446 275.285 12.1246V18.5846C275.285 18.7646 275.465 18.8846 275.635 18.8146C276.895 18.2946 277.785 17.0746 277.785 15.6346V15.0746C277.785 13.6346 276.895 12.4046 275.635 11.8946Z" fill="white"/>
<path d="M153.82 277.02C222.497 277.02 278.17 221.347 278.17 152.67C278.17 83.9937 222.497 28.3203 153.82 28.3203C85.1434 28.3203 29.47 83.9937 29.47 152.67C29.47 221.347 85.1434 277.02 153.82 277.02Z" fill="url(#paint1_linear)"/>
<path d="M154.82 253.869C210.65 253.869 255.91 208.61 255.91 152.779C255.91 96.949 210.65 51.6895 154.82 51.6895C98.9895 51.6895 53.73 96.949 53.73 152.779C53.73 208.61 98.9895 253.869 154.82 253.869Z" fill="url(#paint2_linear)"/>
<path d="M130 96.9998C130 96.9998 117.09 98.6898 114.59 110.33C112.09 121.97 113 119.22 105.91 125.14C98.8199 131.07 107.79 137.77 102.16 143.69C99.2899 146.72 97.9299 149.19 97.6599 152.04C97.1799 157.06 100.6 161.54 105.38 162.92C108.64 163.86 111.31 167 113.25 171.26C117.1 179.73 130.88 176.05 130.88 176.05C130.88 176.05 143.89 183.75 151.86 178.03C159.83 172.32 147.82 93.5898 147.82 93.5898L130 96.9998Z" fill="#162A46"/>
<path d="M173.06 97.2596C173.06 97.2596 185.97 98.9496 188.47 110.59C190.97 122.23 190.06 119.48 197.15 125.4C204.24 131.33 195.27 138.03 200.9 143.95C203.77 146.98 205.13 149.45 205.4 152.3C205.88 157.32 202.46 161.8 197.68 163.18C194.42 164.12 191.75 167.26 189.81 171.52C185.96 179.99 172.18 176.31 172.18 176.31C172.18 176.31 159.17 184.01 151.2 178.29C143.23 172.58 155.24 93.8496 155.24 93.8496L173.06 97.2596Z" fill="#162A46"/>
<path d="M173.88 195.38C166.76 191.43 168.7 172.35 168.7 172.35L158.03 173.05V172.35L156.89 172.7L155.75 172.35V173.05L145.08 172.35C145.08 172.35 147.02 191.43 139.9 195.38C133.96 198.67 103.68 200.6 96.4299 226.73C107.6 235.83 120.9 242.34 135.44 245.38H155.74H158.02H172.87C189.3 241.95 204.14 234.08 216.12 223.07C207.2 200.4 179.53 198.51 173.88 195.38Z" fill="url(#paint3_linear)"/>
<path opacity="0.3" d="M142.99 191.92C151.88 190.67 160.76 189.37 169.63 188.04C168.38 181.64 169.18 174.32 169.18 174.32L158.05 175V174.32L156.86 174.66L155.67 174.32V175L144.54 174.32C144.55 174.31 145.72 185.09 142.99 191.92Z" fill="url(#paint4_linear)"/>
<path d="M155.079 250C179.207 250 201.235 240.094 218 223.801C210.577 206.984 194.324 201.204 183.717 198C179.789 209.288 169.322 217.361 157.027 217.361C144.732 217.361 134.266 209.288 130.338 198C119.188 201.361 101.82 207.581 95 226.44C111.353 241.162 132.277 250 155.079 250Z" fill="#3C3189"/>
<path d="M173.21 105.75C173.21 105.75 167.94 93.6201 148.95 93.6201C129.96 93.6201 124.08 112.24 124.08 112.24L151.71 127.29L173.21 105.75Z" fill="#162A46"/>
<path d="M131.54 148.87C133.32 152.84 134.83 158.72 129.4 160.66C125.61 162.01 121.14 156.96 119.37 153C117.59 149.03 118.68 145.58 122.44 144.17C126.21 142.74 129.77 144.9 131.54 148.87Z" fill="url(#paint5_linear)"/>
<path d="M176.16 146.9C174.38 150.87 174.54 157.27 178.3 158.69C182.06 160.11 186.56 154.99 188.33 151.03C190.11 147.06 189.02 143.61 185.26 142.2C181.5 140.78 177.94 142.93 176.16 146.9Z" fill="url(#paint6_linear)"/>
<path d="M189.24 133.58C189.24 150.4 175.2 164.04 157.88 164.04C140.56 164.04 124.68 149.72 124.68 132.9C124.68 116.08 140.56 103.13 157.88 103.13C175.2 103.12 189.24 116.76 189.24 133.58Z" fill="#162A46"/>
<path d="M158.27 106.68C143.6 106.68 130.65 118.03 130.65 132.02L131.49 148.82C131.49 148.82 131.79 172.63 154.4 179.88C156.9 180.68 159.64 180.68 162.14 179.88C184.74 172.64 185.05 148.82 185.05 148.82L185.89 132.02C185.89 118.03 172.94 106.68 158.27 106.68Z" fill="url(#paint7_linear)"/>
<path d="M173.99 105.75C173.99 105.75 172.7 119.03 157.73 121.13C142.47 123.28 145.77 132.19 127.24 130.05C127.24 130.05 120.54 120.35 130.47 110.33C137.04 103.7 149.89 98.1696 159.09 99.0996C162.19 99.4196 169.54 104.85 173.99 105.75Z" fill="#162A46"/>
<path d="M172.04 106.68C172.04 106.68 162.54 116.24 188.88 133.57C188.88 133.57 190.03 128.12 187.18 122.55C184.33 116.98 172.04 106.68 172.04 106.68Z" fill="#162A46"/>
<path d="M152.3 161.27H168.52C168.52 161.27 167.97 166.49 160.41 166.49C153.71 166.48 152.3 161.27 152.3 161.27Z" fill="white"/>
<path d="M158.16 154.2L165.45 152.87L161.28 132.76" fill="#CA927B"/>
<path d="M158.16 154.2C158.7 153.69 159.26 153.34 159.83 153.04C160.41 152.75 160.99 152.5 161.58 152.33C162.77 151.98 163.99 151.79 165.26 151.85L164.42 153.09C163.81 149.72 163.25 146.34 162.71 142.96C162.19 139.57 161.67 136.18 161.27 132.77C162.26 136.06 163.13 139.38 164.01 142.69C164.86 146.01 165.69 149.33 166.47 152.67L166.66 153.47L165.63 153.91C164.47 154.41 163.26 154.67 162.02 154.76C161.4 154.81 160.77 154.78 160.13 154.71C159.49 154.61 158.84 154.48 158.16 154.2Z" fill="#8E625A"/>
<path d="M178.21 136.64C177.72 137.95 176.84 139.07 175.74 139.97C174.65 140.87 173.23 141.54 171.66 141.63C170.11 141.73 168.47 141.18 167.41 140.16C166.79 139.74 166.44 139.08 166 138.54C165.66 137.92 165.37 137.28 165.17 136.63C165.79 136.99 166.29 137.4 166.82 137.76L167.62 138.24C167.75 138.31 167.87 138.41 168 138.48L168.41 138.65C169.45 139.19 170.49 139.37 171.54 139.32C172.59 139.27 173.68 138.93 174.79 138.45C175.89 137.94 177 137.32 178.21 136.64Z" fill="#352C38"/>
<path d="M155.17 136.72C154.45 138.31 153.24 139.61 151.81 140.64C150.37 141.65 148.59 142.36 146.69 142.44C145.74 142.51 144.79 142.32 143.88 142.09C143.44 141.91 143 141.74 142.58 141.54C142.15 141.36 141.8 141.04 141.42 140.79C140.64 140.3 140.11 139.56 139.54 138.9C139.05 138.18 138.65 137.39 138.33 136.61C139.13 137.01 139.77 137.5 140.47 137.89C141.2 138.22 141.81 138.68 142.53 138.89C143.87 139.49 145.23 139.71 146.59 139.65C147.95 139.6 149.35 139.25 150.78 138.72C152.19 138.17 153.63 137.49 155.17 136.72Z" fill="#352C38"/>
<path d="M79.7501 108.51H28.2401C26.4001 108.51 24.8901 107 24.8901 105.16V17.6098C24.8901 15.7698 26.4001 14.2598 28.2401 14.2598H79.7501C81.5901 14.2598 83.1001 15.7698 83.1001 17.6098V105.16C83.1001 107 81.5901 108.51 79.7501 108.51Z" fill="url(#paint8_linear)"/>
<path d="M77.1102 102H31.7302C31.4402 102 31.2002 101.76 31.2002 101.47V94.1397C31.2002 93.8497 31.4402 93.6097 31.7302 93.6097H77.1102C77.4002 93.6097 77.6402 93.8497 77.6402 94.1397V101.47C77.6402 101.76 77.4002 102 77.1102 102Z" fill="#43E8E1"/>
<path d="M75.53 49.8442V48.3643L32.29 48.3643V49.8442L75.53 49.8442Z" fill="white"/>
<path d="M75.5349 54.699V53.219L32.2949 53.219V54.699L75.5349 54.699Z" fill="white"/>
<path d="M58.1389 59.3288V57.8488L32.2889 57.8488V59.3288L58.1389 59.3288Z" fill="white"/>
<path d="M51.4803 67.2998H36.4902V71.7398H51.4803V67.2998Z" fill="white"/>
<path d="M35.3801 67.2998H30.8101V71.7398H35.3801V67.2998Z" fill="white"/>
<path d="M51.48 76.1798H36.49V80.6198H51.48V76.1798Z" fill="white"/>
<path d="M35.3801 76.1798H30.8101V80.6198H35.3801V76.1798Z" fill="white"/>
<path d="M76.6402 76.1798H61.6501V80.6198H76.6402V76.1798Z" fill="white"/>
<path d="M60.5502 76.1798H55.9802V80.6198H60.5502V76.1798Z" fill="white"/>
<path d="M76.6402 67.2998H61.6501V71.7398H76.6402V67.2998Z" fill="white"/>
<path d="M60.5502 67.2998H55.9802V71.7398H60.5502V67.2998Z" fill="white"/>
<path d="M60.949 34.7075H48.0691C47.9091 34.7075 47.7891 34.8475 47.8191 35.0075C48.3891 38.1875 51.1591 40.6075 54.5091 40.6075C57.8591 40.6075 60.629 38.1875 61.199 35.0075C61.219 34.8475 61.099 34.7075 60.949 34.7075Z" fill="white"/>
<path d="M57.8723 26.1771H51.1423C50.7723 26.1771 50.4823 25.8771 50.4823 25.5171C50.4823 25.1571 50.7823 24.8571 51.1423 24.8571H57.8723C58.2423 24.8571 58.5323 25.1571 58.5323 25.5171C58.5323 25.8771 58.2423 26.1771 57.8723 26.1771ZM55.7923 29.9671C55.3523 29.9671 55.0023 29.6171 55.0023 29.1771C55.0023 28.7471 55.3523 28.3871 55.7923 28.3871C56.2223 28.3871 56.5823 28.7371 56.5823 29.1771C56.5823 29.6171 56.2323 29.9671 55.7923 29.9671ZM53.2223 29.9671C52.7823 29.9671 52.4323 29.6171 52.4323 29.1771C52.4323 28.7471 52.7823 28.3871 53.2223 28.3871C53.6623 28.3871 54.0123 28.7371 54.0123 29.1771C54.0123 29.6171 53.6523 29.9671 53.2223 29.9671ZM59.7323 29.0171C60.9623 28.2371 61.7323 26.7971 61.5423 25.1971C61.3423 23.4571 59.9523 22.0171 58.2123 21.7571C57.4023 21.6371 56.6223 21.7571 55.9523 22.0671C55.0323 22.4871 53.9823 22.4871 53.0623 22.0671C52.3923 21.7571 51.6223 21.6371 50.8123 21.7571C49.1523 21.9971 47.8423 23.2371 47.5223 24.8871C47.1823 26.6171 47.9723 28.1871 49.2823 29.0271C49.4223 29.1171 49.4423 29.2771 49.3423 29.4071C48.4423 30.4571 47.8623 31.7871 47.7323 33.2571C47.7223 33.4071 47.8323 33.5371 47.9823 33.5371H61.0123C61.1623 33.5371 61.2723 33.4071 61.2623 33.2571C61.1423 31.7971 60.5623 30.4571 59.6623 29.4071C59.5623 29.2671 59.5923 29.0971 59.7323 29.0171Z" fill="white"/>
<path d="M45.4835 26.1554C44.2235 26.6654 43.3335 27.8954 43.3335 29.3354V29.9054C43.3335 31.3454 44.2235 32.5754 45.4835 33.0854C45.6535 33.1554 45.8335 33.0354 45.8335 32.8554V26.3954C45.8335 26.2054 45.6535 26.0854 45.4835 26.1554Z" fill="white"/>
<path d="M63.5251 26.1544C63.3551 26.0844 63.175 26.2044 63.175 26.3844V32.8444C63.175 33.0244 63.3551 33.1444 63.5251 33.0744C64.7851 32.5544 65.675 31.3344 65.675 29.8944V29.3344C65.675 27.8944 64.7851 26.6644 63.5251 26.1544Z" fill="white"/>
<path d="M82.3401 36.9C91.9775 36.9 99.7901 29.0874 99.7901 19.45C99.7901 9.81263 91.9775 2 82.3401 2C72.7027 2 64.8901 9.81263 64.8901 19.45C64.8901 29.0874 72.7027 36.9 82.3401 36.9Z" fill="#43E8E1"/>
<path d="M91.62 9.92969L95.83 14.1397L83.2 26.7597L78.99 30.9697L74.79 26.7597L68.47 20.4497L72.68 16.2397L78.99 22.5497L91.62 9.92969Z" fill="white"/>
<path d="M201.05 279.36C201.32 278.2 201.47 276.98 201.47 275.73C201.47 266.91 194.32 259.76 185.5 259.76C183.13 259.76 180.9 260.29 178.88 261.21C178.23 255.33 173.25 250.75 167.2 250.75C162.21 250.75 157.96 253.86 156.25 258.25C155.21 257.99 154.12 257.84 153 257.84C147.72 257.84 143.16 260.87 140.93 265.29C140.45 265.25 139.96 265.22 139.47 265.22C131.27 265.22 124.52 271.41 123.61 279.37H201.05V279.36Z" fill="url(#paint9_linear)"/>
<path d="M118.75 268.56C118.81 267.93 118.85 267.28 118.85 266.63C118.85 256.32 110.57 247.96 100.29 247.82C97.57 243.79 93.35 240.86 88.48 239.85C87.53 230.34 79.51 222.92 69.75 222.92C61.28 222.92 54.13 228.51 51.76 236.2C50.14 235.75 48.45 235.49 46.69 235.49C38.09 235.49 30.86 241.26 28.6 249.13C25.75 247.39 22.41 246.37 18.83 246.37C8.43002 246.37 0 254.8 0 265.2C0 266.35 0.120007 267.48 0.320007 268.57H118.75V268.56Z" fill="url(#paint10_linear)"/>
<path d="M177.91 285.39C178.02 284.72 178.1 284.04 178.1 283.35C178.1 276.69 172.7 271.29 166.04 271.29H158.04C158.17 270.41 158.26 269.51 158.26 268.59C158.26 259.39 151.36 251.81 142.46 250.7C139.42 239.56 129.24 231.37 117.14 231.37C104.7 231.37 94.2999 240.02 91.5899 251.63C89.6799 250.94 87.6199 250.54 85.4699 250.54C75.5099 250.54 67.4299 258.62 67.4299 268.58C67.4299 269.5 67.5199 270.4 67.6499 271.28H60.5099C53.8499 271.28 48.45 276.68 48.45 283.34C48.45 284.04 48.52 284.72 48.64 285.38H177.91V285.39Z" fill="url(#paint11_linear)"/>
<path d="M282.95 185.94L240.07 199.88C238.18 200.49 236.16 199.46 235.54 197.57L227.46 172.71C226.85 170.82 227.88 168.8 229.77 168.18L272.65 154.24C274.54 153.63 276.56 154.66 277.18 156.55L285.26 181.41C285.87 183.3 284.84 185.32 282.95 185.94Z" fill="white"/>
<path d="M278.018 159.233L228.3 175.393L230.396 181.84L280.114 165.681L278.018 159.233Z" fill="#424243"/>
<path d="M279.7 180.12C280.19 181.61 279.37 183.22 277.87 183.7C276.38 184.19 274.77 183.37 274.29 181.87C273.8 180.38 274.62 178.77 276.12 178.29C277.61 177.81 279.21 178.63 279.7 180.12Z" fill="#424243"/>
<path fill-rule="evenodd" clip-rule="evenodd" d="M220.52 124.981H225.41C226.59 124.981 227.55 124.021 227.55 122.841V117.951C227.55 116.771 226.59 115.811 225.41 115.811H220.52C219.34 115.811 218.38 116.771 218.38 117.951V122.841C218.38 124.021 219.34 124.981 220.52 124.981Z" fill="#43E8E1"/>
<path fill-rule="evenodd" clip-rule="evenodd" d="M237.48 124.981H242.37C243.55 124.981 244.51 124.021 244.51 122.841V117.951C244.51 116.771 243.55 115.811 242.37 115.811H237.48C236.3 115.811 235.34 116.771 235.34 117.951V122.841C235.34 124.021 236.3 124.981 237.48 124.981Z" fill="white"/>
<path fill-rule="evenodd" clip-rule="evenodd" d="M254.44 124.981H259.33C260.51 124.981 261.47 124.021 261.47 122.841V117.951C261.47 116.771 260.51 115.811 259.33 115.811H254.44C253.26 115.811 252.3 116.771 252.3 117.951V122.841C252.3 124.021 253.27 124.981 254.44 124.981Z" fill="#43E8E1"/>
<path fill-rule="evenodd" clip-rule="evenodd" d="M271.4 124.981H276.29C277.47 124.981 278.43 124.021 278.43 122.841V117.951C278.43 116.771 277.47 115.811 276.29 115.811H271.4C270.22 115.811 269.26 116.771 269.26 117.951V122.841C269.26 124.021 270.23 124.981 271.4 124.981Z" fill="white"/>
<path fill-rule="evenodd" clip-rule="evenodd" d="M288.36 124.981H293.25C294.43 124.981 295.39 124.021 295.39 122.841V117.951C295.39 116.771 294.43 115.811 293.25 115.811H288.36C287.18 115.811 286.22 116.771 286.22 117.951V122.841C286.23 124.021 287.19 124.981 288.36 124.981Z" fill="white"/>
<path fill-rule="evenodd" clip-rule="evenodd" d="M255.06 106.49H259.95C261.13 106.49 262.09 105.53 262.09 104.35V99.4603C262.09 98.2803 261.13 97.3203 259.95 97.3203H255.06C253.88 97.3203 252.92 98.2803 252.92 99.4603V104.35C252.92 105.53 253.88 106.49 255.06 106.49Z" fill="white"/>
<path fill-rule="evenodd" clip-rule="evenodd" d="M272.02 106.49H276.91C278.09 106.49 279.05 105.53 279.05 104.35V99.4603C279.05 98.2803 278.09 97.3203 276.91 97.3203H272.02C270.84 97.3203 269.88 98.2803 269.88 99.4603V104.35C269.88 105.53 270.84 106.49 272.02 106.49Z" fill="#43E8E1"/>
<path fill-rule="evenodd" clip-rule="evenodd" d="M288.98 106.49H293.87C295.05 106.49 296.01 105.53 296.01 104.35V99.4603C296.01 98.2803 295.05 97.3203 293.87 97.3203H288.98C287.8 97.3203 286.84 98.2803 286.84 99.4603V104.35C286.84 105.53 287.8 106.49 288.98 106.49Z" fill="white"/>
<path fill-rule="evenodd" clip-rule="evenodd" d="M271.4 144.85H276.29C277.47 144.85 278.43 143.89 278.43 142.71V137.82C278.43 136.64 277.47 135.68 276.29 135.68H271.4C270.22 135.68 269.26 136.64 269.26 137.82V142.71C269.26 143.89 270.23 144.85 271.4 144.85Z" fill="white"/>
<path fill-rule="evenodd" clip-rule="evenodd" d="M32.5199 176.94H37.4099C38.5899 176.94 39.5499 175.98 39.5499 174.8V169.91C39.5499 168.73 38.5899 167.77 37.4099 167.77H32.5199C31.3399 167.77 30.3799 168.73 30.3799 169.91V174.8C30.3799 175.98 31.3399 176.94 32.5199 176.94Z" fill="white"/>
<path fill-rule="evenodd" clip-rule="evenodd" d="M49.4801 176.94H54.3701C55.5501 176.94 56.5101 175.98 56.5101 174.8V169.91C56.5101 168.73 55.5501 167.77 54.3701 167.77H49.4801C48.3001 167.77 47.3401 168.73 47.3401 169.91V174.8C47.3401 175.98 48.3101 176.94 49.4801 176.94Z" fill="#43E8E1"/>
<path fill-rule="evenodd" clip-rule="evenodd" d="M66.44 176.94H71.33C72.51 176.94 73.47 175.98 73.47 174.8V169.91C73.47 168.73 72.51 167.77 71.33 167.77H66.44C65.26 167.77 64.3 168.73 64.3 169.91V174.8C64.3 175.98 65.27 176.94 66.44 176.94Z" fill="white"/>
<path fill-rule="evenodd" clip-rule="evenodd" d="M83.4 176.94H88.29C89.47 176.94 90.43 175.98 90.43 174.8V169.91C90.43 168.73 89.47 167.77 88.29 167.77H83.4C82.22 167.77 81.26 168.73 81.26 169.91V174.8C81.27 175.98 82.23 176.94 83.4 176.94Z" fill="#43E8E1"/>
<path fill-rule="evenodd" clip-rule="evenodd" d="M100.37 196.8H105.26C106.44 196.8 107.4 195.84 107.4 194.66V189.77C107.4 188.59 106.44 187.63 105.26 187.63H100.37C99.19 187.63 98.23 188.59 98.23 189.77V194.66C98.23 195.84 99.19 196.8 100.37 196.8Z" fill="white"/>
<path fill-rule="evenodd" clip-rule="evenodd" d="M288.36 144.85H293.25C294.43 144.85 295.39 143.89 295.39 142.71V137.82C295.39 136.64 294.43 135.68 293.25 135.68H288.36C287.18 135.68 286.22 136.64 286.22 137.82V142.71C286.23 143.89 287.19 144.85 288.36 144.85Z" fill="#43E8E1"/>
<defs>
<linearGradient id="paint0_linear" x1="221.052" y1="84.2671" x2="288.702" y2="99.2666" gradientUnits="userSpaceOnUse">
<stop stop-color="#26259E"/>
<stop offset="1" stop-color="#5F50CC"/>
</linearGradient>
<linearGradient id="paint1_linear" x1="19.6715" y1="135.358" x2="177.788" y2="309.646" gradientUnits="userSpaceOnUse">
<stop stop-color="#42B2F1"/>
<stop offset="1" stop-color="#2A54D3"/>
</linearGradient>
<linearGradient id="paint2_linear" x1="-1.66247" y1="232.455" x2="216.712" y2="310.851" gradientUnits="userSpaceOnUse">
<stop stop-color="#26259E"/>
<stop offset="1" stop-color="#5F50CC"/>
</linearGradient>
<linearGradient id="paint3_linear" x1="156.275" y1="172.35" x2="156.275" y2="245.38" gradientUnits="userSpaceOnUse">
<stop stop-color="#FFDBD0"/>
<stop offset="1" stop-color="#FF9979"/>
</linearGradient>
<linearGradient id="paint4_linear" x1="156.31" y1="174.32" x2="156.31" y2="191.92" gradientUnits="userSpaceOnUse">
<stop stop-color="#FFDBD0"/>
<stop offset="1" stop-color="#FF9979"/>
</linearGradient>
<linearGradient id="paint5_linear" x1="125.857" y1="143.728" x2="125.857" y2="160.883" gradientUnits="userSpaceOnUse">
<stop stop-color="#FFDBD0"/>
<stop offset="1" stop-color="#FF9979"/>
</linearGradient>
<linearGradient id="paint6_linear" x1="182.113" y1="141.762" x2="182.113" y2="158.932" gradientUnits="userSpaceOnUse">
<stop stop-color="#FFDBD0"/>
<stop offset="1" stop-color="#FF9979"/>
</linearGradient>
<linearGradient id="paint7_linear" x1="158.27" y1="106.68" x2="158.27" y2="180.48" gradientUnits="userSpaceOnUse">
<stop stop-color="#FFDBD0"/>
<stop offset="1" stop-color="#FF9979"/>
</linearGradient>
<linearGradient id="paint8_linear" x1="8.942" y1="98.5269" x2="76.5919" y2="113.526" gradientUnits="userSpaceOnUse">
<stop stop-color="#26259E"/>
<stop offset="1" stop-color="#5F50CC"/>
</linearGradient>
<linearGradient id="paint9_linear" x1="162.534" y1="279.364" x2="162.534" y2="250.757" gradientUnits="userSpaceOnUse">
<stop stop-color="#9DD3F8" stop-opacity="0"/>
<stop offset="1" stop-color="#91B8F3"/>
</linearGradient>
<linearGradient id="paint10_linear" x1="59.4219" y1="268.556" x2="59.4219" y2="222.908" gradientUnits="userSpaceOnUse">
<stop stop-color="#9DD3F8" stop-opacity="0"/>
<stop offset="1" stop-color="#91B8F3"/>
</linearGradient>
<linearGradient id="paint11_linear" x1="113.274" y1="285.394" x2="113.274" y2="231.376" gradientUnits="userSpaceOnUse">
<stop stop-color="white" stop-opacity="0"/>
<stop offset="0.4042" stop-color="white" stop-opacity="0.8"/>
<stop offset="0.7473" stop-color="white"/>
</linearGradient>
</defs>
</svg>
