<svg width="300" height="298" viewBox="0 0 300 298" fill="none" xmlns="http://www.w3.org/2000/svg">
<path d="M218.5 220.27C218.5 193.38 195.38 171.57 166.87 171.57C160.39 171.57 154.2 172.69 148.49 174.75C140.97 153.26 122.27 138.05 100.4 138.05C76.09 138.05 55.7 156.85 50.22 182.17C46.02 180.3 41.44 179.27 36.65 179.27C16.41 179.27 0 197.63 0 220.27H218.5Z" fill="url(#paint0_linear)"/>
<path d="M261.73 181.55C261.73 164.98 244.96 151.54 224.28 151.54C219.58 151.54 215.09 152.23 210.95 153.5C205.49 140.26 191.93 130.88 176.07 130.88C158.44 130.88 143.65 142.47 139.68 158.07C136.63 156.92 133.31 156.28 129.83 156.28C115.15 156.28 103.25 167.59 103.25 181.55H261.73Z" fill="url(#paint1_linear)"/>
<path fill-rule="evenodd" clip-rule="evenodd" d="M155.74 263.27H160.63C161.81 263.27 162.77 262.31 162.77 261.13V256.24C162.77 255.06 161.81 254.1 160.63 254.1H155.74C154.56 254.1 153.6 255.06 153.6 256.24V261.13C153.6 262.31 154.56 263.27 155.74 263.27Z" fill="#DF5C61"/>
<path fill-rule="evenodd" clip-rule="evenodd" d="M139.53 263.56H144.42C145.6 263.56 146.56 262.6 146.56 261.42V256.53C146.56 255.35 145.6 254.39 144.42 254.39H139.53C138.35 254.39 137.39 255.35 137.39 256.53V261.42C137.39 262.59 138.35 263.56 139.53 263.56Z" fill="#43E8E1"/>
<path fill-rule="evenodd" clip-rule="evenodd" d="M172.7 263.27H177.59C178.77 263.27 179.73 262.31 179.73 261.13V256.24C179.73 255.06 178.77 254.1 177.59 254.1H172.7C171.52 254.1 170.56 255.06 170.56 256.24V261.13C170.56 262.31 171.52 263.27 172.7 263.27Z" fill="white"/>
<path fill-rule="evenodd" clip-rule="evenodd" d="M189.66 263.27H194.55C195.73 263.27 196.69 262.31 196.69 261.13V256.24C196.69 255.06 195.73 254.1 194.55 254.1H189.66C188.48 254.1 187.52 255.06 187.52 256.24V261.13C187.52 262.31 188.49 263.27 189.66 263.27Z" fill="url(#paint2_linear)"/>
<path fill-rule="evenodd" clip-rule="evenodd" d="M259.17 268.68H264.06C265.24 268.68 266.2 267.72 266.2 266.54V261.65C266.2 260.47 265.24 259.51 264.06 259.51H259.17C257.99 259.51 257.03 260.47 257.03 261.65V266.54C257.03 267.71 257.99 268.68 259.17 268.68Z" fill="white"/>
<path fill-rule="evenodd" clip-rule="evenodd" d="M276.13 268.68H281.02C282.2 268.68 283.16 267.72 283.16 266.54V261.65C283.16 260.47 282.2 259.51 281.02 259.51H276.13C274.95 259.51 273.99 260.47 273.99 261.65V266.54C273.99 267.71 274.95 268.68 276.13 268.68Z" fill="#E7BE50"/>
<path fill-rule="evenodd" clip-rule="evenodd" d="M244.6 255.02H260.64C264.5 255.02 267.66 251.86 267.66 248V231.97C267.66 228.11 264.5 224.95 260.64 224.95H244.6C240.74 224.95 237.58 228.11 237.58 231.97V248.01C237.58 251.86 240.74 255.02 244.6 255.02Z" fill="url(#paint3_linear)"/>
<path fill-rule="evenodd" clip-rule="evenodd" d="M158.13 247.06H174.17C178.03 247.06 181.19 243.9 181.19 240.04V224C181.19 220.14 178.03 216.98 174.17 216.98H158.13C154.27 216.98 151.11 220.14 151.11 224V240.04C151.11 243.9 154.27 247.06 158.13 247.06Z" fill="url(#paint4_linear)"/>
<path fill-rule="evenodd" clip-rule="evenodd" d="M191.18 226.58H200.42C202.64 226.58 204.46 224.76 204.46 222.54V213.3C204.46 211.08 202.64 209.26 200.42 209.26H191.18C188.96 209.26 187.14 211.08 187.14 213.3V222.54C187.14 224.76 188.96 226.58 191.18 226.58Z" fill="url(#paint5_linear)"/>
<path fill-rule="evenodd" clip-rule="evenodd" d="M206.62 263.27H211.51C212.69 263.27 213.65 262.31 213.65 261.13V256.24C213.65 255.06 212.69 254.1 211.51 254.1H206.62C205.44 254.1 204.48 255.06 204.48 256.24V261.13C204.48 262.31 205.45 263.27 206.62 263.27Z" fill="white"/>
<path fill-rule="evenodd" clip-rule="evenodd" d="M223.58 263.27H228.47C229.65 263.27 230.61 262.31 230.61 261.13V256.24C230.61 255.06 229.65 254.1 228.47 254.1H223.58C222.4 254.1 221.44 255.06 221.44 256.24V261.13C221.45 262.31 222.41 263.27 223.58 263.27Z" fill="white"/>
<path fill-rule="evenodd" clip-rule="evenodd" d="M190.27 244.78H195.16C196.34 244.78 197.3 243.82 197.3 242.64V237.75C197.3 236.57 196.34 235.61 195.16 235.61H190.27C189.09 235.61 188.13 236.57 188.13 237.75V242.64C188.14 243.82 189.1 244.78 190.27 244.78Z" fill="white"/>
<path fill-rule="evenodd" clip-rule="evenodd" d="M207.24 244.78H212.13C213.31 244.78 214.27 243.82 214.27 242.64V237.75C214.27 236.57 213.31 235.61 212.13 235.61H207.24C206.06 235.61 205.1 236.57 205.1 237.75V242.64C205.1 243.82 206.06 244.78 207.24 244.78Z" fill="#43E8E1"/>
<path fill-rule="evenodd" clip-rule="evenodd" d="M224.2 244.78H229.09C230.27 244.78 231.23 243.82 231.23 242.64V237.75C231.23 236.57 230.27 235.61 229.09 235.61H224.2C223.02 235.61 222.06 236.57 222.06 237.75V242.64C222.06 243.82 223.02 244.78 224.2 244.78Z" fill="white"/>
<path fill-rule="evenodd" clip-rule="evenodd" d="M241.55 220.11H246.44C247.62 220.11 248.58 219.15 248.58 217.97V213.08C248.58 211.9 247.62 210.94 246.44 210.94H241.55C240.37 210.94 239.41 211.9 239.41 213.08V217.97C239.41 219.15 240.37 220.11 241.55 220.11Z" fill="white"/>
<path fill-rule="evenodd" clip-rule="evenodd" d="M206.62 283.14H211.51C212.69 283.14 213.65 282.18 213.65 281V276.11C213.65 274.93 212.69 273.97 211.51 273.97H206.62C205.44 273.97 204.48 274.93 204.48 276.11V281C204.48 282.17 205.45 283.14 206.62 283.14Z" fill="white"/>
<path fill-rule="evenodd" clip-rule="evenodd" d="M223.58 283.14H228.47C229.65 283.14 230.61 282.18 230.61 281V276.11C230.61 274.93 229.65 273.97 228.47 273.97H223.58C222.4 273.97 221.44 274.93 221.44 276.11V281C221.45 282.17 222.41 283.14 223.58 283.14Z" fill="#43E8E1"/>
<path fill-rule="evenodd" clip-rule="evenodd" d="M275.92 250.9H280.81C281.99 250.9 282.95 249.94 282.95 248.76V243.87C282.95 242.69 281.99 241.73 280.81 241.73H275.92C274.74 241.73 273.78 242.69 273.78 243.87V248.76C273.78 249.94 274.74 250.9 275.92 250.9Z" fill="#43E8E1"/>
<path fill-rule="evenodd" clip-rule="evenodd" d="M292.23 250.71H297.12C298.3 250.71 299.26 249.75 299.26 248.57V243.68C299.26 242.5 298.3 241.54 297.12 241.54H292.23C291.05 241.54 290.09 242.5 290.09 243.68V248.57C290.09 249.75 291.05 250.71 292.23 250.71Z" fill="white"/>
<path fill-rule="evenodd" clip-rule="evenodd" d="M241.22 268.96H246.11C247.29 268.96 248.25 268 248.25 266.82V261.93C248.25 260.75 247.29 259.79 246.11 259.79H241.22C240.04 259.79 239.08 260.75 239.08 261.93V266.82C239.08 268 240.04 268.96 241.22 268.96Z" fill="white"/>
<path fill-rule="evenodd" clip-rule="evenodd" d="M241.79 283.42H246.68C247.86 283.42 248.82 282.46 248.82 281.28V276.39C248.82 275.21 247.86 274.25 246.68 274.25H241.79C240.61 274.25 239.65 275.21 239.65 276.39V281.28C239.65 282.46 240.61 283.42 241.79 283.42Z" fill="#43E8E1"/>
<path d="M30.25 114.07H45.92V200.53H30.25V114.07Z" fill="url(#paint6_linear)"/>
<path d="M38.03 118.74C43.9726 118.74 48.79 113.923 48.79 107.98C48.79 102.037 43.9726 97.22 38.03 97.22C32.0874 97.22 27.27 102.037 27.27 107.98C27.27 113.923 32.0874 118.74 38.03 118.74Z" fill="url(#paint7_linear)"/>
<path d="M41.8988 110.768H34.1089C34.0089 110.768 33.9389 110.858 33.9589 110.948C34.2989 112.868 35.9788 114.328 37.9988 114.328C40.0188 114.328 41.6989 112.868 42.0389 110.948C42.0689 110.858 41.9988 110.768 41.8988 110.768Z" fill="white"/>
<path d="M40.0421 105.617H35.9721C35.7521 105.617 35.5721 105.437 35.5721 105.217C35.5721 104.997 35.7521 104.817 35.9721 104.817H40.0421C40.2621 104.817 40.4421 104.997 40.4421 105.217C40.4421 105.437 40.2621 105.617 40.0421 105.617ZM38.7921 107.907C38.5321 107.907 38.3121 107.697 38.3121 107.427C38.3121 107.167 38.5221 106.947 38.7921 106.947C39.0521 106.947 39.2721 107.157 39.2721 107.427C39.2621 107.697 39.0521 107.907 38.7921 107.907ZM37.2321 107.907C36.9721 107.907 36.7521 107.697 36.7521 107.427C36.7521 107.167 36.9621 106.947 37.2321 106.947C37.5021 106.947 37.7121 107.157 37.7121 107.427C37.7121 107.697 37.4921 107.907 37.2321 107.907ZM41.1721 107.327C41.9121 106.857 42.3821 105.987 42.2621 105.017C42.1421 103.967 41.3021 103.087 40.2521 102.937C39.7621 102.867 39.2921 102.937 38.8821 103.127C38.3221 103.387 37.6921 103.377 37.1321 103.127C36.7321 102.947 36.2621 102.867 35.7721 102.937C34.7721 103.087 33.9721 103.837 33.7821 104.827C33.5821 105.867 34.0521 106.827 34.8421 107.327C34.9221 107.377 34.9421 107.477 34.8821 107.557C34.3321 108.197 33.9821 108.997 33.9121 109.887C33.9021 109.977 33.9721 110.057 34.0621 110.057H41.9421C42.0321 110.057 42.1021 109.977 42.0921 109.887C42.0221 108.997 41.6721 108.197 41.1221 107.557C41.0721 107.487 41.0821 107.377 41.1721 107.327Z" fill="white"/>
<path d="M32.5533 105.606C31.7933 105.916 31.2533 106.656 31.2533 107.526V107.866C31.2533 108.736 31.7933 109.476 32.5533 109.786C32.6533 109.826 32.7633 109.756 32.7633 109.646V105.736C32.7633 105.636 32.6533 105.556 32.5533 105.606Z" fill="white"/>
<path d="M43.4649 105.605C43.3649 105.565 43.2549 105.635 43.2549 105.745V109.654C43.2549 109.764 43.3649 109.835 43.4649 109.795C44.2249 109.485 44.7649 108.744 44.7649 107.874V107.535C44.7649 106.655 44.2249 105.915 43.4649 105.605Z" fill="white"/>
<path d="M99.02 66.75H135.3V266.9H99.02V66.75Z" fill="url(#paint8_linear)"/>
<path d="M117.03 77.57C130.787 77.57 141.94 66.4174 141.94 52.66C141.94 38.9026 130.787 27.75 117.03 27.75C103.273 27.75 92.12 38.9026 92.12 52.66C92.12 66.4174 103.273 77.57 117.03 77.57Z" fill="url(#paint9_linear)"/>
<path d="M125.999 59.1077H107.979C107.759 59.1077 107.589 59.3077 107.629 59.5277C108.419 63.9777 112.309 67.3677 116.989 67.3677C121.669 67.3677 125.549 63.9877 126.349 59.5277C126.389 59.3177 126.219 59.1077 125.999 59.1077Z" fill="white"/>
<path d="M121.702 47.1773H112.282C111.772 47.1773 111.352 46.7673 111.352 46.2473C111.352 45.7373 111.762 45.3173 112.282 45.3173H121.702C122.212 45.3173 122.632 45.7373 122.632 46.2473C122.622 46.7573 122.212 47.1773 121.702 47.1773ZM118.792 52.4873C118.182 52.4873 117.692 51.9973 117.692 51.3873C117.692 50.7773 118.182 50.2873 118.792 50.2873C119.402 50.2873 119.892 50.7773 119.892 51.3873C119.892 51.9873 119.402 52.4873 118.792 52.4873ZM115.182 52.4873C114.572 52.4873 114.082 51.9973 114.082 51.3873C114.082 50.7773 114.572 50.2873 115.182 50.2873C115.792 50.2873 116.282 50.7773 116.282 51.3873C116.292 51.9873 115.792 52.4873 115.182 52.4873ZM124.302 51.1473C126.022 50.0473 127.092 48.0373 126.832 45.8073C126.542 43.3673 124.602 41.3473 122.172 40.9873C121.032 40.8173 119.952 40.9973 119.012 41.4273C117.722 42.0173 116.262 42.0173 114.962 41.4273C114.022 40.9973 112.952 40.8273 111.822 40.9873C109.492 41.3273 107.662 43.0573 107.222 45.3673C106.752 47.7773 107.852 49.9873 109.682 51.1573C109.872 51.2773 109.912 51.5173 109.762 51.6873C108.502 53.1573 107.682 55.0273 107.512 57.0773C107.492 57.2873 107.652 57.4673 107.862 57.4673H126.102C126.312 57.4673 126.472 57.2873 126.452 57.0773C126.282 55.0273 125.472 53.1673 124.202 51.6873C124.072 51.4973 124.112 51.2673 124.302 51.1473Z" fill="white"/>
<path d="M104.363 47.1455C102.603 47.8655 101.353 49.5855 101.353 51.5955V52.3855C101.353 54.4055 102.603 56.1155 104.363 56.8355C104.593 56.9355 104.853 56.7655 104.853 56.5055V47.4555C104.853 47.2155 104.593 47.0455 104.363 47.1455Z" fill="white"/>
<path d="M129.615 47.1445C129.385 47.0445 129.125 47.2145 129.125 47.4745V56.5245C129.125 56.7745 129.385 56.9445 129.615 56.8545C131.375 56.1345 132.625 54.4245 132.625 52.4045V51.6145C132.625 49.5845 131.375 47.8645 129.615 47.1445Z" fill="white"/>
<path d="M63.5599 13.45H76.0799V220.9H63.5599V13.45Z" fill="url(#paint10_linear)"/>
<path d="M69.78 17.18C74.5241 17.18 78.37 13.3341 78.37 8.59C78.37 3.84587 74.5241 0 69.78 0C65.0358 0 61.1899 3.84587 61.1899 8.59C61.1899 13.3341 65.0358 17.18 69.78 17.18Z" fill="url(#paint11_linear)"/>
<path d="M72.8687 10.8076H66.6487C66.5687 10.8076 66.5187 10.8776 66.5287 10.9476C66.7987 12.4876 68.1387 13.6476 69.7587 13.6476C71.3787 13.6476 72.7088 12.4776 72.9888 10.9476C72.9988 10.8776 72.9487 10.8076 72.8687 10.8076Z" fill="white"/>
<path d="M71.382 6.69731H68.132C67.952 6.69731 67.812 6.5573 67.812 6.3773C67.812 6.1973 67.952 6.05729 68.132 6.05729H71.382C71.562 6.05729 71.702 6.1973 71.702 6.3773C71.702 6.5473 71.562 6.69731 71.382 6.69731ZM70.382 8.5273C70.172 8.5273 70.002 8.35729 70.002 8.14729C70.002 7.93729 70.172 7.76729 70.382 7.76729C70.592 7.76729 70.762 7.93729 70.762 8.14729C70.762 8.35729 70.592 8.5273 70.382 8.5273ZM69.142 8.5273C68.932 8.5273 68.762 8.35729 68.762 8.14729C68.762 7.93729 68.932 7.76729 69.142 7.76729C69.352 7.76729 69.522 7.93729 69.522 8.14729C69.522 8.35729 69.352 8.5273 69.142 8.5273ZM72.282 8.0673C72.872 7.6873 73.242 6.99731 73.152 6.22731C73.052 5.38731 72.382 4.6873 71.542 4.5673C71.152 4.5073 70.772 4.5673 70.452 4.7173C70.002 4.9173 69.502 4.9173 69.052 4.7173C68.732 4.5673 68.362 4.5073 67.972 4.5673C67.172 4.6873 66.542 5.28728 66.382 6.07728C66.222 6.90728 66.602 7.66728 67.232 8.07728C67.302 8.11728 67.312 8.19731 67.262 8.25731C66.822 8.76731 66.542 9.40729 66.482 10.1173C66.472 10.1873 66.532 10.2473 66.602 10.2473H72.892C72.962 10.2473 73.022 10.1873 73.012 10.1173C72.952 9.40729 72.672 8.76731 72.242 8.25731C72.202 8.18731 72.222 8.1073 72.282 8.0673Z" fill="white"/>
<path d="M65.4033 6.68562C64.7933 6.93562 64.3633 7.52563 64.3633 8.22563V8.49565C64.3633 9.19565 64.7933 9.78563 65.4033 10.0356C65.4833 10.0656 65.5733 10.0056 65.5733 9.92564V6.80565C65.5733 6.70565 65.4833 6.64562 65.4033 6.68562Z" fill="white"/>
<path d="M74.1148 6.68462C74.0348 6.65462 73.9448 6.71463 73.9448 6.79463V9.91463C73.9448 10.0046 74.0348 10.0646 74.1148 10.0246C74.7248 9.77464 75.1548 9.18464 75.1548 8.48464V8.21462C75.1548 7.52462 74.7248 6.93462 74.1148 6.68462Z" fill="white"/>
<path d="M149.66 102.7H169.2V210.49H149.66V102.7Z" fill="url(#paint12_linear)"/>
<path d="M159.36 108.53C166.772 108.53 172.78 102.522 172.78 95.11C172.78 87.6983 166.772 81.6899 159.36 81.6899C151.948 81.6899 145.94 87.6983 145.94 95.11C145.94 102.522 151.948 108.53 159.36 108.53Z" fill="url(#paint13_linear)"/>
<path d="M164.189 98.5876H154.479C154.359 98.5876 154.269 98.6976 154.289 98.8176C154.719 101.218 156.809 103.038 159.329 103.038C161.849 103.038 163.939 101.218 164.369 98.8176C164.399 98.6876 164.309 98.5876 164.189 98.5876Z" fill="white"/>
<path d="M161.872 92.1572H156.802C156.522 92.1572 156.302 91.9372 156.302 91.6572C156.302 91.3872 156.522 91.1572 156.802 91.1572H161.872C162.152 91.1572 162.372 91.3772 162.372 91.6572C162.372 91.9272 162.152 92.1572 161.872 92.1572ZM160.312 95.0172C159.982 95.0172 159.722 94.7472 159.722 94.4272C159.722 94.0972 159.992 93.8372 160.312 93.8372C160.642 93.8372 160.902 94.1072 160.902 94.4272C160.902 94.7472 160.632 95.0172 160.312 95.0172ZM158.362 95.0172C158.032 95.0172 157.772 94.7472 157.772 94.4272C157.772 94.0972 158.042 93.8372 158.362 93.8372C158.692 93.8372 158.952 94.1072 158.952 94.4272C158.962 94.7472 158.692 95.0172 158.362 95.0172ZM163.272 94.2972C164.192 93.7072 164.772 92.6272 164.632 91.4172C164.482 90.1072 163.432 89.0172 162.122 88.8172C161.512 88.7272 160.922 88.8172 160.422 89.0572C159.732 89.3772 158.942 89.3772 158.242 89.0572C157.742 88.8272 157.162 88.7372 156.552 88.8172C155.302 88.9972 154.312 89.9372 154.072 91.1772C153.822 92.4772 154.412 93.6672 155.402 94.2972C155.502 94.3672 155.522 94.4872 155.442 94.5772C154.762 95.3672 154.322 96.3772 154.232 97.4772C154.222 97.5872 154.312 97.6872 154.422 97.6872H164.242C164.352 97.6872 164.442 97.5872 164.432 97.4772C164.342 96.3772 163.902 95.3672 163.222 94.5772C163.152 94.4872 163.172 94.3572 163.272 94.2972Z" fill="white"/>
<path d="M152.533 92.1355C151.583 92.5255 150.913 93.4455 150.913 94.5355V94.9655C150.913 96.0555 151.583 96.9755 152.533 97.3655C152.663 97.4155 152.793 97.3255 152.793 97.1855V92.3155C152.803 92.1755 152.663 92.0855 152.533 92.1355Z" fill="white"/>
<path d="M166.135 92.1346C166.005 92.0846 165.875 92.1746 165.875 92.3146V97.1845C165.875 97.3245 166.015 97.4146 166.135 97.3646C167.085 96.9746 167.755 96.0545 167.755 94.9645V94.5346C167.755 93.4546 167.085 92.5246 166.135 92.1346Z" fill="white"/>
<path d="M12.2 218C12.2 215.87 13.93 214.14 16.06 214.14H114.67C116.8 214.14 118.53 215.87 118.53 218L137.38 292.29H208.58C210.15 292.29 211.43 293.57 211.43 295.14C211.43 296.71 210.15 297.99 208.58 297.99H32.83C31.26 297.99 29.9799 296.71 29.9799 295.14C29.9799 295.15 12.2 218.6 12.2 218Z" fill="url(#paint14_linear)"/>
<path d="M113.49 218.17C113.13 216.55 111.51 215.12 110.08 214.15H114.66C116.79 214.15 118.52 215.88 118.52 218.01L137.37 292.3H208.57C210.14 292.3 211.42 293.58 211.42 295.15C211.42 296.72 210.14 298 208.57 298H133.59C129.47 281.64 114.07 220.78 113.49 218.17Z" fill="#321060"/>
<path d="M249.294 248.775H252.757C252.917 248.775 253.031 248.706 253.076 248.57L257.884 236.22C257.93 236.083 257.952 235.992 257.952 235.878V233.098C257.952 232.938 257.839 232.824 257.679 232.824H247.334C247.175 232.824 247.061 232.938 247.061 233.098L247.038 237.245C247.038 237.404 247.152 237.518 247.311 237.518H249.841C250 237.518 250.114 237.404 250.114 237.245V236.174C250.114 236.106 250.16 236.06 250.228 236.06H253.828C253.897 236.06 253.942 236.128 253.919 236.197L249.066 248.456C248.998 248.661 249.089 248.775 249.294 248.775Z" fill="white"/>
<path d="M161.28 228.79H155.31V241.59H161.28V228.79Z" fill="white"/>
<path d="M169.38 223.11H163.41V241.59H169.38V223.11Z" fill="white"/>
<path d="M177.06 237.15H171.09V241.73H177.06V237.15Z" fill="white"/>
<defs>
<linearGradient id="paint0_linear" x1="109.249" y1="220.266" x2="109.249" y2="138.045" gradientUnits="userSpaceOnUse">
<stop stop-color="#9DD3F8" stop-opacity="0"/>
<stop offset="1" stop-color="#91B8F3"/>
</linearGradient>
<linearGradient id="paint1_linear" x1="182.49" y1="181.551" x2="182.49" y2="130.882" gradientUnits="userSpaceOnUse">
<stop stop-color="#9DD3F8" stop-opacity="0"/>
<stop offset="0.4652" stop-color="#95C1F5" stop-opacity="0.3846"/>
<stop offset="1" stop-color="#91B8F3"/>
</linearGradient>
<linearGradient id="paint2_linear" x1="187.159" y1="258.047" x2="192.989" y2="264.473" gradientUnits="userSpaceOnUse">
<stop stop-color="#42B2F1"/>
<stop offset="1" stop-color="#2A54D3"/>
</linearGradient>
<linearGradient id="paint3_linear" x1="236.395" y1="237.892" x2="255.512" y2="258.971" gradientUnits="userSpaceOnUse">
<stop stop-color="#42B2F1"/>
<stop offset="1" stop-color="#2A54D3"/>
</linearGradient>
<linearGradient id="paint4_linear" x1="149.925" y1="229.926" x2="169.049" y2="251.006" gradientUnits="userSpaceOnUse">
<stop stop-color="#42B2F1"/>
<stop offset="1" stop-color="#2A54D3"/>
</linearGradient>
<linearGradient id="paint5_linear" x1="186.458" y1="216.714" x2="197.469" y2="228.852" gradientUnits="userSpaceOnUse">
<stop stop-color="#42B2F1"/>
<stop offset="1" stop-color="#2A54D3"/>
</linearGradient>
<linearGradient id="paint6_linear" x1="39.5276" y1="180.486" x2="22.936" y2="122.64" gradientUnits="userSpaceOnUse">
<stop stop-color="#42B2F1" stop-opacity="0"/>
<stop offset="1" stop-color="#2A54D3"/>
</linearGradient>
<linearGradient id="paint7_linear" x1="21.3741" y1="116.461" x2="44.6178" y2="124.805" gradientUnits="userSpaceOnUse">
<stop stop-color="#26259E"/>
<stop offset="1" stop-color="#5F50CC"/>
</linearGradient>
<linearGradient id="paint8_linear" x1="120.5" y1="220.5" x2="82.0957" y2="86.5874" gradientUnits="userSpaceOnUse">
<stop stop-color="#42B2F1" stop-opacity="0"/>
<stop offset="1" stop-color="#2A54D3"/>
</linearGradient>
<linearGradient id="paint9_linear" x1="78.4705" y1="72.2931" x2="132.281" y2="91.611" gradientUnits="userSpaceOnUse">
<stop stop-color="#26259E"/>
<stop offset="1" stop-color="#5F50CC"/>
</linearGradient>
<linearGradient id="paint10_linear" x1="70.9725" y1="172.808" x2="-3.30472" y2="86.5741" gradientUnits="userSpaceOnUse">
<stop stop-color="#42B2F1" stop-opacity="0"/>
<stop offset="1" stop-color="#2A54D3"/>
</linearGradient>
<linearGradient id="paint11_linear" x1="56.483" y1="15.3603" x2="75.0392" y2="22.0219" gradientUnits="userSpaceOnUse">
<stop stop-color="#26259E"/>
<stop offset="1" stop-color="#5F50CC"/>
</linearGradient>
<linearGradient id="paint12_linear" x1="161.229" y1="185.501" x2="140.548" y2="113.382" gradientUnits="userSpaceOnUse">
<stop stop-color="#42B2F1" stop-opacity="0"/>
<stop offset="1" stop-color="#2A54D3"/>
</linearGradient>
<linearGradient id="paint13_linear" x1="138.586" y1="105.687" x2="167.576" y2="116.094" gradientUnits="userSpaceOnUse">
<stop stop-color="#26259E"/>
<stop offset="1" stop-color="#5F50CC"/>
</linearGradient>
<linearGradient id="paint14_linear" x1="81.7189" y1="284.147" x2="93.5059" y2="248.622" gradientUnits="userSpaceOnUse">
<stop stop-color="#5144A3"/>
<stop offset="0.543707" stop-color="#6152BD"/>
<stop offset="1" stop-color="#6C5DCC"/>
</linearGradient>
</defs>
</svg>
