<svg width="363" height="276" viewBox="0 0 363 276" fill="none" xmlns="http://www.w3.org/2000/svg">
<g filter="url(#filter0_b)">
<path d="M312.21 242.061H66.4095C62.1425 242.061 58.6471 238.566 58.6471 234.299V83.5261C58.6471 79.259 62.1425 75.7637 66.4095 75.7637H312.21C316.477 75.7637 319.973 79.259 319.973 83.5261V234.299C319.973 238.566 316.477 242.061 312.21 242.061Z" fill="url(#paint0_linear)" fill-opacity="0.8"/>
</g>
<path d="M202.91 93.549C202.91 69.136 181.92 49.335 156.036 49.335C150.153 49.335 144.533 50.3519 139.349 52.2221C132.522 32.7117 115.544 18.9027 95.6889 18.9027C73.6183 18.9027 55.1064 35.9709 50.1312 58.9586C46.3181 57.2609 42.16 56.3257 37.8113 56.3257C19.4357 56.3257 4.53723 72.9945 4.53723 93.549H202.91Z" fill="url(#paint1_linear)"/>
<path d="M258.691 46.0025C258.691 30.9589 243.465 18.7569 224.69 18.7569C220.423 18.7569 216.347 19.3833 212.588 20.5364C207.631 8.51596 195.32 0 180.921 0C164.915 0 151.488 10.5224 147.883 24.6854C145.114 23.6413 142.1 23.0603 138.941 23.0603C125.613 23.0603 114.809 33.3285 114.809 46.0025H258.691Z" fill="url(#paint2_linear)"/>
<path d="M317.96 161.666C336.402 161.666 351.352 146.716 351.352 128.274C351.352 109.833 336.402 94.8824 317.96 94.8824C299.518 94.8824 284.568 109.833 284.568 128.274C284.568 146.716 299.518 161.666 317.96 161.666Z" fill="url(#paint3_linear)"/>
<path d="M341.746 128.884C341.746 135.139 339.322 140.822 335.364 145.062C331.042 149.683 324.887 152.579 318.051 152.579C310.915 152.579 304.514 149.42 300.174 144.436C296.552 140.277 294.364 134.839 294.364 128.893C294.364 115.81 304.968 105.197 318.051 105.197C331.142 105.197 341.746 115.801 341.746 128.884Z" fill="url(#paint4_linear)"/>
<path d="M316.307 109.091C315.735 109.408 315.2 109.835 314.71 110.298C313.62 111.324 312.64 112.55 311.26 113.122C310.27 113.53 309.108 113.585 308.254 114.238C307.392 114.901 307.029 116.018 306.838 117.089C306.648 118.16 306.557 119.277 306.039 120.24C305.576 121.102 304.814 121.747 304.223 122.527C303.016 124.107 303.488 126.005 304.923 127.294C305.694 127.984 306.657 128.411 307.537 128.937C308.472 129.5 309.09 130.054 309.353 131.089C309.589 132.024 310.079 133.168 310.905 133.731C311.777 134.321 312.957 134.53 313.983 134.339C315.082 134.139 316.09 133.613 317.143 133.268C318.16 132.941 319.049 132.923 320.075 133.159C320.965 133.368 321.782 133.822 322.69 133.976C323.925 134.176 325.214 133.767 326.185 132.986C327.892 131.606 328.074 129.228 329.853 127.975C330.843 127.285 332.141 126.931 332.767 125.905C333.421 124.843 333.076 123.444 332.495 122.337C331.914 121.229 331.097 120.23 330.77 119.023C330.534 118.16 330.57 117.253 330.48 116.363C330.389 115.473 330.116 114.547 329.435 113.966C328.646 113.285 327.502 113.249 326.503 112.94C325.178 112.532 324.079 111.633 322.999 110.761C321.927 109.89 320.801 109.009 319.476 108.637C318.314 108.319 317.252 108.564 316.307 109.091Z" fill="#162A46"/>
<path d="M334.211 143.637C330.162 147.967 324.397 150.673 317.996 150.673C311.314 150.673 305.313 147.713 301.246 143.038C301.663 142.057 302.571 141.367 303.207 140.732C303.815 140.123 306.021 139.106 308.046 138.099C308.191 138.026 308.373 137.944 308.572 137.854C309.09 137.617 309.771 137.327 310.479 137.018C310.651 136.946 310.815 136.873 310.987 136.8C311.114 136.746 311.251 136.691 311.378 136.628C312.594 136.101 313.711 135.593 314.047 135.339C314.228 135.193 314.365 134.422 314.455 133.405C314.682 130.917 314.682 126.932 314.682 126.932L322.999 122.964C322.999 122.964 322.472 127.549 322.363 130.963C322.327 132.188 322.345 133.26 322.463 133.922C322.708 135.311 323.344 136.256 325.041 137.073C325.168 137.136 325.35 137.227 325.568 137.327C325.704 137.391 325.849 137.463 326.004 137.536C326.149 137.608 326.303 137.681 326.467 137.754C326.703 137.863 326.948 137.981 327.184 138.08C327.384 138.171 327.593 138.262 327.81 138.362C330.198 139.488 333.421 141.113 334.211 143.637Z" fill="url(#paint5_linear)"/>
<path opacity="0.23" d="M322.99 122.973C322.99 122.973 322.463 127.558 322.354 130.971C321.501 131.807 320.384 132.742 319.294 133.186C317.796 133.795 315.663 133.604 314.446 133.413C314.673 130.926 314.673 126.94 314.673 126.94L322.99 122.973Z" fill="url(#paint6_linear)"/>
<path d="M311.823 125.107C311.823 125.107 311.296 123.463 310.47 123.581C309.453 123.736 309.789 126.432 310.987 127.285C312.131 128.093 312.086 126.959 312.086 126.959L311.823 125.107Z" fill="url(#paint7_linear)"/>
<path d="M323.298 124.635C323.344 124.562 324.233 121.975 325.886 122.565C327.538 123.155 325.622 127.095 324.724 127.54C323.825 127.985 322.663 127.422 322.563 126.786C322.472 126.151 323.298 124.635 323.298 124.635Z" fill="url(#paint8_linear)"/>
<path d="M310.896 118.687C310.896 118.687 311.205 129.727 313.175 131.316C315.645 133.304 321.01 130.544 321.945 129.809C322.999 128.983 324.006 120.957 324.006 120.957L321.564 116.626C321.555 116.626 312.449 116.935 310.896 118.687Z" fill="url(#paint9_linear)"/>
<path d="M311.187 122.109C311.886 121.901 312.313 121.256 312.422 120.502C313.529 120.856 314.764 119.649 315.036 118.469C315.036 118.469 315.754 119.576 317.088 119.368C318.414 119.159 318.777 117.879 318.777 117.879C318.777 117.879 318.795 118.923 320.057 119.486C321.319 120.048 322.372 119.413 322.372 119.413C322.372 119.413 321.573 120.72 322.236 121.755C322.89 122.79 323.407 122.863 323.407 122.863C323.407 122.863 322.708 123.88 323.443 124.47C324.034 124.951 324.869 122.536 324.869 122.536C324.869 122.536 325.813 121.165 325.477 120.43C325.141 119.694 324.124 118.968 324.124 118.968C324.124 118.968 324.551 117.761 324.215 116.862C323.879 115.963 322.281 116.108 322.281 116.108C322.281 116.108 321.827 114.411 320.611 114.574C319.394 114.737 318.722 115.8 318.722 115.8C318.722 115.8 317.578 113.693 316.317 114.147C315.055 114.601 314.519 116.154 314.519 116.154C314.519 116.154 313.166 114.973 312.068 115.682C310.969 116.39 311.033 118.187 311.033 118.187C311.033 118.187 309.952 118.278 309.498 118.941C309.044 119.604 309.771 121.565 309.861 121.873C310.025 123.344 310.824 124.606 311.223 124.479C311.723 124.325 311.187 122.109 311.187 122.109Z" fill="#162A46"/>
<path d="M301.064 143.21C301.4 143.6 301.745 143.972 302.108 144.344C302.571 144.817 303.061 145.271 303.57 145.706C304.496 146.496 305.485 147.213 306.539 147.84C307.383 148.348 308.255 148.802 309.162 149.202C311.904 150.4 314.928 151.063 318.105 151.063C321.283 151.063 324.306 150.4 327.048 149.202C327.956 148.802 328.836 148.348 329.672 147.84C330.716 147.204 331.705 146.496 332.631 145.706C333.14 145.28 333.63 144.826 334.093 144.344C334.265 144.172 334.429 143.999 334.592 143.827C334.411 143.246 334.102 142.71 333.712 142.211C333.321 141.721 332.84 141.267 332.304 140.849C331.197 139.987 329.88 139.288 328.682 138.716C328.246 138.507 327.819 138.307 327.438 138.135C327.03 137.953 326.612 137.753 326.24 137.572C326.049 137.908 325.813 138.298 325.523 138.716C325.023 139.415 324.36 140.177 323.516 140.849C322.835 141.385 322.036 141.866 321.11 142.211C320.157 142.565 319.077 142.765 317.833 142.747C316.943 142.728 316.153 142.529 315.454 142.211C314.71 141.875 314.065 141.394 313.511 140.849C312.848 140.195 312.313 139.442 311.886 138.716C311.487 138.035 311.187 137.372 310.969 136.818C309.798 137.327 308.609 137.835 307.982 138.153C307.601 138.343 307.22 138.534 306.838 138.716C305.15 139.551 303.561 140.341 303.052 140.849C302.644 141.258 302.126 141.693 301.691 142.211C301.445 142.511 301.218 142.837 301.064 143.21Z" fill="#DF5C61"/>
<path d="M284.357 94.3742C301.199 94.3742 314.852 80.7207 314.852 63.8783C314.852 47.0359 301.199 33.3824 284.357 33.3824C267.514 33.3824 253.861 47.0359 253.861 63.8783C253.861 80.7207 267.514 94.3742 284.357 94.3742Z" fill="url(#paint10_linear)"/>
<path d="M263.003 63.6775C263.003 68.9796 264.955 73.8277 268.187 77.5409C268.26 77.6226 268.332 77.7043 268.405 77.7861C272.273 82.0985 277.883 84.804 284.13 84.804C290.222 84.804 295.705 82.2256 299.564 78.1038C299.872 77.777 300.172 77.432 300.463 77.0779C303.459 73.4282 305.256 68.7617 305.256 63.6775C305.256 52.0112 295.796 42.551 284.13 42.551C272.463 42.551 263.003 52.0112 263.003 63.6775Z" fill="url(#paint11_linear)"/>
<path d="M292.246 55.3074C292.246 59.3747 288.951 62.6703 284.892 62.6703C280.834 62.6703 277.475 58.258 277.475 54.1998C277.475 50.1324 280.825 47.9535 284.892 47.9535C288.951 47.9444 292.246 51.24 292.246 55.3074Z" fill="#162A46"/>
<path d="M300.045 76.5419C299.763 76.8869 299.473 77.2228 299.164 77.5405C295.387 81.5806 290.004 84.1046 284.03 84.1046C277.911 84.1046 272.4 81.4445 268.614 77.2228C269.131 75.634 269.658 74.2086 269.912 73.9907C269.948 73.9544 270.03 73.909 270.148 73.8545C270.175 73.8454 270.212 73.8273 270.239 73.8091C270.466 73.7002 270.793 73.564 271.192 73.4006C271.301 73.3552 271.428 73.3098 271.546 73.2644C271.565 73.2553 271.592 73.2462 271.61 73.2372C272.136 73.0374 272.754 72.8105 273.407 72.5744C273.426 72.5653 273.453 72.5653 273.471 72.5562C273.625 72.5018 273.789 72.4473 273.943 72.3837C274.052 72.3474 274.152 72.3111 274.261 72.2748C274.452 72.2112 274.651 72.1386 274.842 72.066C275.105 71.9752 275.378 71.8753 275.641 71.7846C276.149 71.6121 276.64 71.4396 277.103 71.2761C277.656 71.0855 278.156 70.913 278.592 70.7677C278.592 70.7677 278.592 70.7677 278.601 70.7677C279.427 70.4863 279.962 70.3138 279.962 70.3138L280.18 68.2801L280.798 62.5786L289.559 60.8627C289.559 60.8627 289.586 63.4411 289.631 65.8651C289.668 67.7626 289.722 69.5512 289.786 69.9234C290.131 70.1141 290.639 70.3592 291.238 70.6406C291.602 70.804 291.992 70.9856 292.41 71.1672C292.918 71.3942 293.463 71.6302 294.007 71.8662C294.08 71.9026 294.162 71.9298 294.234 71.9661C294.389 72.0297 294.534 72.1023 294.688 72.1659C295.515 72.529 296.323 72.8831 297.022 73.1918C297.149 73.2553 297.276 73.3098 297.394 73.3552C297.539 73.4278 297.684 73.4914 297.821 73.5549C297.884 73.5913 297.948 73.6185 298.011 73.6457C298.229 73.7456 298.42 73.8454 298.583 73.9272C298.62 73.9453 298.656 73.9635 298.692 73.9907C298.937 74.1269 299.101 74.2267 299.164 74.2994C299.364 74.5354 299.709 75.516 300.045 76.5419Z" fill="url(#paint12_linear)"/>
<path opacity="0.4" d="M280.189 68.2807C281.17 68.4169 282.387 68.435 283.821 68.1899C286.29 67.7541 288.351 66.6919 289.641 65.8748C289.595 63.4507 289.568 60.8723 289.568 60.8723L280.807 62.5882L280.189 68.2807Z" fill="url(#paint13_linear)"/>
<path d="M300.045 76.5422C299.736 75.5707 299.409 74.6447 299.201 74.3541C299.191 74.336 299.173 74.3178 299.164 74.2997C299.155 74.2906 299.146 74.2815 299.137 74.2725C299.064 74.2089 298.919 74.109 298.692 73.991C298.656 73.9729 298.619 73.9547 298.583 73.9275C298.511 73.8911 298.438 73.8548 298.356 73.8094C298.32 73.7913 298.274 73.7731 298.229 73.7459C298.156 73.7096 298.084 73.6732 298.011 73.6369C297.948 73.6097 297.884 73.5734 297.821 73.5462C297.811 73.5371 297.793 73.5371 297.784 73.528C297.657 73.4735 297.53 73.41 297.394 73.3464C297.276 73.2919 297.149 73.2375 297.022 73.1739C296.531 72.956 295.987 72.7109 295.424 72.4658C295.188 72.3568 294.943 72.2569 294.697 72.148C294.552 72.0844 294.398 72.0209 294.243 71.9483C294.207 71.9301 294.162 71.912 294.125 71.8938C294.089 71.8757 294.053 71.8666 294.016 71.8484C293.898 71.794 293.78 71.7485 293.662 71.694C293.445 71.5942 293.227 71.5034 293.018 71.4126C292.818 71.3218 292.618 71.2401 292.428 71.1493C292.346 71.113 292.264 71.0767 292.183 71.0404C292.173 71.0404 292.164 71.0313 292.155 71.0313C291.838 70.8951 291.538 70.7589 291.266 70.6318L288.56 71.912L288.061 72.148C286.163 73.0468 283.975 73.0832 282.051 72.2479L278.61 70.759C278.61 70.759 278.61 70.759 278.601 70.759C278.582 70.768 278.555 70.7771 278.537 70.7771C278.41 70.8225 278.283 70.8588 278.147 70.9042C278.092 70.9223 278.038 70.9405 277.983 70.9587C277.883 70.995 277.784 71.0313 277.675 71.0676C277.647 71.0767 277.62 71.0858 277.593 71.0949C277.439 71.1493 277.275 71.2038 277.112 71.2583C276.649 71.4217 276.149 71.5942 275.65 71.7667C275.387 71.8575 275.114 71.9573 274.851 72.0481C274.688 72.1026 274.524 72.1662 274.361 72.2206C274.334 72.2297 274.297 72.2388 274.27 72.2569C274.161 72.2932 274.061 72.3387 273.952 72.3659C273.871 72.3932 273.78 72.4295 273.698 72.4567C273.625 72.4839 273.553 72.5111 273.48 72.5384C273.462 72.5475 273.444 72.5565 273.417 72.5565C273.417 72.5565 273.417 72.5565 273.407 72.5565C273.026 72.6927 272.663 72.8289 272.318 72.956C272.073 73.0468 271.837 73.1376 271.61 73.2193C271.592 73.2284 271.574 73.2375 271.546 73.2466C271.546 73.2466 271.546 73.2466 271.537 73.2466C271.41 73.2919 271.292 73.3374 271.174 73.3828C270.956 73.4735 270.766 73.5461 270.593 73.6188C270.448 73.6823 270.33 73.7368 270.221 73.7822C270.184 73.7913 270.157 73.8095 270.13 73.8276C270.021 73.8821 269.939 73.9365 269.894 73.9638C269.64 74.1817 269.113 75.607 268.596 77.1958C270.729 79.5745 273.398 81.4538 276.422 82.6431C278.773 83.5692 281.333 84.0776 284.012 84.0776C286.454 84.0776 288.796 83.6509 290.966 82.8701C294.107 81.7534 296.904 79.8923 299.137 77.5045C299.328 77.3048 299.509 77.096 299.691 76.8872C299.827 76.7964 299.936 76.6784 300.045 76.5422Z" fill="#FDFEFE"/>
<path d="M278.165 58.43C278.101 58.3029 277.593 57.7581 276.649 58.0214C275.704 58.2938 276.177 60.4182 276.985 61.3624C277.793 62.3066 278.846 62.1069 278.846 61.9707C278.846 61.8346 278.473 59.0746 278.165 58.43Z" fill="url(#paint14_linear)"/>
<path d="M277.402 54.2714C277.402 54.2714 277.693 64.5759 279.527 66.0467C281.833 67.8988 286.835 65.3204 287.707 64.6395C288.297 64.1764 288.869 61.3166 289.232 59.0832C289.513 57.3673 289.196 55.615 288.342 54.0989C287.725 53.0003 286.526 52.3648 285.264 52.4556C282.659 52.6644 278.392 53.1547 277.402 54.2714Z" fill="url(#paint15_linear)"/>
<path d="M288.978 59.8188C289.023 59.7553 289.849 57.3312 291.393 57.885C292.936 58.4389 291.157 61.5075 290.321 61.9524C289.604 62.3791 288.66 62.3155 288.615 62.0431C288.515 61.4439 288.978 59.8188 288.978 59.8188Z" fill="url(#paint16_linear)"/>
<path d="M284.883 52.1204C284.947 52.4382 283.866 51.7936 281.034 53.7274C280.271 54.2449 279.409 53.3642 278.773 53.2099C278.41 53.1191 280.298 51.948 281.252 51.7573C282.196 51.5485 284.82 51.7936 284.883 52.1204Z" fill="#162A46"/>
<path d="M135 96.2914H107.845C106.91 96.2914 106.148 95.5287 106.148 94.5936C106.148 93.6585 106.91 92.8959 107.845 92.8959H135C135.935 92.8959 136.698 93.6585 136.698 94.5936C136.698 95.5378 135.935 96.2914 135 96.2914Z" fill="#FDFEFE"/>
<path d="M123.915 103.891H107.836C106.901 103.891 106.139 103.128 106.139 102.193C106.139 101.258 106.901 100.495 107.836 100.495H123.915C124.85 100.495 125.613 101.258 125.613 102.193C125.613 103.128 124.85 103.891 123.915 103.891Z" fill="#FDFEFE"/>
<path d="M213.088 103.891H138.205C137.27 103.891 136.507 103.128 136.507 102.193C136.507 101.258 137.27 100.495 138.205 100.495H213.088C214.023 100.495 214.785 101.258 214.785 102.193C214.776 103.128 214.023 103.891 213.088 103.891Z" fill="#FDFEFE"/>
<path d="M224.064 103.891H261.659C262.595 103.891 263.357 103.128 263.357 102.193C263.357 101.258 262.595 100.495 261.659 100.495H224.064C223.129 100.495 222.366 101.258 222.366 102.193C222.366 103.128 223.129 103.891 224.064 103.891Z" fill="#FC6454"/>
<path d="M161.465 111.48H115.426C114.491 111.48 113.729 110.718 113.729 109.783C113.729 108.848 114.491 108.085 115.426 108.085H161.465C162.4 108.085 163.163 108.848 163.163 109.783C163.163 110.718 162.4 111.48 161.465 111.48Z" fill="#58D05B"/>
<path d="M180.041 111.48H250.293C251.228 111.48 251.99 110.718 251.99 109.783C251.99 108.848 251.228 108.085 250.293 108.085H180.041C179.105 108.085 178.343 108.848 178.343 109.783C178.343 110.718 179.105 111.48 180.041 111.48Z" fill="#FDFEFE"/>
<path d="M173.949 119.07H107.836C106.901 119.07 106.139 118.308 106.139 117.372C106.139 116.437 106.901 115.675 107.836 115.675H173.949C174.884 115.675 175.646 116.437 175.646 117.372C175.646 118.308 174.884 119.07 173.949 119.07Z" fill="#FC6454"/>
<path d="M231.472 115.675H182.047V119.061H231.472V115.675Z" fill="#78D5E4"/>
<path d="M161.465 126.66H115.426C114.491 126.66 113.729 125.897 113.729 124.962C113.729 124.027 114.491 123.265 115.426 123.265H161.465C162.4 123.265 163.163 124.027 163.163 124.962C163.163 125.897 162.4 126.66 161.465 126.66Z" fill="#FDFEFE"/>
<path d="M176.654 134.25H107.845C106.91 134.25 106.148 133.487 106.148 132.552C106.148 131.617 106.91 130.854 107.845 130.854H176.654C177.589 130.854 178.352 131.617 178.352 132.552C178.343 133.487 177.589 134.25 176.654 134.25Z" fill="#FDFEFE"/>
<path d="M153.875 141.839H107.836C106.901 141.839 106.139 141.077 106.139 140.142C106.139 139.207 106.901 138.444 107.836 138.444H153.875C154.81 138.444 155.573 139.207 155.573 140.142C155.573 141.077 154.81 141.839 153.875 141.839Z" fill="#FDFEFE"/>
<path d="M202.075 149.43H123.016C122.081 149.43 121.318 148.668 121.318 147.733C121.318 146.797 122.081 146.035 123.016 146.035H202.075C203.01 146.035 203.773 146.797 203.773 147.733C203.773 148.668 203.01 149.43 202.075 149.43Z" fill="#FC6454"/>
<path d="M237.373 149.43H214.104C213.169 149.43 212.407 148.668 212.407 147.733C212.407 146.797 213.169 146.035 214.104 146.035H237.373C238.309 146.035 239.071 146.797 239.071 147.733C239.071 148.668 238.309 149.43 237.373 149.43Z" fill="#FDFEFE"/>
<path d="M275.323 149.43H252.054C251.119 149.43 250.356 148.668 250.356 147.733C250.356 146.797 251.119 146.035 252.054 146.035H275.323C276.258 146.035 277.021 146.797 277.021 147.733C277.021 148.668 276.258 149.43 275.323 149.43Z" fill="#FDFEFE"/>
<path d="M160.857 157.02H130.615C129.68 157.02 128.917 156.257 128.917 155.322C128.917 154.387 129.68 153.625 130.615 153.625H160.857C161.792 153.625 162.555 154.387 162.555 155.322C162.555 156.257 161.792 157.02 160.857 157.02Z" fill="#FDFEFE"/>
<path d="M172.087 164.61H130.606C129.671 164.61 128.908 163.847 128.908 162.912C128.908 161.977 129.671 161.214 130.606 161.214H172.087C173.023 161.214 173.785 161.977 173.785 162.912C173.785 163.847 173.023 164.61 172.087 164.61Z" fill="#FC6454"/>
<path d="M237.373 164.61H191.335C190.399 164.61 189.637 163.847 189.637 162.912C189.637 161.977 190.399 161.214 191.335 161.214H237.373C238.309 161.214 239.071 161.977 239.071 162.912C239.071 163.847 238.309 164.61 237.373 164.61Z" fill="#FDFEFE"/>
<path d="M269.249 164.61H252.054C251.119 164.61 250.356 163.847 250.356 162.912C250.356 161.977 251.119 161.214 252.054 161.214H269.249C270.185 161.214 270.947 161.977 270.947 162.912C270.947 163.847 270.185 164.61 269.249 164.61Z" fill="#FC6454"/>
<path d="M134.819 172.199H107.845C106.91 172.199 106.148 171.437 106.148 170.502C106.148 169.567 106.91 168.804 107.845 168.804H134.819C135.754 168.804 136.516 169.567 136.516 170.502C136.507 171.437 135.754 172.199 134.819 172.199Z" fill="#FDFEFE"/>
<path d="M153.875 179.789H107.836C106.901 179.789 106.139 179.027 106.139 178.091C106.139 177.156 106.901 176.394 107.836 176.394H153.875C154.81 176.394 155.573 177.156 155.573 178.091C155.573 179.036 154.81 179.789 153.875 179.789Z" fill="#FDFEFE"/>
<path d="M216.882 187.38H130.615C129.68 187.38 128.917 186.617 128.917 185.682C128.917 184.747 129.68 183.984 130.615 183.984H216.882C217.818 183.984 218.58 184.747 218.58 185.682C218.571 186.626 217.818 187.38 216.882 187.38Z" fill="#FDFEFE"/>
<path d="M281.397 187.38H229.284C228.349 187.38 227.586 186.617 227.586 185.682C227.586 184.747 228.349 183.984 229.284 183.984H281.397C282.332 183.984 283.095 184.747 283.095 185.682C283.095 186.626 282.332 187.38 281.397 187.38Z" fill="#78D5E4"/>
<path d="M157.67 194.969H130.606C129.671 194.969 128.908 194.206 128.908 193.271C128.908 192.336 129.671 191.573 130.606 191.573H157.67C158.605 191.573 159.368 192.336 159.368 193.271C159.368 194.215 158.605 194.969 157.67 194.969Z" fill="#FDFEFE"/>
<path d="M195.629 194.969H168.565C167.63 194.969 166.867 194.206 166.867 193.271C166.867 192.336 167.63 191.573 168.565 191.573H195.629C196.564 191.573 197.327 192.336 197.327 193.271C197.318 194.215 196.564 194.969 195.629 194.969Z" fill="#58D05B"/>
<path d="M233.578 194.969H206.514C205.579 194.969 204.817 194.206 204.817 193.271C204.817 192.336 205.579 191.573 206.514 191.573H233.578C234.514 191.573 235.276 192.336 235.276 193.271C235.276 194.215 234.514 194.969 233.578 194.969Z" fill="#FDFEFE"/>
<path d="M153.875 202.56H107.836C106.901 202.56 106.139 201.797 106.139 200.862C106.139 199.927 106.901 199.164 107.836 199.164H153.875C154.81 199.164 155.573 199.927 155.573 200.862C155.573 201.806 154.81 202.56 153.875 202.56Z" fill="#FDFEFE"/>
<path d="M169.055 210.149H123.016C122.081 210.149 121.318 209.387 121.318 208.452C121.318 207.516 122.081 206.754 123.016 206.754H169.055C169.99 206.754 170.753 207.516 170.753 208.452C170.753 209.396 169.999 210.149 169.055 210.149Z" fill="#58D05B"/>
<path d="M227.841 210.149H181.802C180.867 210.149 180.104 209.387 180.104 208.452C180.104 207.516 180.867 206.754 181.802 206.754H227.841C228.776 206.754 229.538 207.516 229.538 208.452C229.538 209.396 228.776 210.149 227.841 210.149Z" fill="#58D05B"/>
<path d="M205.071 225.329H180.758C179.823 225.329 179.06 224.566 179.06 223.631C179.06 222.696 179.823 221.933 180.758 221.933H205.071C206.006 221.933 206.769 222.696 206.769 223.631C206.76 224.575 206.006 225.329 205.071 225.329Z" fill="#FDFEFE"/>
<path d="M192.942 217.739H123.016C122.081 217.739 121.318 216.976 121.318 216.041C121.318 215.106 122.081 214.344 123.016 214.344H192.942C193.877 214.344 194.639 215.106 194.639 216.041C194.639 216.985 193.886 217.739 192.942 217.739Z" fill="#FDFEFE"/>
<path d="M87.0277 92.9041H83.6412V96.2904H87.0277V92.9041Z" fill="#7194BF"/>
<path d="M87.0277 100.494H83.6412V103.88H87.0277V100.494Z" fill="#7194BF"/>
<path d="M87.0277 108.083H83.6412V111.47H87.0277V108.083Z" fill="#7194BF"/>
<path d="M87.0277 115.673H83.6412V119.06H87.0277V115.673Z" fill="#7194BF"/>
<path d="M87.0277 123.264H83.6412V126.65H87.0277V123.264Z" fill="#7194BF"/>
<path d="M87.0277 130.864H83.6412V134.25H87.0277V130.864Z" fill="#7194BF"/>
<path d="M87.0277 138.453H83.6412V141.84H87.0277V138.453Z" fill="#7194BF"/>
<path d="M87.0277 146.044H83.6412V149.43H87.0277V146.044Z" fill="#7194BF"/>
<path d="M87.0277 153.632H83.6412V157.018H87.0277V153.632Z" fill="#7194BF"/>
<path d="M87.0277 161.222H83.6412V164.609H87.0277V161.222Z" fill="#7194BF"/>
<path d="M87.0277 168.812H83.6412V172.199H87.0277V168.812Z" fill="#7194BF"/>
<path d="M87.0277 176.402H83.6412V179.788H87.0277V176.402Z" fill="#7194BF"/>
<path d="M87.0277 183.992H83.6412V187.378H87.0277V183.992Z" fill="#7194BF"/>
<path d="M87.0277 191.581H83.6412V194.968H87.0277V191.581Z" fill="#7194BF"/>
<path d="M87.0277 199.172H83.6412V202.559H87.0277V199.172Z" fill="#7194BF"/>
<path d="M87.0277 206.763H83.6412V210.15H87.0277V206.763Z" fill="#7194BF"/>
<path d="M87.0277 214.353H83.6412V217.739H87.0277V214.353Z" fill="#7194BF"/>
<path d="M87.0277 221.943H83.6412V225.329H87.0277V221.943Z" fill="#7194BF"/>
<path d="M156.29 225.329H123.025C122.09 225.329 121.328 224.566 121.328 223.631C121.328 222.696 122.09 221.933 123.025 221.933H156.29C157.225 221.933 157.988 222.696 157.988 223.631C157.988 224.575 157.225 225.329 156.29 225.329Z" fill="#FDFEFE"/>
<path d="M46.4634 147.922C60.9291 147.922 72.6558 136.195 72.6558 121.73C72.6558 107.264 60.9291 95.5372 46.4634 95.5372C31.9977 95.5372 20.2709 107.264 20.2709 121.73C20.2709 136.195 31.9977 147.922 46.4634 147.922Z" fill="url(#paint17_linear)"/>
<path d="M67.7078 122.13C67.6896 127.014 66.0282 131.508 63.2592 135.094C63.1502 135.239 63.0413 135.376 62.9232 135.512C62.7598 135.712 62.5964 135.902 62.433 136.093C62.2696 136.283 62.088 136.474 61.9155 136.665C61.9064 136.674 61.8973 136.683 61.8882 136.692C61.6613 136.937 61.4252 137.173 61.1801 137.409C59.555 138.971 57.6757 140.287 55.6148 141.277C52.8003 142.63 49.6409 143.383 46.3089 143.374C42.977 143.365 39.8266 142.584 37.0213 141.213C34.8696 140.16 32.9267 138.762 31.2653 137.082C31.1018 136.919 30.9384 136.747 30.7841 136.583C30.6025 136.383 30.4209 136.184 30.2484 135.984C30.1123 135.82 29.9761 135.666 29.8399 135.503C29.7219 135.367 29.6129 135.221 29.504 135.085C29.4495 135.012 29.395 134.931 29.3315 134.858C26.6351 131.272 25.0372 126.805 25.0553 121.975C25.1007 110.2 34.688 100.685 46.4633 100.731C58.2476 100.767 67.7532 110.354 67.7078 122.13Z" fill="url(#paint18_linear)"/>
<path d="M62.1333 133.931C61.979 134.131 61.8247 134.322 61.6612 134.512C61.4978 134.703 61.3344 134.894 61.1619 135.075C61.1528 135.084 61.1438 135.093 61.1347 135.102C60.9168 135.338 60.6898 135.584 60.4538 135.811C58.9013 137.354 57.1037 138.643 55.1335 139.615C52.4462 140.949 49.423 141.685 46.2363 141.675C43.0496 141.666 40.0354 140.895 37.3572 139.551C35.3053 138.516 33.4442 137.136 31.8554 135.484C31.701 135.32 31.5467 135.157 31.3923 134.993C31.2198 134.803 31.0474 134.603 30.8839 134.403C30.7477 134.249 30.6207 134.086 30.4935 133.931C30.3846 133.795 30.2756 133.659 30.1758 133.514C30.9202 132.143 31.6012 131.398 32.0369 130.917C32.3184 130.617 36.8578 128.992 39.5815 127.966C40.6982 127.54 41.5062 127.222 41.5879 127.131C41.6605 126.641 41.7332 125.951 41.7967 125.179C42.0055 122.628 42.1508 119.187 42.1508 119.187L49.9949 119.723C50.0131 119.814 50.1039 123.1 50.231 125.252C50.2945 126.223 50.3671 126.968 50.4488 127.068C50.7212 127.222 51.9287 127.721 53.4086 128.311C56.1322 129.392 59.791 130.817 60.3448 131.126C60.8623 131.416 61.5977 132.805 62.1333 133.931Z" fill="url(#paint19_linear)"/>
<path d="M62.5056 133.46C62.4058 133.596 62.2968 133.742 62.1879 133.878C62.0335 134.068 61.8792 134.268 61.7158 134.459C61.5523 134.649 61.3889 134.84 61.2255 135.022C61.2164 135.031 61.2073 135.04 61.1983 135.049C60.9804 135.294 60.7534 135.53 60.5173 135.757C58.9649 137.3 57.1763 138.599 55.2153 139.579C52.528 140.923 49.5138 141.676 46.3271 141.676C43.1404 141.676 40.1263 140.923 37.4389 139.579C35.378 138.553 33.5168 137.182 31.919 135.53C31.7646 135.367 31.6103 135.203 31.456 135.04C31.2835 134.849 31.111 134.649 30.9385 134.45C30.8023 134.295 30.6752 134.132 30.5481 133.978C30.4391 133.841 30.3302 133.705 30.2303 133.56C30.1758 133.487 30.1214 133.415 30.0669 133.342C30.6389 132.434 31.6648 130.855 32.1005 130.564C32.7179 130.155 41.1431 127.141 41.1431 127.141C41.1431 127.141 41.0069 125.861 41.1885 125.861C41.3701 125.861 50.6668 125.68 50.803 125.725C50.9392 125.77 50.9392 126.823 50.9392 126.823C50.9392 126.823 60.3721 130.337 61.0893 130.836C61.4252 131.091 61.9972 132.28 62.5056 133.46Z" fill="#194568"/>
<path d="M51.0299 117.154C51.0299 117.073 52.0286 114.894 53.2633 115.484C55.1245 116.383 52.9183 119.034 52.1829 119.569C51.2206 120.277 50.2946 120.023 50.2946 120.023L51.0299 117.154Z" fill="url(#paint20_linear)"/>
<path d="M40.0263 117.254C40.0263 117.172 39.0458 114.984 37.802 115.565C35.9408 116.446 38.1289 119.115 38.8552 119.66C39.8175 120.377 40.7345 120.123 40.7345 120.123L40.0263 117.254Z" fill="url(#paint21_linear)"/>
<path d="M39.0459 112.978C39.0459 112.978 40.3079 119.805 40.7891 121.267C41.6879 122.846 43.5672 124.862 43.9666 124.998C44.4841 125.18 47.3349 125.243 47.9069 125.016C48.4879 124.789 50.803 121.285 50.9392 120.74C51.0754 120.195 51.8562 112.251 51.8562 112.251C51.8562 112.251 48.3608 109.909 47.2623 109.591C46.1637 109.274 39.0459 112.978 39.0459 112.978Z" fill="url(#paint22_linear)"/>
<path d="M40.217 119.097L40.6709 119.143L40.1081 115.856C40.1081 115.856 40.8162 115.629 40.907 115.402C40.9978 115.175 40.6165 112.806 40.3713 112.433C40.1807 112.152 39.9083 111.725 39.2183 112.025C38.5283 112.325 38.0653 113.305 37.9745 113.941C37.8837 114.576 39.6813 116.61 39.6813 116.61L40.217 119.097Z" fill="#162A46"/>
<path d="M51.1751 119.097L50.6667 119.143L51.2841 115.856C51.2841 115.856 50.5759 115.629 50.4851 115.402C50.3943 115.175 50.7756 112.806 51.0208 112.433C51.2114 112.152 51.4838 111.725 52.1738 112.025C52.8638 112.325 53.3268 113.305 53.4176 113.941C53.5084 114.576 51.7108 116.61 51.7108 116.61L51.1751 119.097Z" fill="#162A46"/>
<path d="M39.1094 112.434C39.064 112.343 39.2092 109.765 40.0082 109.184C40.8071 108.603 48.7148 107.168 50.7122 108.085C52.7095 109.011 53.2996 113.215 52.9728 113.287C52.6278 113.36 39.7358 113.669 39.1094 112.434Z" fill="#162A46"/>
<path d="M302.057 264.495C318.899 264.495 332.553 250.842 332.553 233.999C332.553 217.157 318.899 203.503 302.057 203.503C285.214 203.503 271.561 217.157 271.561 233.999C271.561 250.842 285.214 264.495 302.057 264.495Z" fill="url(#paint23_linear)"/>
<path d="M280.703 233.808C280.703 239.11 282.655 243.958 285.887 247.671C285.96 247.753 286.033 247.834 286.105 247.916C289.973 252.229 295.584 254.934 301.83 254.934C307.922 254.934 313.405 252.356 317.264 248.234C317.573 247.907 317.872 247.562 318.163 247.208C321.159 243.558 322.956 238.892 322.956 233.808C322.956 222.141 313.496 212.681 301.83 212.681C290.154 212.681 280.703 222.141 280.703 233.808Z" fill="url(#paint24_linear)"/>
<path d="M309.219 238.209H295.029C294.856 238.209 294.729 238.363 294.756 238.536C295.383 242.04 298.442 244.701 302.119 244.701C305.805 244.701 308.865 242.04 309.491 238.536C309.519 238.373 309.391 238.209 309.219 238.209Z" fill="white"/>
<path d="M305.826 228.813H298.409C298.01 228.813 297.683 228.486 297.683 228.086C297.683 227.687 298.01 227.36 298.409 227.36H305.826C306.226 227.36 306.553 227.687 306.553 228.086C306.562 228.486 306.235 228.813 305.826 228.813ZM303.539 232.998C303.057 232.998 302.667 232.607 302.667 232.126C302.667 231.645 303.057 231.255 303.539 231.255C304.02 231.255 304.41 231.645 304.41 232.126C304.41 232.607 304.02 232.998 303.539 232.998ZM300.706 232.998C300.225 232.998 299.834 232.607 299.834 232.126C299.834 231.645 300.225 231.255 300.706 231.255C301.187 231.255 301.578 231.645 301.578 232.126C301.568 232.607 301.187 232.998 300.706 232.998ZM307.878 231.945C309.231 231.082 310.075 229.502 309.876 227.741C309.649 225.826 308.123 224.228 306.208 223.946C305.309 223.81 304.456 223.946 303.72 224.291C302.703 224.754 301.55 224.754 300.533 224.291C299.798 223.955 298.945 223.819 298.055 223.946C296.221 224.21 294.787 225.58 294.433 227.396C294.06 229.294 294.932 231.037 296.375 231.954C296.521 232.054 296.557 232.235 296.439 232.371C295.449 233.533 294.805 234.995 294.669 236.611C294.65 236.775 294.778 236.92 294.941 236.92H309.304C309.467 236.92 309.594 236.775 309.576 236.611C309.44 234.995 308.804 233.533 307.806 232.371C307.697 232.217 307.724 232.035 307.878 231.945Z" fill="white"/>
<path d="M292.182 228.793C290.793 229.355 289.812 230.708 289.812 232.297V232.923C289.812 234.512 290.793 235.865 292.182 236.428C292.364 236.501 292.563 236.373 292.563 236.174V229.056C292.563 228.847 292.364 228.711 292.182 228.793Z" fill="white"/>
<path d="M312.066 228.792C311.885 228.72 311.676 228.847 311.676 229.047V236.164C311.676 236.364 311.876 236.5 312.066 236.419C313.455 235.847 314.436 234.503 314.436 232.914V232.288C314.436 230.708 313.446 229.355 312.066 228.792Z" fill="white"/>
<path d="M52.8185 180.86H0.369995V210.294H52.8185V180.86Z" fill="#FDFEFE"/>
<path d="M44.9563 185.164V206.3L63.813 196.267L44.9563 185.164Z" fill="#FDFEFE"/>
<path d="M17.6895 203.895C20.7099 203.895 22.6958 202.178 22.6958 198.951V196.323C22.6958 196.199 22.6131 196.117 22.4889 196.117H17.8344C17.7102 196.117 17.6275 196.199 17.6275 196.323V197.606C17.6275 197.73 17.7102 197.813 17.8344 197.813H20.6271C20.6685 197.813 20.7099 197.854 20.7099 197.896V199.489C20.7099 201.164 19.5721 202.157 17.7516 202.157C15.9105 202.157 14.6279 200.999 14.6279 199.199V193.779C14.6279 191.979 15.8484 190.821 17.6895 190.821C19.5307 190.821 20.7099 191.979 20.7099 193.613V193.8C20.7099 193.924 20.7926 194.006 20.9167 194.006H22.4889C22.6131 194.006 22.6958 193.924 22.6958 193.8V193.572C22.6958 190.986 20.7099 189.083 17.6895 189.083C14.6485 189.083 12.6419 190.965 12.6419 193.841V199.137C12.6419 201.992 14.6485 203.895 17.6895 203.895ZM25.5296 203.729H27.1018C27.226 203.729 27.3087 203.647 27.3087 203.522V189.455C27.3087 189.331 27.226 189.248 27.1018 189.248H25.5296C25.4055 189.248 25.3228 189.331 25.3228 189.455V203.522C25.3228 203.647 25.4055 203.729 25.5296 203.729ZM39.4299 189.248H29.5415C29.4173 189.248 29.3346 189.331 29.3346 189.455V190.779C29.3346 190.903 29.4173 190.986 29.5415 190.986H33.3272C33.3686 190.986 33.4099 191.028 33.4099 191.069V203.522C33.4099 203.647 33.4927 203.729 33.6168 203.729H35.189C35.3132 203.729 35.3959 203.647 35.3959 203.522V191.069C35.3959 191.028 35.4373 190.986 35.4787 190.986H39.4299C39.554 190.986 39.6368 190.903 39.6368 190.779V189.455C39.6368 189.331 39.554 189.248 39.4299 189.248Z" fill="#343095"/>
<path d="M262.93 246.537H210.482V275.971H262.93V246.537Z" fill="url(#paint25_linear)"/>
<path d="M226.225 253.301L247.36 253.074L237.137 234.335L226.225 253.301Z" fill="url(#paint26_linear)"/>
<path d="M227.615 269.406H229.29C229.435 269.406 229.497 269.324 229.456 269.179L224.905 255.091C224.863 254.988 224.76 254.925 224.656 254.925H222.567C222.464 254.925 222.36 254.988 222.319 255.091L217.788 269.179C217.747 269.324 217.809 269.406 217.954 269.406H219.629C219.733 269.406 219.836 269.344 219.878 269.241L220.622 266.821C220.643 266.758 220.664 266.758 220.705 266.758H226.539C226.58 266.758 226.601 266.758 226.622 266.821L227.366 269.241C227.408 269.344 227.511 269.406 227.615 269.406ZM221.16 265.083L223.539 257.429C223.56 257.367 223.643 257.367 223.663 257.429L226.084 265.083C226.104 265.124 226.063 265.186 226.001 265.186H221.243C221.181 265.186 221.14 265.124 221.16 265.083ZM231.74 269.406H236.726C239.601 269.406 241.463 267.793 241.463 265.269V259.063C241.463 256.539 239.601 254.925 236.726 254.925H231.74C231.616 254.925 231.533 255.008 231.533 255.132V269.2C231.533 269.324 231.616 269.406 231.74 269.406ZM233.519 267.607V256.725C233.519 256.684 233.561 256.643 233.602 256.643H236.808C238.443 256.643 239.477 257.698 239.477 259.353V264.979C239.456 266.634 238.422 267.689 236.808 267.689H233.602C233.561 267.689 233.519 267.648 233.519 267.607ZM253.758 256.436V255.132C253.758 255.008 253.676 254.925 253.552 254.925H244.366C244.242 254.925 244.16 255.008 244.16 255.132V269.2C244.16 269.324 244.242 269.406 244.366 269.406H253.552C253.676 269.406 253.758 269.324 253.758 269.2V267.896C253.758 267.772 253.676 267.689 253.552 267.689H246.228C246.187 267.689 246.146 267.648 246.146 267.607V263.056C246.146 263.014 246.187 262.973 246.228 262.973H251.255C251.379 262.973 251.462 262.89 251.462 262.766V261.463C251.462 261.338 251.379 261.256 251.255 261.256H246.228C246.187 261.256 246.146 261.214 246.146 261.173V256.725C246.146 256.684 246.187 256.643 246.228 256.643H253.552C253.676 256.643 253.758 256.56 253.758 256.436Z" fill="white"/>
<path d="M363 170.447H310.551V199.881H363V170.447Z" fill="#43E8E1"/>
<path d="M318.269 195.841L317.978 174.714L299.266 184.992L318.269 195.841Z" fill="#43E8E1"/>
<path d="M331.231 193.316H332.906C333.051 193.316 333.113 193.233 333.072 193.089L328.521 179.001C328.479 178.897 328.376 178.835 328.272 178.835H326.183C326.08 178.835 325.976 178.897 325.935 179.001L321.404 193.089C321.363 193.233 321.425 193.316 321.57 193.316H323.245C323.349 193.316 323.452 193.254 323.494 193.151L324.238 190.73C324.259 190.668 324.28 190.668 324.321 190.668H330.155C330.196 190.668 330.217 190.668 330.238 190.73L330.982 193.151C331.024 193.254 331.127 193.316 331.231 193.316ZM324.776 188.993L327.155 181.338C327.176 181.276 327.259 181.276 327.279 181.338L329.7 188.993C329.721 189.034 329.679 189.096 329.617 189.096H324.859C324.797 189.096 324.756 189.034 324.776 188.993ZM340.942 178.815H335.356C335.232 178.815 335.149 178.897 335.149 179.021V193.109C335.149 193.233 335.232 193.316 335.356 193.316H336.928C337.052 193.316 337.135 193.233 337.135 193.109V187.234C337.135 187.193 337.177 187.151 337.218 187.151H340.859C343.445 187.151 345.183 185.517 345.183 183.014C345.183 180.49 343.486 178.815 340.942 178.815ZM340.673 185.538H337.218C337.177 185.538 337.135 185.496 337.135 185.455V180.614C337.135 180.573 337.177 180.532 337.218 180.532H340.673C342.183 180.532 343.197 181.545 343.197 183.055C343.197 184.545 342.183 185.538 340.673 185.538ZM347.68 193.316H349.252C349.376 193.316 349.459 193.233 349.459 193.109V179.042C349.459 178.918 349.376 178.835 349.252 178.835H347.68C347.555 178.835 347.473 178.918 347.473 179.042V193.109C347.473 193.233 347.555 193.316 347.68 193.316Z" fill="white"/>
<defs>
<filter id="filter0_b" x="14.8247" y="31.9413" width="348.97" height="253.942" filterUnits="userSpaceOnUse" color-interpolation-filters="sRGB">
<feFlood flood-opacity="0" result="BackgroundImageFix"/>
<feGaussianBlur in="BackgroundImage" stdDeviation="21.9112"/>
<feComposite in2="SourceAlpha" operator="in" result="effect1_backgroundBlur"/>
<feBlend mode="normal" in="SourceGraphic" in2="effect1_backgroundBlur" result="shape"/>
</filter>
<linearGradient id="paint0_linear" x1="-12.9499" y1="224.447" x2="228.759" y2="360.805" gradientUnits="userSpaceOnUse">
<stop stop-color="#26259E"/>
<stop offset="1" stop-color="#5F50CC"/>
</linearGradient>
<linearGradient id="paint1_linear" x1="103.724" y1="93.5493" x2="103.724" y2="18.902" gradientUnits="userSpaceOnUse">
<stop stop-color="#9DD3F8" stop-opacity="0"/>
<stop offset="1" stop-color="#91B8F3"/>
</linearGradient>
<linearGradient id="paint2_linear" x1="186.746" y1="46.0045" x2="186.746" y2="0.0035425" gradientUnits="userSpaceOnUse">
<stop stop-color="#9DD3F8" stop-opacity="0"/>
<stop offset="0.4652" stop-color="#95C1F5" stop-opacity="0.3846"/>
<stop offset="1" stop-color="#91B8F3"/>
</linearGradient>
<linearGradient id="paint3_linear" x1="281.937" y1="123.626" x2="324.396" y2="170.428" gradientUnits="userSpaceOnUse">
<stop stop-color="#42B2F1"/>
<stop offset="1" stop-color="#2A54D3"/>
</linearGradient>
<linearGradient id="paint4_linear" x1="281.382" y1="147.561" x2="332.56" y2="165.933" gradientUnits="userSpaceOnUse">
<stop stop-color="#26259E"/>
<stop offset="1" stop-color="#5F50CC"/>
</linearGradient>
<linearGradient id="paint5_linear" x1="317.728" y1="122.964" x2="317.728" y2="150.673" gradientUnits="userSpaceOnUse">
<stop stop-color="#FFDBD0"/>
<stop offset="1" stop-color="#FF9979"/>
</linearGradient>
<linearGradient id="paint6_linear" x1="318.718" y1="122.973" x2="318.718" y2="133.6" gradientUnits="userSpaceOnUse">
<stop stop-color="#FFDBD0"/>
<stop offset="1" stop-color="#FF9979"/>
</linearGradient>
<linearGradient id="paint7_linear" x1="310.977" y1="123.575" x2="310.977" y2="127.576" gradientUnits="userSpaceOnUse">
<stop stop-color="#FFDBD0"/>
<stop offset="1" stop-color="#FF9979"/>
</linearGradient>
<linearGradient id="paint8_linear" x1="324.545" y1="122.477" x2="324.545" y2="127.699" gradientUnits="userSpaceOnUse">
<stop stop-color="#FFDBD0"/>
<stop offset="1" stop-color="#FF9979"/>
</linearGradient>
<linearGradient id="paint9_linear" x1="317.451" y1="116.626" x2="317.451" y2="132.023" gradientUnits="userSpaceOnUse">
<stop stop-color="#FFDBD0"/>
<stop offset="1" stop-color="#FF9979"/>
</linearGradient>
<linearGradient id="paint10_linear" x1="251.458" y1="59.6327" x2="290.235" y2="102.375" gradientUnits="userSpaceOnUse">
<stop stop-color="#42B2F1"/>
<stop offset="1" stop-color="#2A54D3"/>
</linearGradient>
<linearGradient id="paint11_linear" x1="251.427" y1="80.3286" x2="297.064" y2="96.7123" gradientUnits="userSpaceOnUse">
<stop stop-color="#26259E"/>
<stop offset="1" stop-color="#5F50CC"/>
</linearGradient>
<linearGradient id="paint12_linear" x1="284.329" y1="60.8627" x2="284.329" y2="84.1046" gradientUnits="userSpaceOnUse">
<stop stop-color="#FFDBD0"/>
<stop offset="1" stop-color="#FF9979"/>
</linearGradient>
<linearGradient id="paint13_linear" x1="284.915" y1="60.8723" x2="284.915" y2="68.3796" gradientUnits="userSpaceOnUse">
<stop stop-color="#FFDBD0"/>
<stop offset="1" stop-color="#FF9979"/>
</linearGradient>
<linearGradient id="paint14_linear" x1="277.486" y1="57.9504" x2="277.486" y2="62.0874" gradientUnits="userSpaceOnUse">
<stop stop-color="#FFDBD0"/>
<stop offset="1" stop-color="#FF9979"/>
</linearGradient>
<linearGradient id="paint15_linear" x1="283.367" y1="52.447" x2="283.367" y2="66.7042" gradientUnits="userSpaceOnUse">
<stop stop-color="#FFDBD0"/>
<stop offset="1" stop-color="#FF9979"/>
</linearGradient>
<linearGradient id="paint16_linear" x1="290.301" y1="57.8029" x2="290.301" y2="62.26" gradientUnits="userSpaceOnUse">
<stop stop-color="#FFDBD0"/>
<stop offset="1" stop-color="#FF9979"/>
</linearGradient>
<linearGradient id="paint17_linear" x1="18.207" y1="118.083" x2="51.5119" y2="154.794" gradientUnits="userSpaceOnUse">
<stop stop-color="#42B2F1"/>
<stop offset="1" stop-color="#2A54D3"/>
</linearGradient>
<linearGradient id="paint18_linear" x1="13.3693" y1="138.857" x2="59.4363" y2="155.399" gradientUnits="userSpaceOnUse">
<stop stop-color="#26259E"/>
<stop offset="1" stop-color="#5F50CC"/>
</linearGradient>
<linearGradient id="paint19_linear" x1="46.1546" y1="119.187" x2="46.1546" y2="141.676" gradientUnits="userSpaceOnUse">
<stop stop-color="#FFDBD0"/>
<stop offset="1" stop-color="#FF9979"/>
</linearGradient>
<linearGradient id="paint20_linear" x1="52.1431" y1="115.383" x2="52.1431" y2="120.068" gradientUnits="userSpaceOnUse">
<stop stop-color="#FFDBD0"/>
<stop offset="1" stop-color="#FF9979"/>
</linearGradient>
<linearGradient id="paint21_linear" x1="38.9022" y1="115.467" x2="38.9022" y2="120.167" gradientUnits="userSpaceOnUse">
<stop stop-color="#FFDBD0"/>
<stop offset="1" stop-color="#FF9979"/>
</linearGradient>
<linearGradient id="paint22_linear" x1="45.451" y1="109.572" x2="45.451" y2="125.162" gradientUnits="userSpaceOnUse">
<stop stop-color="#FFDBD0"/>
<stop offset="1" stop-color="#FF9979"/>
</linearGradient>
<linearGradient id="paint23_linear" x1="269.158" y1="229.754" x2="307.935" y2="272.496" gradientUnits="userSpaceOnUse">
<stop stop-color="#42B2F1"/>
<stop offset="1" stop-color="#2A54D3"/>
</linearGradient>
<linearGradient id="paint24_linear" x1="269.127" y1="250.459" x2="314.765" y2="266.842" gradientUnits="userSpaceOnUse">
<stop stop-color="#26259E"/>
<stop offset="1" stop-color="#5F50CC"/>
</linearGradient>
<linearGradient id="paint25_linear" x1="208.416" y1="252.255" x2="233.641" y2="287.281" gradientUnits="userSpaceOnUse">
<stop stop-color="#42B2F1"/>
<stop offset="1" stop-color="#2A54D3"/>
</linearGradient>
<linearGradient id="paint26_linear" x1="208.416" y1="252.255" x2="233.641" y2="287.281" gradientUnits="userSpaceOnUse">
<stop stop-color="#42B2F1"/>
<stop offset="1" stop-color="#2A54D3"/>
</linearGradient>
</defs>
</svg>
