<svg width="108" height="109" viewBox="0 0 108 109" fill="none" xmlns="http://www.w3.org/2000/svg">
<path d="M29.8154 80.0919V108.726H53.4102V68.2654L29.8154 80.0919Z" fill="url(#paint0_linear)"/>
<path d="M53.4102 68.2651V108.725H77.0053V56.4387L53.4102 68.2651Z" fill="url(#paint1_linear)"/>
<path d="M77.0054 108.726H100.601V44.6123L77.0054 56.4388V108.726Z" fill="url(#paint2_linear)"/>
<path d="M107.926 43.6814C107.937 43.6236 107.949 43.5659 107.957 43.5081C107.968 43.4372 107.974 43.3658 107.981 43.2945C107.987 43.2329 107.993 43.1717 107.996 43.1106C107.999 43.0426 107.999 42.9742 107.998 42.9059C107.998 42.8591 108.002 42.8116 107.999 42.7649C107.999 42.7483 107.996 42.7317 107.995 42.7152C107.992 42.6485 107.984 42.5822 107.977 42.5156C107.971 42.4514 107.965 42.3869 107.955 42.3232C107.946 42.2586 107.932 42.194 107.919 42.1299C107.906 42.0649 107.893 42 107.877 41.9358C107.861 41.8747 107.842 41.8144 107.824 41.7536C107.803 41.6865 107.783 41.6198 107.759 41.554C107.739 41.498 107.715 41.4423 107.692 41.3867C107.683 41.3663 107.676 41.3455 107.667 41.3251C107.657 41.3013 107.649 41.2763 107.638 41.2529C107.635 41.2457 107.631 41.2393 107.628 41.2321C107.62 41.2151 107.61 41.199 107.602 41.1824C107.592 41.1612 107.585 41.1395 107.574 41.1183C107.557 41.0851 107.537 41.055 107.52 41.0223C107.485 40.9581 107.45 40.8953 107.412 40.8329C107.379 40.7776 107.344 40.7237 107.308 40.6706C107.271 40.6163 107.234 40.5627 107.194 40.5101C107.153 40.4553 107.111 40.4018 107.068 40.3495C107.028 40.3011 106.987 40.2544 106.944 40.2081C106.899 40.1576 106.852 40.1083 106.803 40.0607C106.758 40.0153 106.711 39.9715 106.663 39.9286C106.615 39.8853 106.566 39.8429 106.516 39.8025C106.463 39.7592 106.408 39.7176 106.353 39.6768C106.304 39.6411 106.255 39.6063 106.205 39.5732C106.146 39.5332 106.084 39.495 106.022 39.4581C105.971 39.4283 105.921 39.3995 105.87 39.3719C105.806 39.3379 105.742 39.306 105.676 39.2754C105.62 39.2491 105.564 39.2245 105.506 39.2011C105.444 39.1752 105.381 39.1506 105.316 39.1276C105.251 39.1047 105.186 39.0839 105.119 39.0644C105.082 39.0533 105.047 39.0389 105.009 39.0287C105.009 39.0287 105.008 39.0287 105.008 39.0287L89.5369 34.8835C87.3828 34.3051 85.1696 35.5843 84.5924 37.7384C84.0153 39.8921 85.2932 42.1057 87.4473 42.6829L92.6589 44.0793L24.6422 78.1691C22.649 79.1684 21.8429 81.5939 22.8418 83.5871C23.5498 85.0001 24.9747 85.8164 26.454 85.8164C27.0622 85.8164 27.6793 85.6783 28.2598 85.3874L97.7389 50.5625L95.9194 57.3528C95.3423 59.5065 96.6202 61.7205 98.7739 62.2972C99.1239 62.3911 99.4755 62.4361 99.8212 62.4361C101.604 62.4361 103.235 61.2465 103.718 59.4428L107.864 43.971C107.87 43.9485 107.873 43.926 107.878 43.9035C107.898 43.83 107.912 43.7557 107.926 43.6814Z" fill="#43E8E1"/>
<path d="M47.5411 88.0277L38.6545 85.1074H14.7833L5.87373 88.0298C2.36945 89.179 0 92.4497 0 96.1379V108.725H53.4102V96.1345C53.4102 92.448 51.0433 89.1782 47.5411 88.0277Z" fill="url(#paint3_linear)"/>
<path d="M35.2495 81.2937H18.1609V88.5235H35.2495V81.2937Z" fill="#3D37B1"/>
<path d="M29.6629 95.7531H23.7476L22.4331 88.5233H30.9774L29.6629 95.7531Z" fill="#5D53CF"/>
<path d="M12.2456 85.8946L20.7899 95.0963L26.7053 88.5235L18.161 81.2937L12.2456 85.8946Z" fill="#665CE0"/>
<path d="M31.2496 108.726L29.6629 95.7533H23.7475L22.1604 108.726H31.2496Z" fill="#5D53CF"/>
<path d="M36.4069 46.3337C35.9949 44.7398 34.2358 42.4807 27.5708 42.4807C17.2738 42.4807 15.8077 44.0054 13.067 41.3722C10.7549 39.1502 9.3971 49.8439 12.4801 53.2399C11.1788 58.0497 12.2197 62.8672 12.2197 62.8672H26.7053H41.1908C41.1908 62.8672 43.6223 51.6141 36.4069 46.3337Z" fill="#162A46"/>
<path d="M13.0669 44.0152C15.8071 46.6488 17.2732 45.1237 27.5707 45.1237C34.2357 45.1237 35.9949 47.3827 36.4068 48.9767C40.2356 51.7785 41.3479 56.2617 41.5488 59.8535C41.7488 56.1394 41.26 49.8855 36.4068 46.3341C35.9949 44.7402 34.2357 42.4812 27.5707 42.4812C17.2737 42.4812 15.8076 44.0059 13.0669 41.3727C11.5439 39.9091 10.4354 44.0483 10.7365 48.0151C10.9565 45.1097 11.8875 42.8817 13.0669 44.0152Z" fill="#162A46"/>
<path d="M33.2717 74.0657H20.1384V82.9668L26.7053 88.5233L33.2777 82.9621L33.2717 74.0657Z" fill="url(#paint4_linear)"/>
<path d="M15.1452 63.3735C15.1452 63.3735 13.8961 61.0856 11.3984 61.0856C8.90069 61.0856 7.13093 72.0677 15.1452 70.2372V63.3735Z" fill="url(#paint5_linear)"/>
<path d="M38.2651 63.3735C38.2651 63.3735 39.5142 61.0856 42.0119 61.0856C44.5101 61.0856 46.2794 72.0677 38.2651 70.2372V63.3735Z" fill="url(#paint6_linear)"/>
<path d="M26.7054 48.657C7.5676 48.657 11.2269 80.0439 26.7054 80.0439C42.184 80.0439 45.8428 48.657 26.7054 48.657Z" fill="url(#paint7_linear)"/>
<path d="M26.5678 46.9205C26.5678 46.9205 13.6116 45.093 13.6116 61.7161C13.6116 61.7161 15.2429 54.8451 18.9854 52.9713C20.7284 52.0985 21.3668 54.3096 26.5678 54.3096C31.7687 54.3096 32.4067 52.0985 34.1501 52.9713C37.8926 54.8451 39.5239 61.7161 39.5239 61.7161C39.5235 45.093 26.5678 46.9205 26.5678 46.9205Z" fill="#162A46"/>
<path d="M26.7054 46.9482C26.7054 46.9482 13.6885 45.1117 13.6885 61.8138C13.6885 61.8138 15.3274 54.9106 19.0878 53.0279C20.8393 52.1509 21.4806 54.3725 26.7058 54.3725C31.931 54.3725 32.5723 52.1513 34.3238 53.0279C38.0842 54.9106 39.7232 61.8138 39.7232 61.8138C39.7223 45.1121 26.7054 46.9482 26.7054 46.9482Z" fill="#162A46"/>
<path d="M41.165 85.8946L32.6207 95.0963L26.7053 88.5235L35.2496 81.2937L41.165 85.8946Z" fill="#665CE0"/>
<path d="M72.8313 0H35.8943C31.9042 0 28.6692 3.23501 28.6692 7.22516V28.4182C28.6692 32.4083 31.9042 35.6433 35.8943 35.6433H41.3739V43.2605C41.3739 44.4624 42.8273 45.0642 43.6771 44.2144L52.2482 35.6433H72.8309C76.821 35.6433 80.0561 32.4083 80.0561 28.4182V7.22516C80.0565 3.23501 76.8215 0 72.8313 0Z" fill="#43E8E1"/>
<path d="M35.8943 0H72.8309C76.8215 0 80.0561 3.23459 80.0561 7.22516V10.2457C80.0561 6.25512 76.8215 3.02053 72.8309 3.02053H35.8943C31.9038 3.02053 28.6692 6.25512 28.6692 10.2457V7.22516C28.6692 3.23459 31.9042 0 35.8943 0Z" fill="#43E8E1"/>
<path d="M53.3065 27.7619C51.9818 27.5678 50.8037 27.0556 49.7695 26.2248C49.1664 25.7402 48.6649 25.1329 48.2639 24.4024C47.7772 23.516 48.1573 22.4016 49.0934 22.0189C49.8375 21.7148 50.7098 21.9731 51.1252 22.6615C51.2586 22.8828 51.4123 23.0943 51.5856 23.2956C52.0617 23.8524 52.635 24.2372 53.3065 24.4478V19.4142L53.0699 19.3076C52.4167 19.0608 51.8018 18.7699 51.228 18.4331C50.6542 18.0989 50.1501 17.709 49.7181 17.2677C49.2832 16.8264 48.9388 16.3274 48.684 15.7706C48.4266 15.2138 48.2979 14.5912 48.2979 13.9019C48.2979 13.2665 48.4139 12.666 48.6428 12.0998C48.8742 11.5354 49.2034 11.0309 49.6383 10.59C50.0707 10.1487 50.5952 9.78093 51.2152 9.49043C51.8328 9.19866 52.5297 9.00923 53.3065 8.92047V7.8209C53.3065 7.16939 53.8344 6.64148 54.4859 6.64148C55.1374 6.64148 55.6653 7.16939 55.6653 7.8209V8.97313C56.3729 9.07846 56.9875 9.26491 57.5073 9.52993C58.0297 9.79495 58.4756 10.1041 58.8604 10.4443C59.0082 10.5751 59.1514 10.7314 59.286 10.9C59.9553 11.738 59.6156 12.9905 58.6362 13.4275C57.9651 13.7269 57.1926 13.5392 56.6982 12.9951C56.4392 12.7097 56.0981 12.4294 55.6653 12.2319V16.9755C56.4269 17.2945 57.1136 17.6211 57.7337 17.957C58.3512 18.2925 58.8808 18.6722 59.3234 19.0965C59.7659 19.5195 60.1002 20.002 60.3291 20.5397C60.5605 21.0799 60.6739 21.7025 60.6739 22.4084C60.6739 23.2034 60.5376 23.9106 60.265 24.5281C59.9897 25.1469 59.6245 25.6765 59.1641 26.1178C58.7037 26.5604 58.1711 26.9141 57.5617 27.1787C56.9522 27.4433 56.3194 27.6289 55.6658 27.7342V28.8865C55.6658 29.538 55.1379 30.0659 54.4864 30.0659C53.8348 30.0659 53.3069 29.538 53.3069 28.8865V27.7619H53.3065ZM51.5601 13.9015C51.5601 14.3257 51.6964 14.6923 51.9691 15.001C52.2443 15.3111 52.6894 15.6249 53.3069 15.9426V12.0735C52.7769 12.2149 52.3552 12.4439 52.0362 12.7615C51.7168 13.0809 51.5601 13.4602 51.5601 13.9015ZM57.2835 22.4356C57.2835 21.9765 57.1599 21.5955 56.9106 21.2961C56.6638 20.995 56.2493 20.6955 55.6653 20.3944V24.4487C56.144 24.2907 56.5322 24.0384 56.8333 23.6936C57.1319 23.3487 57.2835 22.9295 57.2835 22.4356Z" fill="#F6F9FC"/>
<path d="M100.601 105.753H77.0054V108.726H100.601V105.753Z" fill="url(#paint8_linear)"/>
<path d="M77.0053 105.753H53.4102V108.726H77.0053V105.753Z" fill="url(#paint9_linear)"/>
<path d="M53.4102 105.753H0V108.726H53.4102V105.753Z" fill="url(#paint10_linear)"/>
<path d="M22.524 105.753L22.1604 108.726H31.2496L30.8861 105.753H22.524Z" fill="#5D53CF"/>
<defs>
<linearGradient id="paint0_linear" x1="28.8858" y1="85.6791" x2="52.3979" y2="100.793" gradientUnits="userSpaceOnUse">
<stop stop-color="#42B2F1"/>
<stop offset="1" stop-color="#2A54D3"/>
</linearGradient>
<linearGradient id="paint1_linear" x1="52.4805" y1="78.9424" x2="79.1176" y2="92.1921" gradientUnits="userSpaceOnUse">
<stop stop-color="#42B2F1"/>
<stop offset="1" stop-color="#2A54D3"/>
</linearGradient>
<linearGradient id="paint2_linear" x1="76.0757" y1="72.206" x2="104.608" y2="83.7806" gradientUnits="userSpaceOnUse">
<stop stop-color="#42B2F1"/>
<stop offset="1" stop-color="#2A54D3"/>
</linearGradient>
<linearGradient id="paint3_linear" x1="-14.6331" y1="106.224" x2="24.6193" y2="138.091" gradientUnits="userSpaceOnUse">
<stop stop-color="#26259E"/>
<stop offset="1" stop-color="#5F50CC"/>
</linearGradient>
<linearGradient id="paint4_linear" x1="26.708" y1="74.0657" x2="26.708" y2="88.5233" gradientUnits="userSpaceOnUse">
<stop stop-color="#FFDBD0"/>
<stop offset="1" stop-color="#FF9979"/>
</linearGradient>
<linearGradient id="paint5_linear" x1="12.2196" y1="61.0856" x2="12.2196" y2="70.443" gradientUnits="userSpaceOnUse">
<stop stop-color="#FFDBD0"/>
<stop offset="1" stop-color="#FF9979"/>
</linearGradient>
<linearGradient id="paint6_linear" x1="41.1908" y1="61.0856" x2="41.1908" y2="70.443" gradientUnits="userSpaceOnUse">
<stop stop-color="#FFDBD0"/>
<stop offset="1" stop-color="#FF9979"/>
</linearGradient>
<linearGradient id="paint7_linear" x1="26.7053" y1="48.657" x2="26.7053" y2="80.0439" gradientUnits="userSpaceOnUse">
<stop stop-color="#FFDBD0"/>
<stop offset="1" stop-color="#FF9979"/>
</linearGradient>
<linearGradient id="paint8_linear" x1="76.0757" y1="107.032" x2="76.5043" y2="110.781" gradientUnits="userSpaceOnUse">
<stop stop-color="#42B2F1"/>
<stop offset="1" stop-color="#2A54D3"/>
</linearGradient>
<linearGradient id="paint9_linear" x1="52.4805" y1="107.032" x2="52.9091" y2="110.781" gradientUnits="userSpaceOnUse">
<stop stop-color="#42B2F1"/>
<stop offset="1" stop-color="#2A54D3"/>
</linearGradient>
<linearGradient id="paint10_linear" x1="-14.6331" y1="108.411" x2="-13.1043" y2="118.271" gradientUnits="userSpaceOnUse">
<stop stop-color="#26259E"/>
<stop offset="1" stop-color="#5F50CC"/>
</linearGradient>
</defs>
</svg>
