<svg width="110" height="109" viewBox="0 0 110 109" fill="none" xmlns="http://www.w3.org/2000/svg">
<path d="M86.0144 77.7622C92.4381 77.7622 97.6455 72.5548 97.6455 66.1311C97.6455 59.7074 92.4381 54.5 86.0144 54.5C79.5907 54.5 74.3833 59.7074 74.3833 66.1311C74.3833 72.5548 79.5907 77.7622 86.0144 77.7622Z" fill="url(#paint0_linear)"/>
<path d="M62.7522 101.024C62.7522 88.177 73.167 77.7622 86.0144 77.7622C98.8618 77.7622 109.277 88.177 109.277 101.024H62.7522Z" fill="url(#paint1_linear)"/>
<path d="M23.5388 77.7622C29.9625 77.7622 35.1699 72.5548 35.1699 66.1311C35.1699 59.7074 29.9625 54.5 23.5388 54.5C17.1151 54.5 11.9077 59.7074 11.9077 66.1311C11.9077 72.5548 17.1151 77.7622 23.5388 77.7622Z" fill="url(#paint2_linear)"/>
<path d="M46.801 101.024C46.801 88.177 36.3862 77.7622 23.5388 77.7622C10.6914 77.7622 0.276611 88.177 0.276611 101.024H46.801Z" fill="url(#paint3_linear)"/>
<path d="M54.7764 77.9835C63.3413 77.9835 70.2846 71.0402 70.2846 62.4753C70.2846 53.9104 63.3413 46.9672 54.7764 46.9672C46.2115 46.9672 39.2683 53.9104 39.2683 62.4753C39.2683 71.0402 46.2115 77.9835 54.7764 77.9835Z" fill="url(#paint4_linear)"/>
<path d="M23.7603 109C23.7603 91.8699 37.6467 77.9835 54.7765 77.9835C71.9063 77.9835 85.7928 91.8699 85.7928 109H23.7603Z" fill="url(#paint5_linear)"/>
<path d="M73.3864 15.9512V46.0813H82.9128V51.3984L90.0022 46.0813H109.277V15.9512H73.3864Z" fill="url(#paint6_linear)"/>
<path d="M36.1669 15.9512V46.0813H26.6404V51.3984L19.551 46.0813H0.276611V15.9512H36.1669Z" fill="url(#paint7_linear)"/>
<path d="M28.1912 0V37.6626H48.5733L54.7765 44.3089L60.9798 37.6626H81.3619V0H28.1912Z" fill="#43E8E1"/>
<defs>
<linearGradient id="paint0_linear" x1="73.4668" y1="64.5118" x2="88.2562" y2="80.8139" gradientUnits="userSpaceOnUse">
<stop stop-color="#42B2F1"/>
<stop offset="1" stop-color="#2A54D3"/>
</linearGradient>
<linearGradient id="paint1_linear" x1="60.9192" y1="87.774" x2="72.0996" y2="112.422" gradientUnits="userSpaceOnUse">
<stop stop-color="#42B2F1"/>
<stop offset="1" stop-color="#2A54D3"/>
</linearGradient>
<linearGradient id="paint2_linear" x1="10.9912" y1="64.5118" x2="25.7807" y2="80.8139" gradientUnits="userSpaceOnUse">
<stop stop-color="#42B2F1"/>
<stop offset="1" stop-color="#2A54D3"/>
</linearGradient>
<linearGradient id="paint3_linear" x1="-1.5564" y1="87.774" x2="9.62399" y2="112.422" gradientUnits="userSpaceOnUse">
<stop stop-color="#42B2F1"/>
<stop offset="1" stop-color="#2A54D3"/>
</linearGradient>
<linearGradient id="paint4_linear" x1="30.7706" y1="74.6982" x2="64.2712" y2="86.7249" gradientUnits="userSpaceOnUse">
<stop stop-color="#26259E"/>
<stop offset="1" stop-color="#5F50CC"/>
</linearGradient>
<linearGradient id="paint5_linear" x1="6.76484" y1="105.715" x2="56.6728" y2="141.548" gradientUnits="userSpaceOnUse">
<stop stop-color="#26259E"/>
<stop offset="1" stop-color="#5F50CC"/>
</linearGradient>
<linearGradient id="paint6_linear" x1="71.9723" y1="31.2073" x2="94.4797" y2="56.3268" gradientUnits="userSpaceOnUse">
<stop stop-color="#42B2F1"/>
<stop offset="1" stop-color="#2A54D3"/>
</linearGradient>
<linearGradient id="paint7_linear" x1="-1.13743" y1="31.2073" x2="21.37" y2="56.3268" gradientUnits="userSpaceOnUse">
<stop stop-color="#42B2F1"/>
<stop offset="1" stop-color="#2A54D3"/>
</linearGradient>
</defs>
</svg>
