<svg width="110" height="109" viewBox="0 0 110 109" fill="none" xmlns="http://www.w3.org/2000/svg">
<path d="M24.0372 51.4253C26.3124 49.9492 28.6506 48.5451 30.6976 46.7663C33.7833 44.0848 35.5796 41.1479 31.9043 37.4726L22.0166 27.5849C20.497 26.0657 17.9776 25.3844 15.9898 26.3339C14.9217 26.8443 14.043 27.6728 13.2005 28.505C12.3669 29.3284 11.5525 30.1624 10.7646 31.0096C4.13188 38.1369 -0.637985 46.1745 0.815103 56.4446C1.56766 61.7632 3.76434 66.7889 6.49357 71.375C14.0289 84.0366 25.4788 95.5018 38.178 103.059C42.7645 105.789 47.7897 107.986 53.1083 108.738C63.3785 110.191 71.4161 105.421 78.5438 98.7883C79.3906 98.0004 80.2245 97.186 81.0483 96.3525C81.8806 95.5104 82.709 94.6316 83.2194 93.5631C84.1694 91.5754 83.488 89.0555 81.9684 87.5363L72.0808 77.6487C68.4054 73.9733 65.469 75.77 62.7871 78.8553C61.0082 80.9023 59.6042 83.2406 58.1281 85.5157C57.0182 87.2259 55.7954 88.673 53.5987 88.5042C48.8915 88.1418 44.3493 84.1364 40.9046 81.2519C36.2469 77.3519 31.9162 73.011 28.0383 68.3332C25.2404 64.9584 21.4009 60.5408 21.0488 55.9538C20.8799 53.758 22.327 52.5351 24.0372 51.4253Z" fill="url(#paint0_linear)"/>
<path d="M83.2193 90.5788C82.709 91.6469 81.8805 92.5257 81.0482 93.3682C80.2249 94.2017 79.3909 95.0161 78.5437 95.8041C71.416 102.437 63.3788 107.207 53.1083 105.754C47.7897 105.001 42.764 102.804 38.1779 100.075C25.4792 92.5171 14.0293 81.0523 6.49351 68.3907C3.76385 63.8042 1.56759 58.7789 0.815039 53.4603C0.711856 52.7303 0.643209 52.0127 0.601425 51.3045C0.502505 52.9559 0.563477 54.6661 0.815039 56.4449C1.56759 61.7635 3.76428 66.7892 6.49351 71.3753C14.0288 84.0369 25.4787 95.5022 38.1779 103.06C42.764 105.789 47.7897 107.986 53.1083 108.738C63.3784 110.191 71.416 105.421 78.5437 98.7887C79.3905 98.0007 80.2245 97.1864 81.0482 96.3528C81.8805 95.5107 82.709 94.632 83.2193 93.5635C83.7451 92.4634 83.7694 91.2009 83.4304 90.0352C83.3711 90.2194 83.3038 90.4019 83.2193 90.5788Z" fill="url(#paint1_linear)"/>
<path d="M15.9898 26.3339C14.9218 26.8443 14.043 27.6728 13.2005 28.505C13.0585 28.6453 12.9208 28.7877 12.7797 28.9284L30.6537 46.8025C30.6682 46.7901 30.6832 46.7786 30.6977 46.7663C33.7833 44.0848 35.5797 41.1479 31.9043 37.4726L22.0167 27.5849C20.4975 26.0657 17.9776 25.3844 15.9898 26.3339Z" fill="url(#paint2_linear)"/>
<path d="M81.9685 87.5365L72.0808 77.6489C68.4054 73.9735 65.469 75.7703 62.7871 78.8555C62.7747 78.87 62.7632 78.885 62.7509 78.8994L80.6249 96.7735C80.7656 96.6328 80.9081 96.4947 81.0483 96.3527C81.8806 95.5106 82.7091 94.6318 83.2194 93.5634C84.1694 91.5756 83.4881 89.0557 81.9685 87.5365Z" fill="#B665C2"/>
<path d="M81.9685 87.5365L72.0808 77.6489C68.4054 73.9735 65.469 75.7703 62.7871 78.8555C62.7747 78.87 62.7632 78.885 62.7509 78.8994L80.6249 96.7735C80.7656 96.6328 80.9081 96.4947 81.0483 96.3527C81.8806 95.5106 82.7091 94.6318 83.2194 93.5634C84.1694 91.5756 83.4881 89.0557 81.9685 87.5365Z" fill="url(#paint3_linear)"/>
<path d="M83.4257 93.0347C83.4568 92.9397 83.4867 92.8441 83.511 92.7474C83.5233 92.6983 83.5323 92.6484 83.543 92.599C83.563 92.5069 83.5822 92.4144 83.5963 92.3214C83.6039 92.2715 83.6095 92.2216 83.6154 92.1713C83.6269 92.0762 83.6368 91.9812 83.6427 91.8857C83.6457 91.8383 83.6474 91.791 83.6491 91.7437C83.6525 91.6431 83.653 91.5424 83.6504 91.4414C83.6491 91.3992 83.6478 91.3569 83.6457 91.3147C83.6402 91.206 83.6312 91.0973 83.6188 90.9886C83.615 90.9544 83.6116 90.9199 83.6073 90.8858C83.5916 90.7647 83.5711 90.644 83.5472 90.5238C83.543 90.5021 83.5395 90.4803 83.5349 90.4586C83.505 90.3166 83.47 90.175 83.4295 90.0352C83.3703 90.2194 83.3029 90.4019 83.2185 90.5788C82.7081 91.6469 81.8797 92.5256 81.0474 93.3682C80.4099 94.0133 79.7636 94.643 79.1121 95.2621L80.6236 96.7736C80.7643 96.6329 80.9067 96.4948 81.0469 96.3528C81.3591 96.0368 81.6703 95.7162 81.9649 95.3819C82.4557 94.8251 82.8987 94.2311 83.2181 93.5639C83.2807 93.4321 83.3357 93.2978 83.3843 93.1622C83.401 93.12 83.4121 93.077 83.4257 93.0347Z" fill="url(#paint4_linear)"/>
<path d="M21.2602 57.3088C21.0846 57.7893 21.0018 58.3248 21.0492 58.9388C21.4013 63.5258 25.2409 67.943 28.0387 71.3182C31.9166 75.996 36.2473 80.3369 40.905 84.2369C44.3502 87.1214 48.8919 91.1268 53.5991 91.4892C55.7954 91.658 57.0186 90.2113 58.1285 88.5007C59.6046 86.2256 61.0086 83.8873 62.7875 81.8403C65.469 78.7546 68.4058 76.9583 72.0812 80.6336L81.9688 90.5213C82.6476 91.2001 83.1571 92.0784 83.4309 93.0199C84.0372 91.134 83.3533 88.9207 81.9688 87.5367L72.0812 77.649C68.4058 73.9737 65.4694 75.7704 62.7875 78.8557C61.0086 80.9027 59.6046 83.2409 58.1285 85.5161C57.0186 87.2263 55.7958 88.6734 53.5991 88.5045C48.8919 88.1421 44.3497 84.1367 40.905 81.2523C36.2473 77.3523 31.9166 73.0113 28.0387 68.3336C25.5176 65.2922 22.1594 61.4037 21.2602 57.3088Z" fill="url(#paint5_linear)"/>
<path d="M64.2175 80.3659C66.517 78.2954 69.0471 77.5996 72.0807 80.6332L81.9684 90.5209C82.6472 91.1997 83.1567 92.078 83.4304 93.0194C83.728 92.0933 83.7131 91.0888 83.4586 90.1418C83.4522 90.1175 83.4462 90.0932 83.4394 90.0693C83.4142 89.9798 83.3852 89.8911 83.3558 89.8029C83.343 89.7649 83.3307 89.7274 83.3174 89.6899C83.2893 89.611 83.259 89.5334 83.2275 89.4558C83.2087 89.4093 83.1891 89.3628 83.1691 89.3168C83.1388 89.2473 83.1072 89.1782 83.074 89.1096C83.0488 89.0571 83.0224 89.0051 82.9955 88.9531C82.9635 88.8913 82.9311 88.8299 82.897 88.7693C82.8651 88.7122 82.8309 88.6563 82.7973 88.6005C82.7644 88.5463 82.7316 88.4917 82.6971 88.4389C82.657 88.3779 82.6152 88.3186 82.573 88.2589C82.5406 88.2129 82.5086 88.166 82.4749 88.1212C82.4246 88.0543 82.3713 87.9899 82.3184 87.9255C82.2894 87.8901 82.2617 87.8539 82.2319 87.8194C82.1475 87.7217 82.0596 87.6271 81.9692 87.5362C81.9692 87.5362 81.496 87.063 80.7566 86.3236C80.4398 86.0068 80.074 85.641 79.6758 85.2428C79.5432 85.1102 79.4067 84.9737 79.2673 84.8343C78.5702 84.1372 77.7976 83.365 77.0254 82.5924C76.8711 82.4381 76.7163 82.2833 76.5624 82.1294C74.254 79.821 72.0816 77.6486 72.0816 77.6486C71.7371 77.3041 71.399 77.0077 71.0668 76.7558C70.956 76.6718 70.8464 76.5929 70.7368 76.5187C70.1902 76.1477 69.6602 75.8979 69.1447 75.7529C66.7741 75.0857 64.7151 76.6377 62.7875 78.8552C62.7751 78.8697 62.7636 78.8847 62.7512 78.8992L64.2175 80.3659Z" fill="url(#paint6_linear)"/>
<path d="M10.7646 33.9942C11.5526 33.1474 12.367 32.3134 13.2005 31.4897C14.0426 30.6574 14.9214 29.8289 15.9899 29.3186C17.9776 28.3686 20.4975 29.0499 22.0167 30.5695L31.9043 40.4572C32.798 41.3509 33.3659 42.2011 33.6729 43.0142C34.3006 41.3406 33.9535 39.5213 31.9043 37.4726L22.0167 27.5849C20.4975 26.0657 17.9776 25.3844 15.9899 26.3339C14.9218 26.8443 14.043 27.6728 13.2005 28.505C12.367 29.3284 11.5526 30.1624 10.7646 31.0096C4.60351 37.6303 0.0532275 45.0378 0.601546 54.2892C1.07397 46.4039 5.28059 39.8876 10.7646 33.9942Z" fill="url(#paint7_linear)"/>
<path d="M12.78 28.9289L14.3077 30.4566C14.8258 30.0127 15.3758 29.6124 15.9902 29.319C17.978 28.3691 20.4979 29.0504 22.017 30.57L31.9047 40.4577C32.7984 41.3514 33.3663 42.2015 33.6733 43.0146C33.7108 42.9144 33.7445 42.8134 33.7752 42.7119C33.7794 42.6974 33.7833 42.6829 33.7875 42.6684C33.8127 42.581 33.8357 42.4936 33.8553 42.4054C33.86 42.384 33.8643 42.3627 33.8686 42.3414C33.8856 42.2591 33.9001 42.1768 33.9125 42.0937C33.9159 42.0694 33.9193 42.0446 33.9227 42.0203C33.9329 41.9398 33.9406 41.8583 33.9457 41.7769C33.9474 41.7513 33.9496 41.7257 33.9504 41.7001C33.9543 41.617 33.9547 41.5334 33.9534 41.4498C33.953 41.4264 33.9534 41.4029 33.9526 41.3795C33.9496 41.2882 33.9423 41.1966 33.9325 41.1041C33.9308 41.0883 33.9304 41.0721 33.9283 41.0563C33.9027 40.8363 33.8583 40.6133 33.7935 40.3877C33.7905 40.3771 33.7863 40.3664 33.7833 40.3558C33.7543 40.2573 33.7215 40.1579 33.6848 40.0582C33.6729 40.0262 33.6588 39.9938 33.6464 39.9618C33.6153 39.8829 33.5829 39.8036 33.5466 39.7239C33.5287 39.6838 33.5087 39.6437 33.4891 39.6036C33.4541 39.5312 33.4175 39.4582 33.3782 39.3849C33.3548 39.341 33.3296 39.2971 33.3045 39.2527C33.2644 39.1824 33.2222 39.1116 33.1778 39.0404C33.1493 38.9943 33.1203 38.9483 33.0896 38.9023C33.0431 38.8319 32.9941 38.7611 32.9438 38.6899C32.9105 38.643 32.8777 38.5965 32.8427 38.5496C32.789 38.4772 32.7314 38.4042 32.6734 38.3313C32.6368 38.2853 32.6018 38.2397 32.5634 38.1936C32.4978 38.1143 32.4274 38.0342 32.3562 37.9544C32.3208 37.9143 32.2876 37.8747 32.2509 37.8346C32.1426 37.7161 32.0292 37.5971 31.9098 37.4773C31.9077 37.4756 31.9064 37.4735 31.9042 37.4718C31.9042 37.4718 30.9385 36.506 29.6108 35.1787C28.9469 34.5148 28.1926 33.7606 27.423 32.991C27.1152 32.6831 26.8052 32.3732 26.4974 32.0653C25.8817 31.4496 25.2758 30.8438 24.7181 30.2861C24.4393 30.0072 24.1724 29.7403 23.9229 29.4909C22.7986 28.3665 22.0166 27.5845 22.0166 27.5845C21.6367 27.2046 21.1945 26.8772 20.7136 26.6145C19.8719 26.1549 18.9122 25.8935 17.9626 25.8969C17.2843 25.8995 16.611 26.0368 15.9898 26.3336C15.0552 26.7804 14.2655 27.4703 13.5185 28.1934C13.4119 28.2966 13.3058 28.4006 13.2009 28.5047C13.0585 28.6454 12.9207 28.7878 12.78 28.9289Z" fill="url(#paint8_linear)"/>
<path d="M98.7352 0H55.5502C49.4914 0 44.58 4.91142 44.58 10.9702V38.8846C44.58 44.9434 49.4914 49.8548 55.5502 49.8548H78.7403V61.4202C78.7403 63.2451 80.9468 64.1589 82.237 62.8686L95.2508 49.8548H98.7352C104.794 49.8548 109.705 44.9434 109.705 38.8846V10.9702C109.705 4.91142 104.794 0 98.7352 0Z" fill="url(#paint9_linear)"/>
<path d="M55.5502 0H98.7352C104.794 0 109.705 4.91142 109.705 10.9702V14.5484C109.705 8.48956 104.794 3.57814 98.7352 3.57814H55.5502C49.4914 3.57814 44.58 8.48956 44.58 14.5484V10.9702C44.58 4.91142 49.4918 0 55.5502 0Z" fill="url(#paint10_linear)"/>
<path d="M57.9558 35.2736C57.9558 34.4012 58.3071 33.5629 58.9284 32.9502C60.0885 31.8063 61.1766 30.7258 62.1936 29.7089C62.738 29.1645 63.2949 28.6076 63.8654 28.0371C64.435 27.4675 64.9667 26.9358 65.4596 26.4429C65.9516 25.9509 66.3925 25.504 66.7814 25.1015C67.1702 24.6999 67.4678 24.3822 67.6755 24.149C68.0899 23.657 68.4591 23.2161 68.7836 22.8272C69.1072 22.438 69.3669 22.0559 69.5609 21.6803C69.7553 21.3047 69.9041 20.929 70.0082 20.5525C70.1113 20.1769 70.1638 19.7688 70.1638 19.328C70.1638 18.4727 69.8265 17.7278 69.1529 17.0925C68.4788 16.4576 67.5586 16.14 66.3925 16.14C65.5351 16.14 64.1805 16.6303 63.2092 17.8114C62.5078 18.6641 61.322 18.9442 60.3009 18.5238C58.7207 17.8732 58.2261 15.8824 59.3061 14.5577C59.7641 13.9962 60.2126 13.5693 60.5217 13.3212C61.247 12.7379 62.1091 12.2587 63.1073 11.883C64.1046 11.5074 65.2259 11.3194 66.4701 11.3194C67.8175 11.3194 69.036 11.5206 70.1246 11.9218C71.2131 12.3243 72.1332 12.8748 72.8853 13.574C73.6366 14.2737 74.2199 15.0975 74.6348 16.0432C75.0492 16.9893 75.2568 18.0062 75.2568 19.0952C75.2568 20.7542 74.8488 22.2772 74.0323 23.6634C73.2158 25.0504 72.2245 26.3397 71.0575 27.5319L67.7138 30.8751C66.8325 31.7564 65.8344 32.7413 64.7203 33.8299L64.8759 34.0631H73.4098C74.6446 34.0631 75.6453 35.0638 75.6453 36.2986C75.6453 37.5334 74.6441 38.5341 73.4098 38.5341H61.2163C59.4161 38.5349 57.9558 37.075 57.9558 35.2736Z" fill="#43E8E1"/>
<path d="M87.9318 36.1634V33.6358H78.8039C77.0596 33.6358 75.6458 32.222 75.6458 30.4777C75.6458 29.8501 75.8329 29.2361 76.1834 28.7155L86.3943 13.5331C87.0637 12.5379 88.1842 11.941 89.3836 11.941C91.373 11.941 92.986 13.554 92.986 15.5435V28.8928H93.9582C95.268 28.8928 96.3297 29.9545 96.3297 31.2643C96.3297 32.5742 95.268 33.6358 93.9582 33.6358H92.986V36.1634C92.986 37.4732 91.9243 38.5349 90.6145 38.5349H90.3033C88.9939 38.5349 87.9318 37.4732 87.9318 36.1634ZM87.9318 19.5228H87.6205L81.2833 28.8928H87.9318V19.5228Z" fill="#43E8E1"/>
<defs>
<linearGradient id="paint0_linear" x1="-2.72095" y1="61.6637" x2="50.1132" y2="119.902" gradientUnits="userSpaceOnUse">
<stop stop-color="#42B2F1"/>
<stop offset="1" stop-color="#2A54D3"/>
</linearGradient>
<linearGradient id="paint1_linear" x1="-2.71761" y1="76.1361" x2="30.523" y2="128.909" gradientUnits="userSpaceOnUse">
<stop stop-color="#42B2F1"/>
<stop offset="1" stop-color="#2A54D3"/>
</linearGradient>
<linearGradient id="paint2_linear" x1="11.9453" y1="34.8947" x2="25.2186" y2="49.7154" gradientUnits="userSpaceOnUse">
<stop stop-color="#42B2F1"/>
<stop offset="1" stop-color="#2A54D3"/>
</linearGradient>
<linearGradient id="paint3_linear" x1="61.9272" y1="84.7112" x2="75.4063" y2="99.3788" gradientUnits="userSpaceOnUse">
<stop stop-color="#42B2F1"/>
<stop offset="1" stop-color="#2A54D3"/>
</linearGradient>
<linearGradient id="paint4_linear" x1="78.9332" y1="92.9353" x2="83.0539" y2="95.9956" gradientUnits="userSpaceOnUse">
<stop stop-color="#42B2F1"/>
<stop offset="1" stop-color="#2A54D3"/>
</linearGradient>
<linearGradient id="paint5_linear" x1="18.569" y1="72.6785" x2="37.1897" y2="108.668" gradientUnits="userSpaceOnUse">
<stop stop-color="#42B2F1"/>
<stop offset="1" stop-color="#2A54D3"/>
</linearGradient>
<linearGradient id="paint6_linear" x1="61.9278" y1="83.0953" x2="72.6366" y2="97.2555" gradientUnits="userSpaceOnUse">
<stop stop-color="#42B2F1"/>
<stop offset="1" stop-color="#2A54D3"/>
</linearGradient>
<linearGradient id="paint7_linear" x1="-0.759104" y1="38.1169" x2="16.7821" y2="60.8617" gradientUnits="userSpaceOnUse">
<stop stop-color="#42B2F1"/>
<stop offset="1" stop-color="#2A54D3"/>
</linearGradient>
<linearGradient id="paint8_linear" x1="11.9458" y1="33.2642" x2="22.3751" y2="47.4844" gradientUnits="userSpaceOnUse">
<stop stop-color="#42B2F1"/>
<stop offset="1" stop-color="#2A54D3"/>
</linearGradient>
<linearGradient id="paint9_linear" x1="26.7372" y1="56.7496" x2="96.6579" y2="82.5047" gradientUnits="userSpaceOnUse">
<stop stop-color="#26259E"/>
<stop offset="1" stop-color="#5F50CC"/>
</linearGradient>
<linearGradient id="paint10_linear" x1="26.7372" y1="13.0074" x2="48.9019" y2="48.6273" gradientUnits="userSpaceOnUse">
<stop stop-color="#26259E"/>
<stop offset="1" stop-color="#5F50CC"/>
</linearGradient>
</defs>
</svg>
