<svg width="107" height="106" viewBox="0 0 107 106" fill="none" xmlns="http://www.w3.org/2000/svg">
<path d="M72.7645 95.5035H9.41584C6.89295 95.5035 4.8479 93.4585 4.8479 90.9356V41.2672H72.7645V95.5035Z" fill="url(#paint0_linear)"/>
<path d="M72.7645 95.5035H102.262C104.785 95.5035 106.83 93.4584 106.83 90.9355V77.7679C106.83 77.1274 106.695 76.4943 106.435 75.9092L96.0858 52.6749C95.352 51.0274 93.7169 49.9657 91.9133 49.9657H72.7649V95.5035H72.7645Z" fill="url(#paint1_linear)"/>
<path d="M96.7652 54.2018H79.7012C78.4152 54.2018 77.3726 55.2444 77.3726 56.5304V73.1116C77.3726 74.3977 78.4152 75.4403 79.7012 75.4403H106.225L96.7652 54.2018Z" fill="#43E8E1"/>
<path d="M104.177 88.3714H106.83V80.2909H104.177C101.946 80.2909 100.137 82.1 100.137 84.3313C100.137 86.5623 101.946 88.3714 104.177 88.3714Z" fill="#43E8E1"/>
<path d="M7.50116 88.3714H4.84827V80.2909H7.50116C9.73255 80.2909 11.5416 82.1 11.5416 84.3313C11.5412 86.5623 9.73213 88.3714 7.50116 88.3714Z" fill="#43E8E1"/>
<path d="M24.93 106C30.727 106 35.4264 101.3 35.4264 95.5034C35.4264 89.7064 30.727 85.007 24.93 85.007C19.1329 85.007 14.4335 89.7064 14.4335 95.5034C14.4335 101.3 19.1329 106 24.93 106Z" fill="url(#paint2_linear)"/>
<path d="M24.93 100.914C27.9181 100.914 30.3405 98.4917 30.3405 95.5035C30.3405 92.5153 27.9181 90.093 24.93 90.093C21.9418 90.093 19.5194 92.5153 19.5194 95.5035C19.5194 98.4917 21.9418 100.914 24.93 100.914Z" fill="#6770E6"/>
<path d="M87.869 106C93.6661 106 98.3655 101.3 98.3655 95.5034C98.3655 89.7064 93.6661 85.007 87.869 85.007C82.072 85.007 77.3726 89.7064 77.3726 95.5034C77.3726 101.3 82.072 106 87.869 106Z" fill="url(#paint3_linear)"/>
<path d="M24.93 103.516C19.5534 103.516 15.1241 99.4725 14.5092 94.2615C14.4612 94.6693 14.4335 95.083 14.4335 95.5037C14.4335 101.301 19.1331 106 24.93 106C30.7268 106 35.4264 101.301 35.4264 95.5037C35.4264 95.083 35.3987 94.6693 35.3507 94.2615C34.7358 99.4725 30.3066 103.516 24.93 103.516Z" fill="#29297A"/>
<path d="M87.869 103.516C82.4924 103.516 78.0632 99.4725 77.4483 94.2615C77.4003 94.6693 77.3726 95.083 77.3726 95.5037C77.3726 101.301 82.0722 106 87.869 106C93.6659 106 98.3655 101.301 98.3655 95.5037C98.3655 95.083 98.3378 94.6693 98.2898 94.2615C97.6749 99.4725 93.2456 103.516 87.869 103.516Z" fill="#29297A"/>
<path d="M87.869 100.914C90.8572 100.914 93.2796 98.4917 93.2796 95.5035C93.2796 92.5153 90.8572 90.093 87.869 90.093C84.8809 90.093 82.4585 92.5153 82.4585 95.5035C82.4585 98.4917 84.8809 100.914 87.869 100.914Z" fill="#6770E6"/>
<path d="M73.5446 27.9415H4.06822C2.27988 27.9415 0.829834 29.3912 0.829834 31.1799V38.0289C0.829834 39.8173 2.27988 41.2673 4.06822 41.2673H73.5446C75.3329 41.2673 76.783 39.8173 76.783 38.0289V31.1799C76.783 29.3912 75.3329 27.9415 73.5446 27.9415Z" fill="url(#paint4_linear)"/>
<path d="M73.5446 27.9415H4.06822C2.27988 27.9415 0.829834 29.3912 0.829834 31.1799V34.4576C0.829834 32.6693 2.27988 31.2192 4.06822 31.2192H73.5446C75.3329 31.2192 76.783 32.6693 76.783 34.4576V31.1799C76.783 29.3912 75.3329 27.9415 73.5446 27.9415Z" fill="url(#paint5_linear)"/>
<path d="M51.0539 55.1574H26.5588C24.7991 55.1574 23.3722 53.7306 23.3722 51.9708C23.3722 50.211 24.7991 48.7842 26.5588 48.7842H51.0539C52.8137 48.7842 54.2406 50.211 54.2406 51.9708C54.2406 53.731 52.8141 55.1574 51.0539 55.1574Z" fill="url(#paint6_linear)"/>
<path d="M26.5568 4.41275H22.1466V9.92848H26.5568V4.41275Z" fill="#43E8E1"/>
<path d="M41.598 17.851L38.4792 14.7306L41.9114 11.2968C42.169 11.0393 42.5863 11.0393 42.8435 11.2968L45.0301 13.4847C45.2873 13.7423 45.2873 14.1592 45.0301 14.4164L41.598 17.851Z" fill="#43E8E1"/>
<path d="M7.10573 17.851L10.2244 14.7306L6.79228 11.2968C6.53473 11.0393 6.11736 11.0393 5.86023 11.2968L3.67356 13.4847C3.41643 13.7423 3.41643 14.1592 3.67356 14.4164L7.10573 17.851Z" fill="#43E8E1"/>
<path d="M24.3519 55.1573C37.3428 55.1573 47.874 44.6209 47.874 31.6237C47.874 18.6264 37.3428 8.09 24.3519 8.09C11.361 8.09 0.829834 18.6264 0.829834 31.6237C0.829834 44.6209 11.361 55.1573 24.3519 55.1573Z" fill="#43E8E1"/>
<path d="M24.352 50.9289C35.0085 50.9289 43.6473 42.2856 43.6473 31.6236C43.6473 20.9616 35.0085 12.3184 24.352 12.3184C13.6954 12.3184 5.05664 20.9616 5.05664 31.6236C5.05664 42.2856 13.6954 50.9289 24.352 50.9289Z" fill="#F6F9FC"/>
<path d="M28.4706 4.41266H20.2328C19.8688 4.41266 19.5736 4.11744 19.5736 3.75348V0.659187C19.574 0.295227 19.8688 0 20.2328 0H28.4706C28.8345 0 29.1298 0.295227 29.1298 0.659187V3.75389C29.1298 4.11744 28.8345 4.41266 28.4706 4.41266Z" fill="#43E8E1"/>
<path d="M28.4709 0H20.2327C19.8688 0 19.574 0.295227 19.574 0.659187V2.81397C19.574 2.45001 19.8688 2.15478 20.2327 2.15478H28.4709C28.8349 2.15478 29.1297 2.45001 29.1297 2.81397V0.659187C29.1297 0.295227 28.8349 0 28.4709 0Z" fill="#A1F1FC"/>
<path d="M24.3519 31.6237V15.091C15.2256 15.091 7.82751 22.4928 7.82751 31.6237C7.82751 40.7546 15.226 48.1564 24.3519 48.1564C28.9165 48.1564 33.0489 46.3047 36.0392 43.311L24.3519 31.6237Z" fill="#43E8E1"/>
<defs>
<linearGradient id="paint0_linear" x1="2.17206" y1="64.6099" x2="35.0929" y2="110.051" gradientUnits="userSpaceOnUse">
<stop stop-color="#42B2F1"/>
<stop offset="1" stop-color="#2A54D3"/>
</linearGradient>
<linearGradient id="paint1_linear" x1="63.4314" y1="90.6801" x2="102.173" y2="101.084" gradientUnits="userSpaceOnUse">
<stop stop-color="#26259E"/>
<stop offset="1" stop-color="#5F50CC"/>
</linearGradient>
<linearGradient id="paint2_linear" x1="8.6819" y1="103.776" x2="31.3564" y2="111.916" gradientUnits="userSpaceOnUse">
<stop stop-color="#26259E"/>
<stop offset="1" stop-color="#5F50CC"/>
</linearGradient>
<linearGradient id="paint3_linear" x1="71.621" y1="103.776" x2="94.2955" y2="111.916" gradientUnits="userSpaceOnUse">
<stop stop-color="#26259E"/>
<stop offset="1" stop-color="#5F50CC"/>
</linearGradient>
<linearGradient id="paint4_linear" x1="-2.16264" y1="33.6768" x2="0.480199" y2="50.2809" gradientUnits="userSpaceOnUse">
<stop stop-color="#42B2F1"/>
<stop offset="1" stop-color="#2A54D3"/>
</linearGradient>
<linearGradient id="paint5_linear" x1="-2.16264" y1="30.746" x2="-1.51861" y2="39.0207" gradientUnits="userSpaceOnUse">
<stop stop-color="#42B2F1"/>
<stop offset="1" stop-color="#2A54D3"/>
</linearGradient>
<linearGradient id="paint6_linear" x1="22.156" y1="51.5272" x2="23.6294" y2="59.3935" gradientUnits="userSpaceOnUse">
<stop stop-color="#42B2F1"/>
<stop offset="1" stop-color="#2A54D3"/>
</linearGradient>
</defs>
</svg>
