<svg width="107" height="106" viewBox="0 0 107 106" fill="none" xmlns="http://www.w3.org/2000/svg">
<path d="M54.9556 16.5783C54.9556 14.3163 56.7895 12.4824 59.0515 12.4824H65.2649C61.3744 11.2986 57.269 10.6585 53.046 10.6585C36.7439 10.6585 21.7263 20.1948 14.7866 34.9536C13.9108 36.816 14.7108 39.0358 16.5733 39.9116C18.4349 40.7869 20.6555 39.9874 21.5312 38.1249C27.2478 25.9672 39.6183 18.1116 53.046 18.1116C53.6861 18.1116 54.3217 18.1356 54.9552 18.1704V16.5783H54.9556Z" fill="#43E8E1"/>
<path d="M59.0516 12.4824H65.4973C61.5206 11.241 57.3146 10.5732 52.9864 10.5732C40.097 10.5732 28.0147 16.5385 20.0891 26.3295L20.5094 28.7132C28.4383 19.2275 40.3239 13.4712 52.9864 13.4712C54.0799 13.4712 55.1644 13.5204 56.2409 13.6041C56.9742 12.9105 57.9618 12.4824 59.0516 12.4824Z" fill="#60F2EC"/>
<path d="M102.011 48.4455H59.0516C56.7896 48.4455 54.9557 46.6116 54.9557 44.3496V16.5784C54.9557 14.3164 56.7896 12.4825 59.0516 12.4825H102.011C104.273 12.4825 106.106 14.3164 106.106 16.5784V44.3496C106.106 46.6116 104.273 48.4455 102.011 48.4455Z" fill="#6770E6"/>
<path d="M18.131 40.1577C17.3716 40.1577 16.6242 39.9255 15.9936 39.4841C15.1837 38.9172 14.6326 38.0518 14.4612 37.0784L11.7495 21.6997C11.3922 19.6728 12.7453 17.74 14.7721 17.3827C16.799 17.0257 18.7318 18.3785 19.0892 20.4053L21.1537 32.1142L32.8625 30.0497C34.8894 29.6931 36.8222 31.0455 37.1796 33.0723C37.5369 35.0991 36.1837 37.032 34.1569 37.3893L18.7782 40.101C18.5629 40.1391 18.3467 40.1577 18.131 40.1577Z" fill="#43E8E1"/>
<path d="M14.7307 37.989C14.734 37.9815 14.7369 37.9741 14.7398 37.9662C14.6777 37.8287 14.623 37.6875 14.5779 37.5426C14.6205 37.6941 14.6694 37.844 14.7307 37.989Z" fill="#FFAC8C"/>
<path d="M14.4285 36.8928L14.4612 37.0783C14.4632 37.0895 14.4666 37.0999 14.4686 37.1106L14.4285 36.8928Z" fill="#FFAC8C"/>
<path d="M15.3204 20.2807C16.9998 19.9975 18.6146 20.7941 19.3964 22.1485L19.0891 20.4049C18.7318 18.3781 16.7986 17.0253 14.7721 17.3823C12.7453 17.7396 11.3917 19.6724 11.7495 21.6993L12.1139 23.7667C12.2004 22.0674 13.4976 20.5888 15.3204 20.2807Z" fill="#60F2EC"/>
<path d="M89.6391 66.0886C87.7771 65.2133 85.5565 66.0124 84.6812 67.8753C78.9646 80.033 66.5945 87.8886 53.1664 87.8886C52.5263 87.8886 51.8907 87.8646 51.2572 87.8298V95.2974C51.8907 95.326 52.5271 95.3417 53.1664 95.3417C69.4685 95.3417 84.4861 85.8054 91.4258 71.0466C92.3016 69.1841 91.5016 66.9643 89.6391 66.0886Z" fill="#43E8E1"/>
<path d="M53.1664 92.4433C52.5271 92.4433 51.8907 92.4271 51.2572 92.3986V95.2974C51.8907 95.326 52.5271 95.3417 53.1664 95.3417C66.0558 95.3417 78.1381 89.3763 86.0637 79.5854L85.6434 77.2016C77.7146 86.6874 65.8293 92.4433 53.1664 92.4433Z" fill="#60F2EC"/>
<path d="M90.789 88.6746C89.0147 88.6746 87.4421 87.4026 87.1233 85.5948L85.0588 73.8864L73.3503 75.9509C71.3239 76.3091 69.3906 74.9551 69.0333 72.9282C68.676 70.9014 70.0291 68.9686 72.056 68.6112L87.4347 65.8995C89.4615 65.5426 91.3943 66.8953 91.7517 68.9222L94.4634 84.3009C94.8207 86.3277 93.4675 88.2606 91.4407 88.6179C91.2217 88.656 91.0039 88.6746 90.789 88.6746Z" fill="#43E8E1"/>
<path d="M94.4634 84.3004L94.2854 83.29C93.8113 84.5144 92.6527 85.4771 91.1551 85.7189C90.9157 85.7574 90.6777 85.7761 90.4429 85.7761C88.879 85.7761 87.4596 84.9475 86.7859 83.6784L87.1238 85.5943C87.4426 87.4021 89.0148 88.6741 90.7895 88.6741C91.0044 88.6741 91.2222 88.6555 91.4412 88.617C93.4676 88.26 94.8208 86.3272 94.4634 84.3004Z" fill="#60F2EC"/>
<path d="M102.011 48.4455H59.0516C56.7896 48.4455 54.9557 46.6116 54.9557 44.3496V16.5784C54.9557 14.3164 56.7896 12.4825 59.0516 12.4825H102.011C104.273 12.4825 106.106 14.3164 106.106 16.5784V44.3496C106.106 46.6116 104.273 48.4455 102.011 48.4455Z" fill="url(#paint0_linear)"/>
<path d="M102.011 12.4825H59.0516C56.7896 12.4825 54.9557 14.3164 54.9557 16.5784V18.4529C54.9557 16.1909 56.7896 14.357 59.0516 14.357H102.011C104.273 14.357 106.106 16.1909 106.106 18.4529V16.5784C106.106 14.3164 104.273 12.4825 102.011 12.4825Z" fill="url(#paint1_linear)"/>
<path d="M97.2902 43.657H63.7719C60.9943 43.657 58.7427 41.4054 58.7427 38.6278V27.9007C58.7427 26.9852 59.4847 26.2432 60.4002 26.2432H100.662C101.578 26.2432 102.32 26.9852 102.32 27.9007V38.6278C102.319 41.4054 100.068 43.657 97.2902 43.657Z" fill="#F6F9FC"/>
<path d="M67.3407 20.3423C65.2555 20.3423 63.5653 18.6521 63.5653 16.5668V12.3981C63.5653 11.673 64.1529 11.0855 64.8779 11.0855H69.804C70.529 11.0855 71.1166 11.673 71.1166 12.3981V16.5664C71.1162 18.6516 69.4259 20.3423 67.3407 20.3423Z" fill="url(#paint2_linear)"/>
<path d="M93.7215 20.3423C91.6363 20.3423 89.946 18.6521 89.946 16.5668V12.3981C89.946 11.673 90.5336 11.0855 91.2586 11.0855H96.1847C96.9097 11.0855 97.4973 11.673 97.4973 12.3981V16.5664C97.4969 18.6516 95.8067 20.3423 93.7215 20.3423Z" fill="url(#paint3_linear)"/>
<path d="M95.4584 11.0857H91.984C91.984 6.88876 88.5697 3.4744 84.3727 3.4744H76.689C72.492 3.4744 69.0777 6.88876 69.0777 11.0857H65.6033C65.6037 4.97289 70.5766 0 76.689 0H84.3727C90.4855 0 95.4584 4.97289 95.4584 11.0857Z" fill="url(#paint4_linear)"/>
<path d="M76.689 1.87446H84.3727C89.8462 1.87446 94.403 5.86271 95.2969 11.0857H95.4588C95.4584 4.97289 90.4855 0 84.3727 0H76.689C70.5762 0 65.6033 4.97289 65.6033 11.0857H65.7652C66.6587 5.86313 71.2155 1.87446 76.689 1.87446Z" fill="url(#paint5_linear)"/>
<path d="M96.9785 34.6897H64.0837C61.1339 34.6897 58.7427 32.2985 58.7427 29.3487V27.9835C58.7427 27.0225 59.5219 26.2432 60.483 26.2432H100.58C101.541 26.2432 102.32 27.0225 102.32 27.9835V29.3487C102.319 32.2985 99.9282 34.6897 96.9785 34.6897Z" fill="#43E8E1"/>
<path d="M83.6804 36.792H77.3817C76.8322 36.792 76.3867 36.3464 76.3867 35.797V33.3929C76.3867 32.8435 76.8322 32.3979 77.3817 32.3979H83.6804C84.2299 32.3979 84.6754 32.8435 84.6754 33.3929V35.797C84.6754 36.3464 84.2299 36.792 83.6804 36.792Z" fill="#43E8E1"/>
<path d="M47.1613 106H4.20235C1.94033 106 0.106445 104.166 0.106445 101.904V74.1331C0.106445 71.8711 1.94033 70.0372 4.20235 70.0372H47.1613C49.4234 70.0372 51.2572 71.8711 51.2572 74.1331V101.904C51.2572 104.166 49.4234 106 47.1613 106Z" fill="url(#paint6_linear)"/>
<path d="M47.1613 70.0372H4.20235C1.94033 70.0372 0.106445 71.8711 0.106445 74.1331V76.0076C0.106445 73.7456 1.94033 71.9117 4.20235 71.9117H47.1613C49.4234 71.9117 51.2572 73.7456 51.2572 76.0076V74.1331C51.2572 71.8711 49.4234 70.0372 47.1613 70.0372Z" fill="url(#paint7_linear)"/>
<path d="M42.441 101.212H8.92264C6.1451 101.212 3.89343 98.96 3.89343 96.1825V85.4554C3.89343 84.5399 4.63543 83.7979 5.55092 83.7979H45.8131C46.7286 83.7979 47.4706 84.5399 47.4706 85.4554V96.1825C47.4702 98.96 45.2185 101.212 42.441 101.212Z" fill="#F6F9FC"/>
<path d="M12.4915 77.8969C10.4063 77.8969 8.71606 76.2067 8.71606 74.1215V69.9531C8.71606 69.2281 9.30362 68.6406 10.0286 68.6406H14.9547C15.6798 68.6406 16.2673 69.2281 16.2673 69.9531V74.1215C16.2673 76.2063 14.5767 77.8969 12.4915 77.8969Z" fill="url(#paint8_linear)"/>
<path d="M38.8722 77.8969C36.787 77.8969 35.0968 76.2067 35.0968 74.1215V69.9531C35.0968 69.2281 35.6844 68.6406 36.4094 68.6406H41.3355C42.0605 68.6406 42.6481 69.2281 42.6481 69.9531V74.1215C42.6476 76.2063 40.9574 77.8969 38.8722 77.8969Z" fill="url(#paint9_linear)"/>
<path d="M40.6097 68.6404H37.1353C37.1353 64.4434 33.7209 61.0291 29.524 61.0291H21.8402C17.6433 61.0291 14.2289 64.4434 14.2289 68.6404H10.7545C10.7545 62.5276 15.7274 57.5547 21.8402 57.5547H29.524C35.6364 57.5547 40.6097 62.5276 40.6097 68.6404Z" fill="url(#paint10_linear)"/>
<path d="M21.8402 59.4291H29.524C34.9975 59.4291 39.5542 63.4174 40.4482 68.6404H40.6101C40.6097 62.5276 35.6364 57.5547 29.524 57.5547H21.8402C15.7274 57.5547 10.7545 62.5276 10.7545 68.6404H10.9164C11.81 63.4178 16.3667 59.4291 21.8402 59.4291Z" fill="url(#paint11_linear)"/>
<path d="M42.1292 92.2444H9.23443C6.28464 92.2444 3.89343 89.8532 3.89343 86.9034V85.5382C3.89343 84.5772 4.6727 83.7979 5.63374 83.7979H45.7303C46.6913 83.7979 47.4706 84.5772 47.4706 85.5382V86.9034C47.4702 89.8532 45.079 92.2444 42.1292 92.2444Z" fill="#43E8E1"/>
<path d="M28.8312 94.3467H22.5325C21.983 94.3467 21.5375 93.9011 21.5375 93.3517V90.9476C21.5375 90.3982 21.983 89.9526 22.5325 89.9526H28.8312C29.3806 89.9526 29.8262 90.3982 29.8262 90.9476V93.3517C29.8262 93.9011 29.3806 94.3467 28.8312 94.3467Z" fill="#43E8E1"/>
<defs>
<linearGradient id="paint0_linear" x1="40.9416" y1="44.6364" x2="90.4119" y2="69.8963" gradientUnits="userSpaceOnUse">
<stop stop-color="#26259E"/>
<stop offset="1" stop-color="#5F50CC"/>
</linearGradient>
<linearGradient id="paint1_linear" x1="40.9416" y1="17.8205" x2="46.9042" y2="36.1597" gradientUnits="userSpaceOnUse">
<stop stop-color="#26259E"/>
<stop offset="1" stop-color="#5F50CC"/>
</linearGradient>
<linearGradient id="paint2_linear" x1="61.4964" y1="19.3618" x2="69.9764" y2="21.8452" gradientUnits="userSpaceOnUse">
<stop stop-color="#26259E"/>
<stop offset="1" stop-color="#5F50CC"/>
</linearGradient>
<linearGradient id="paint3_linear" x1="87.8772" y1="19.3618" x2="96.3572" y2="21.8452" gradientUnits="userSpaceOnUse">
<stop stop-color="#26259E"/>
<stop offset="1" stop-color="#5F50CC"/>
</linearGradient>
<linearGradient id="paint4_linear" x1="57.4237" y1="9.91151" x2="76.2387" y2="28.1024" gradientUnits="userSpaceOnUse">
<stop stop-color="#26259E"/>
<stop offset="1" stop-color="#5F50CC"/>
</linearGradient>
<linearGradient id="paint5_linear" x1="57.4236" y1="9.91151" x2="76.2386" y2="28.1026" gradientUnits="userSpaceOnUse">
<stop stop-color="#26259E"/>
<stop offset="1" stop-color="#5F50CC"/>
</linearGradient>
<linearGradient id="paint6_linear" x1="-1.90884" y1="85.5153" x2="18.9222" y2="118.174" gradientUnits="userSpaceOnUse">
<stop stop-color="#42B2F1"/>
<stop offset="1" stop-color="#2A54D3"/>
</linearGradient>
<linearGradient id="paint7_linear" x1="-1.90884" y1="72.6068" x2="-1.1101" y2="80.1498" gradientUnits="userSpaceOnUse">
<stop stop-color="#42B2F1"/>
<stop offset="1" stop-color="#2A54D3"/>
</linearGradient>
<linearGradient id="paint8_linear" x1="8.41855" y1="72.6244" x2="14.2982" y2="77.9116" gradientUnits="userSpaceOnUse">
<stop stop-color="#42B2F1"/>
<stop offset="1" stop-color="#2A54D3"/>
</linearGradient>
<linearGradient id="paint9_linear" x1="34.7993" y1="72.6244" x2="40.679" y2="77.9116" gradientUnits="userSpaceOnUse">
<stop stop-color="#42B2F1"/>
<stop offset="1" stop-color="#2A54D3"/>
</linearGradient>
<linearGradient id="paint10_linear" x1="9.57826" y1="62.3259" x2="13.863" y2="75.0453" gradientUnits="userSpaceOnUse">
<stop stop-color="#42B2F1"/>
<stop offset="1" stop-color="#2A54D3"/>
</linearGradient>
<linearGradient id="paint11_linear" x1="9.57824" y1="62.3259" x2="13.8629" y2="75.0454" gradientUnits="userSpaceOnUse">
<stop stop-color="#42B2F1"/>
<stop offset="1" stop-color="#2A54D3"/>
</linearGradient>
</defs>
</svg>
