<svg width="116" height="116" viewBox="0 0 116 116" fill="none" xmlns="http://www.w3.org/2000/svg">
<g filter="url(#filter0_d)">
<path d="M11.1023 0C7.17883 0 4 3.17883 4 7.10226V19.5484H18.2045V7.10226C18.2045 3.17883 15.0236 0 11.1023 0Z" fill="#43E8E1"/>
<path d="M90.453 0H18.2036H11.1013C15.0243 0 18.2036 3.17967 18.2036 7.10226V108H97.5553V7.10226C97.5557 3.17967 94.3735 0 90.453 0Z" fill="url(#paint0_linear)"/>
<path d="M97.5553 103.781H18.2036V108H97.5553V103.781Z" fill="url(#paint1_linear)"/>
<path d="M90.453 0H18.204H11.1013C13.9971 0 16.4861 1.73348 17.5919 4.21875H18.2036H90.453C94.3735 4.21875 97.5553 7.39842 97.5553 11.321V7.10226C97.5557 3.17967 94.3735 0 90.453 0Z" fill="#FFF7F2"/>
<path d="M56.7993 16.6037H33.3945C31.9357 16.6037 30.7532 15.4212 30.7532 13.9624C30.7532 12.5035 31.9357 11.321 33.3945 11.321H56.7993C58.2582 11.321 59.4407 12.5035 59.4407 13.9624C59.4407 15.4212 58.2582 16.6037 56.7993 16.6037Z" fill="#43E8E1"/>
<path d="M49.3161 26.8124H32.6934C31.6218 26.8124 30.7532 25.9438 30.7532 24.8722C30.7532 23.8007 31.6218 22.932 32.6934 22.932H49.3157C50.3872 22.932 51.2559 23.8007 51.2559 24.8722C51.2563 25.9438 50.3877 26.8124 49.3161 26.8124Z" fill="white"/>
<path d="M57.7536 36.9803H32.6934C31.6218 36.9803 30.7532 36.1116 30.7532 35.0401C30.7532 33.9685 31.6218 33.0999 32.6934 33.0999H57.7532C58.8247 33.0999 59.6934 33.9685 59.6934 35.0401C59.6938 36.1112 58.8252 36.9803 57.7536 36.9803Z" fill="white"/>
<path d="M70.9418 88.0156H32.6934C31.6218 88.0156 30.7532 87.147 30.7532 86.0754C30.7532 85.0039 31.6218 84.1352 32.6934 84.1352H70.9414C72.013 84.1352 72.8816 85.0039 72.8816 86.0754C72.882 87.147 72.0134 88.0156 70.9418 88.0156Z" fill="white"/>
<path d="M49.3161 98.1835H32.6934C31.6218 98.1835 30.7532 97.3148 30.7532 96.2433C30.7532 95.1717 31.6218 94.3031 32.6934 94.3031H49.3157C50.3872 94.3031 51.2559 95.1717 51.2559 96.2433C51.2563 97.3148 50.3877 98.1835 49.3161 98.1835Z" fill="white"/>
<path d="M85.4282 47.3578H30.7532V45.4176C30.7532 44.3461 31.6218 43.4774 32.6934 43.4774H83.4875C84.5591 43.4774 85.4277 44.3461 85.4277 45.4176V47.3578H85.4282Z" fill="#43E8E1"/>
<path d="M30.7532 47.3579V74.6566V76.5968C30.7532 77.6684 31.6218 78.537 32.6934 78.537H83.4875C84.5591 78.537 85.4277 77.6684 85.4277 76.5968V74.6566V47.3579H30.7532Z" fill="white"/>
<path d="M95.5469 32.9062C104.634 32.9062 112 25.5399 112 16.4531C112 7.36631 104.634 0 95.5469 0C86.4601 0 79.0938 7.36631 79.0938 16.4531C79.0938 25.5399 86.4601 32.9062 95.5469 32.9062Z" fill="url(#paint2_linear)"/>
<path d="M95.5178 1.67909C104.334 1.66348 111.542 8.5856 111.978 17.2969C111.993 17.0079 112 16.7172 112 16.4245C111.984 7.33727 104.605 -0.0160051 95.5178 2.61631e-05C86.431 0.0160574 79.0777 7.39549 79.0938 16.4823C79.0942 16.7527 79.1022 17.0214 79.1157 17.2885C79.554 8.6067 86.7238 1.6947 95.5178 1.67909Z" fill="url(#paint3_linear)"/>
<path d="M93.6135 24.0834C92.9626 24.0834 92.3074 23.8721 91.7577 23.4375L88.0663 20.5186C86.769 19.4926 86.5488 17.6093 87.5748 16.3121C88.6004 15.0148 90.4836 14.7946 91.7813 15.8206L93.1579 16.909L98.8481 9.92529C99.8931 8.64321 101.779 8.45084 103.061 9.4954C104.343 10.54 104.536 12.4266 103.491 13.7087L95.9368 22.9802C95.3457 23.7058 94.4834 24.0834 93.6135 24.0834Z" fill="#FFF7F2"/>
</g>
<defs>
<filter id="filter0_d" x="0" y="0" width="116" height="116" filterUnits="userSpaceOnUse" color-interpolation-filters="sRGB">
<feFlood flood-opacity="0" result="BackgroundImageFix"/>
<feColorMatrix in="SourceAlpha" type="matrix" values="0 0 0 0 0 0 0 0 0 0 0 0 0 0 0 0 0 0 127 0"/>
<feOffset dy="4"/>
<feGaussianBlur stdDeviation="2"/>
<feColorMatrix type="matrix" values="0 0 0 0 0 0 0 0 0 0 0 0 0 0 0 0 0 0 0.25 0"/>
<feBlend mode="normal" in2="BackgroundImageFix" result="effect1_dropShadow"/>
<feBlend mode="normal" in="SourceGraphic" in2="effect1_dropShadow" result="shape"/>
</filter>
<linearGradient id="paint0_linear" x1="7.69512" y1="46.4821" x2="76.1476" y2="106.883" gradientUnits="userSpaceOnUse">
<stop stop-color="#42B2F1"/>
<stop offset="1" stop-color="#2A54D3"/>
</linearGradient>
<linearGradient id="paint1_linear" x1="15.0772" y1="105.597" x2="15.3366" y2="110.974" gradientUnits="userSpaceOnUse">
<stop stop-color="#42B2F1"/>
<stop offset="1" stop-color="#2A54D3"/>
</linearGradient>
<linearGradient id="paint2_linear" x1="70.0782" y1="29.4208" x2="105.62" y2="42.1804" gradientUnits="userSpaceOnUse">
<stop stop-color="#26259E"/>
<stop offset="1" stop-color="#5F50CC"/>
</linearGradient>
<linearGradient id="paint3_linear" x1="70.0782" y1="15.4648" x2="97.4386" y2="34.1512" gradientUnits="userSpaceOnUse">
<stop stop-color="#26259E"/>
<stop offset="1" stop-color="#5F50CC"/>
</linearGradient>
</defs>
</svg>
