<svg width="108" height="108" viewBox="0 0 108 108" fill="none" xmlns="http://www.w3.org/2000/svg">
<path d="M104.985 83.3415H3.0017C1.34393 83.3415 0 81.9976 0 80.3398V3.0017C0 1.34393 1.34393 0 3.0017 0H104.985C106.643 0 107.987 1.34393 107.987 3.0017V80.3398C107.987 81.9976 106.643 83.3415 104.985 83.3415Z" fill="url(#paint0_linear)"/>
<path d="M104.985 0H3.0017C1.34393 0 0 1.34393 0 3.0017V5.95447C0 4.2967 1.34393 2.95277 3.0017 2.95277H104.985C106.643 2.95277 107.987 4.2967 107.987 5.95447V3.0017C107.987 1.34393 106.643 0 104.985 0Z" fill="url(#paint1_linear)"/>
<path d="M6.32739 74.0125V10.3752C6.32739 8.13952 8.13955 6.32737 10.3752 6.32737H97.6119C99.8476 6.32737 101.66 8.13952 101.66 10.3752V74.0125C101.66 75.6702 100.316 77.0142 98.658 77.0142H9.3291C7.67133 77.0142 6.32739 75.6702 6.32739 74.0125Z" fill="url(#paint2_linear)"/>
<path d="M81.5391 74.104H24.8037C22.8953 74.104 21.3485 72.5572 21.3485 70.6488C21.3485 68.7405 22.8953 67.1937 24.8037 67.1937H81.5391C83.4474 67.1937 84.9942 68.7405 84.9942 70.6488C84.9942 72.5572 83.4474 74.104 81.5391 74.104Z" fill="url(#paint3_linear)"/>
<path d="M27.2018 33.5851V70.7002H45.0631V33.5851C45.0631 32.6373 44.295 31.8692 43.3471 31.8692H28.9178C27.9699 31.8692 27.2018 32.6373 27.2018 33.5851Z" fill="url(#paint4_linear)"/>
<path d="M45.0631 43.3868V70.7004H62.9244V43.3868C62.9244 42.439 62.1563 41.6708 61.2084 41.6708H46.7791C45.8313 41.6708 45.0631 42.439 45.0631 43.3868Z" fill="url(#paint5_linear)"/>
<path d="M62.924 70.6998H80.7853V25.5009C80.7853 24.553 80.0171 23.7849 79.0693 23.7849H64.6399C63.6921 23.7849 62.924 24.553 62.924 25.5009V70.6998Z" fill="#43E8E1"/>
<path d="M67.1063 83.3416H41.397V99.5545H67.1063V83.3416Z" fill="#5861C7"/>
<path d="M79.2629 107.987H29.3607C27.0322 107.987 25.1445 106.099 25.1445 103.771C25.1445 101.442 27.0322 99.5547 29.3607 99.5547H79.2629C81.5914 99.5547 83.479 101.442 83.479 103.771C83.479 106.099 81.5914 107.987 79.2629 107.987Z" fill="#6770E6"/>
<path d="M79.263 105.034H29.3607C27.5524 105.034 26.0144 103.894 25.4154 102.294C25.2429 102.755 25.1442 103.251 25.1442 103.771C25.1442 106.099 27.0318 107.987 29.3603 107.987H79.2626C81.591 107.987 83.4787 106.099 83.4787 103.771C83.4787 103.251 83.38 102.755 83.2075 102.294C82.6093 103.894 81.0713 105.034 79.263 105.034Z" fill="#5861C7"/>
<path d="M97.6119 6.32737H10.3752C8.13955 6.32737 6.32739 8.13952 6.32739 10.3752V15.6691H101.66V10.3752C101.66 8.13952 99.8476 6.32737 97.6119 6.32737Z" fill="#43E8E1"/>
<path d="M12.8353 13.2877C14.0999 13.2877 15.125 12.2626 15.125 10.998C15.125 9.73349 14.0999 8.70837 12.8353 8.70837C11.5708 8.70837 10.5457 9.73349 10.5457 10.998C10.5457 12.2626 11.5708 13.2877 12.8353 13.2877Z" fill="white"/>
<path d="M21.6333 13.2877C22.8978 13.2877 23.923 12.2626 23.923 10.998C23.923 9.73349 22.8978 8.70837 21.6333 8.70837C20.3687 8.70837 19.3436 9.73349 19.3436 10.998C19.3436 12.2626 20.3687 13.2877 21.6333 13.2877Z" fill="white"/>
<path d="M106.495 106.501C104.514 108.482 101.302 108.482 99.3202 106.501L78.3273 85.5081L85.5025 78.3329L106.496 99.3262C108.477 101.307 108.477 104.52 106.495 106.501Z" fill="url(#paint6_linear)"/>
<path d="M86.3377 93.5187L99.3202 106.501C101.302 108.482 104.514 108.482 106.495 106.501C108.477 104.52 108.477 101.307 106.496 99.3262L93.5129 86.3434L86.3377 93.5187Z" fill="url(#paint7_linear)"/>
<path d="M30.2064 13.2877C31.471 13.2877 32.4961 12.2626 32.4961 10.998C32.4961 9.73349 31.471 8.70837 30.2064 8.70837C28.9419 8.70837 27.9167 9.73349 27.9167 10.998C27.9167 12.2626 28.9419 13.2877 30.2064 13.2877Z" fill="white"/>
<path d="M69.995 92.3348C82.3299 92.3348 92.3293 82.3354 92.3293 70.0005C92.3293 57.6656 82.3299 47.6662 69.995 47.6662C57.6601 47.6662 47.6606 57.6656 47.6606 70.0005C47.6606 82.3354 57.6601 92.3348 69.995 92.3348Z" fill="url(#paint8_linear)"/>
<path d="M69.9951 85.7931C78.7171 85.7931 85.7878 78.7225 85.7878 70.0004C85.7878 61.2784 78.7171 54.2077 69.9951 54.2077C61.273 54.2077 54.2024 61.2784 54.2024 70.0004C54.2024 78.7225 61.273 85.7931 69.9951 85.7931Z" fill="#43E8E1"/>
<path d="M107.517 100.804C107.273 101.339 106.936 101.842 106.496 102.283C105.508 103.27 104.214 103.765 102.92 103.768V103.769H96.5881L99.3203 106.501C101.302 108.482 104.514 108.482 106.496 106.501C108.036 104.96 108.373 102.676 107.517 100.804Z" fill="url(#paint9_linear)"/>
<defs>
<linearGradient id="paint0_linear" x1="-29.5857" y1="74.5141" x2="78.661" y2="124.866" gradientUnits="userSpaceOnUse">
<stop stop-color="#26259E"/>
<stop offset="1" stop-color="#5F50CC"/>
</linearGradient>
<linearGradient id="paint1_linear" x1="-29.5859" y1="5.32378" x2="-26.5512" y2="25.0815" gradientUnits="userSpaceOnUse">
<stop stop-color="#26259E"/>
<stop offset="1" stop-color="#5F50CC"/>
</linearGradient>
<linearGradient id="paint2_linear" x1="2.5714" y1="36.7502" x2="44.3947" y2="98.9245" gradientUnits="userSpaceOnUse">
<stop stop-color="#42B2F1"/>
<stop offset="1" stop-color="#2A54D3"/>
</linearGradient>
<linearGradient id="paint3_linear" x1="3.91112" y1="73.3721" x2="10.4146" y2="94.8754" gradientUnits="userSpaceOnUse">
<stop stop-color="#26259E"/>
<stop offset="1" stop-color="#5F50CC"/>
</linearGradient>
<linearGradient id="paint4_linear" x1="22.3082" y1="66.5873" x2="43.5085" y2="70.0881" gradientUnits="userSpaceOnUse">
<stop stop-color="#26259E"/>
<stop offset="1" stop-color="#5F50CC"/>
</linearGradient>
<linearGradient id="paint5_linear" x1="40.1695" y1="67.6256" x2="60.9347" y2="72.2123" gradientUnits="userSpaceOnUse">
<stop stop-color="#26259E"/>
<stop offset="1" stop-color="#5F50CC"/>
</linearGradient>
<linearGradient id="paint6_linear" x1="77.1589" y1="91.0957" x2="96.0122" y2="111.877" gradientUnits="userSpaceOnUse">
<stop stop-color="#42B2F1"/>
<stop offset="1" stop-color="#2A54D3"/>
</linearGradient>
<linearGradient id="paint7_linear" x1="77.1589" y1="91.0957" x2="96.0122" y2="111.877" gradientUnits="userSpaceOnUse">
<stop stop-color="#42B2F1"/>
<stop offset="1" stop-color="#2A54D3"/>
</linearGradient>
<linearGradient id="paint8_linear" x1="45.9007" y1="66.8911" x2="74.2998" y2="98.1948" gradientUnits="userSpaceOnUse">
<stop stop-color="#42B2F1"/>
<stop offset="1" stop-color="#2A54D3"/>
</linearGradient>
<linearGradient id="paint9_linear" x1="96.1394" y1="103.895" x2="100.095" y2="110.809" gradientUnits="userSpaceOnUse">
<stop stop-color="#42B2F1"/>
<stop offset="1" stop-color="#2A54D3"/>
</linearGradient>
</defs>
</svg>
