<svg width="109" height="108" viewBox="0 0 109 108" fill="none" xmlns="http://www.w3.org/2000/svg">
<path d="M97.2804 108H11.2728C5.19989 108 0.276611 103.077 0.276611 97.0038V10.9962C0.276611 4.92328 5.19989 0 11.2728 0H97.2804C103.353 0 108.277 4.92328 108.277 10.9962V97.0038C108.277 103.077 103.353 108 97.2804 108Z" fill="url(#paint0_linear)"/>
<path d="M97.2804 105.047H11.2728C5.19989 105.047 0.276611 100.123 0.276611 94.0505V97.0036C0.276611 103.077 5.19989 108 11.2728 108H97.2804C103.353 108 108.277 103.077 108.277 97.0036V94.0505C108.277 100.123 103.353 105.047 97.2804 105.047Z" fill="#5861C7"/>
<path d="M97.2804 0H11.2728C5.19989 0 0.276611 4.92328 0.276611 10.9962V16.875H108.277V10.9962C108.277 4.92328 103.353 0 97.2804 0Z" fill="url(#paint1_linear)"/>
<path d="M97.2804 0H11.2728C5.19989 0 0.276611 4.92328 0.276611 10.9962V13.9493C0.276611 7.87641 5.19989 2.95312 11.2728 2.95312H97.2804C103.353 2.95312 108.277 7.87641 108.277 13.9493V10.9962C108.277 4.92328 103.353 0 97.2804 0Z" fill="url(#paint2_linear)"/>
<path d="M15.0422 12.2344C17.1392 12.2344 18.8391 10.5345 18.8391 8.4375C18.8391 6.34054 17.1392 4.64062 15.0422 4.64062C12.9453 4.64062 11.2454 6.34054 11.2454 8.4375C11.2454 10.5345 12.9453 12.2344 15.0422 12.2344Z" fill="#43E8E1"/>
<path d="M29.175 12.2344C31.272 12.2344 32.9719 10.5345 32.9719 8.4375C32.9719 6.34054 31.272 4.64062 29.175 4.64062C27.0781 4.64062 25.3782 6.34054 25.3782 8.4375C25.3782 10.5345 27.0781 12.2344 29.175 12.2344Z" fill="#43E8E1"/>
<path d="M43.3079 12.2344C45.4048 12.2344 47.1047 10.5345 47.1047 8.4375C47.1047 6.34054 45.4048 4.64062 43.3079 4.64062C41.2109 4.64062 39.511 6.34054 39.511 8.4375C39.511 10.5345 41.2109 12.2344 43.3079 12.2344Z" fill="#43E8E1"/>
<path d="M14.6204 42.1875H93.9329C95.7967 42.1875 97.3079 43.6987 97.3079 45.5625V92.8125C97.3079 94.6763 95.7967 96.1875 93.9329 96.1875H14.6204C12.7565 96.1875 11.2454 94.6763 11.2454 92.8125V45.5625C11.2454 43.6987 12.7565 42.1875 14.6204 42.1875Z" fill="url(#paint3_linear)"/>
<path d="M47.5266 80.1562H61.0266C62.8905 80.1562 64.4016 81.6674 64.4016 83.5312C64.4016 85.3951 62.8905 86.9062 61.0266 86.9062H47.5266C45.6628 86.9062 44.1516 85.3951 44.1516 83.5312C44.1516 81.6674 45.6628 80.1562 47.5266 80.1562Z" fill="white"/>
<path d="M39.511 72.9844H69.0422C69.9742 72.9844 70.7297 73.74 70.7297 74.6719C70.7297 75.6038 69.9742 76.3594 69.0422 76.3594H39.511C38.5791 76.3594 37.8235 75.6038 37.8235 74.6719C37.8235 73.74 38.5791 72.9844 39.511 72.9844Z" fill="white"/>
<path d="M43.7297 66.2344H64.8235C65.7554 66.2344 66.511 66.99 66.511 67.9219C66.511 68.8538 65.7554 69.6094 64.8235 69.6094H43.7297C42.7978 69.6094 42.0422 68.8538 42.0422 67.9219C42.0422 66.99 42.7978 66.2344 43.7297 66.2344Z" fill="white"/>
<path d="M54.2766 59.0625C63.5964 59.0625 71.1516 51.5073 71.1516 42.1875C71.1516 32.8677 63.5964 25.3125 54.2766 25.3125C44.9568 25.3125 37.4016 32.8677 37.4016 42.1875C37.4016 51.5073 44.9568 59.0625 54.2766 59.0625Z" fill="#43E8E1"/>
<path d="M54.2766 47.1875C58.4188 47.1875 61.7767 43.8296 61.7767 39.6874C61.7767 35.5452 58.4188 32.1873 54.2766 32.1873C50.1344 32.1873 46.7765 35.5452 46.7765 39.6874C46.7765 43.8296 50.1344 47.1875 54.2766 47.1875Z" fill="white"/>
<path d="M54.2766 59.0625C58.5683 59.0625 62.4829 57.4576 65.4609 54.8188C62.9664 51.335 58.8881 49.0623 54.2766 49.0623C49.6651 49.0623 45.5868 51.335 43.0923 54.8188C46.0703 57.4576 49.9849 59.0625 54.2766 59.0625Z" fill="white"/>
<defs>
<linearGradient id="paint0_linear" x1="-29.3128" y1="96.5607" x2="87.3379" y2="138.438" gradientUnits="userSpaceOnUse">
<stop stop-color="#26259E"/>
<stop offset="1" stop-color="#5F50CC"/>
</linearGradient>
<linearGradient id="paint1_linear" x1="-3.97847" y1="7.26283" x2="-0.982619" y2="28.3973" gradientUnits="userSpaceOnUse">
<stop stop-color="#42B2F1"/>
<stop offset="1" stop-color="#2A54D3"/>
</linearGradient>
<linearGradient id="paint2_linear" x1="-3.97847" y1="6.00363" x2="-1.91853" y2="23.5836" gradientUnits="userSpaceOnUse">
<stop stop-color="#42B2F1"/>
<stop offset="1" stop-color="#2A54D3"/>
</linearGradient>
<linearGradient id="paint3_linear" x1="7.85459" y1="65.4285" x2="37.5148" y2="117.534" gradientUnits="userSpaceOnUse">
<stop stop-color="#42B2F1"/>
<stop offset="1" stop-color="#2A54D3"/>
</linearGradient>
</defs>
</svg>
