<svg width="74" height="61" viewBox="0 0 74 61" fill="none" xmlns="http://www.w3.org/2000/svg">
<path d="M2.30189 34.5283H17.2642C18.5359 34.5283 19.566 35.5584 19.566 36.8302V61H0V36.8302C0 35.5584 1.03009 34.5283 2.30189 34.5283Z" fill="url(#paint0_linear)"/>
<path d="M73.6604 24.1698H21.8679C20.5961 24.1698 19.566 25.1999 19.566 26.4717V61H73.6604V24.1698Z" fill="url(#paint1_linear)"/>
<path d="M73.6604 58.6981H19.566V61H73.6604V58.6981Z" fill="#43E8E1"/>
<path d="M19.566 58.6981H0V61H19.566V58.6981Z" fill="url(#paint2_linear)"/>
<path d="M49.0141 7.38206L32.2264 24.1697H52.9434V9.00949C52.9434 6.95966 50.4643 5.93187 49.0141 7.38206Z" fill="url(#paint3_linear)"/>
<path d="M49.0141 7.38206L32.2264 24.1697H34.5283L49.0141 9.68395C50.4643 8.23376 52.9434 9.2604 52.9434 11.3114V9.00949C52.9434 6.95966 50.4643 5.93187 49.0141 7.38206Z" fill="url(#paint4_linear)"/>
<path d="M69.731 7.38206L52.9434 24.1697H73.6603V9.00949C73.6603 6.95966 71.1812 5.93187 69.731 7.38206Z" fill="url(#paint5_linear)"/>
<path d="M21.8679 24.1698C20.5961 24.1698 19.566 25.1999 19.566 26.4717V28.7736C19.566 27.5018 20.5961 26.4717 21.8679 26.4717H32.2264L34.5283 24.1698H21.8679Z" fill="url(#paint6_linear)"/>
<path d="M69.731 7.38206L52.9434 24.1697H55.2452L69.731 9.68395C71.1812 8.23376 73.6603 9.2604 73.6603 11.3114V9.00949C73.6603 6.95966 71.1812 5.93187 69.731 7.38206Z" fill="url(#paint7_linear)"/>
<path d="M40.283 41.434H26.4717V61H40.283V41.434Z" fill="#43E8E1"/>
<path d="M40.283 58.6981H26.4717V61H40.283V58.6981Z" fill="#43E8E1"/>
<path d="M66.7547 41.434H43.7358V50.6415H66.7547V41.434Z" fill="#43E8E1"/>
<path d="M73.6604 29.9245H19.566V33.3774H73.6604V29.9245Z" fill="#D476E2"/>
<path d="M13.8113 25.3207H5.75471L2.30188 34.5283H17.2641L13.8113 25.3207Z" fill="#42B2F2"/>
<path d="M13.8114 2.30188H5.75476V8.0566H13.8114V2.30188Z" fill="#42B2F2"/>
<path d="M5.7547 2.30189H13.8113C14.4466 2.30189 14.9623 1.78626 14.9623 1.15094C14.9623 0.515623 14.4466 0 13.8113 0H5.7547C5.11938 0 4.60376 0.515623 4.60376 1.15094C4.60376 1.78626 5.11938 2.30189 5.7547 2.30189Z" fill="#2B55D4"/>
<path d="M13.8114 8.05661H5.75476V13.8113H13.8114V8.05661Z" fill="#2B55D4"/>
<path d="M13.8114 13.8113H5.75476V19.566H13.8114V13.8113Z" fill="#42B2F2"/>
<path d="M13.8114 19.566H5.75476V25.3208H13.8114V19.566Z" fill="#2B55D4"/>
<path d="M5.75471 41.434H2.30188V50.6415H5.75471V41.434Z" fill="#43E8E1"/>
<path d="M11.5095 41.434H8.05664V50.6415H11.5095V41.434Z" fill="#43E8E1"/>
<path d="M17.2641 41.434H13.8113V50.6415H17.2641V41.434Z" fill="#43E8E1"/>
<path d="M29.9245 52.9434C30.5602 52.9434 31.0754 52.4281 31.0754 51.7925C31.0754 51.1568 30.5602 50.6415 29.9245 50.6415C29.2889 50.6415 28.7736 51.1568 28.7736 51.7925C28.7736 52.4281 29.2889 52.9434 29.9245 52.9434Z" fill="white"/>
<defs>
<linearGradient id="paint0_linear" x1="-0.770881" y1="45.9214" x2="15.7901" y2="59.4141" gradientUnits="userSpaceOnUse">
<stop stop-color="#42B2F1"/>
<stop offset="1" stop-color="#2A54D3"/>
</linearGradient>
<linearGradient id="paint1_linear" x1="4.74549" y1="57.099" x2="56.3544" y2="84.3112" gradientUnits="userSpaceOnUse">
<stop stop-color="#26259E"/>
<stop offset="1" stop-color="#5F50CC"/>
</linearGradient>
<linearGradient id="paint2_linear" x1="-0.770881" y1="59.6888" x2="-0.460537" y2="62.5965" gradientUnits="userSpaceOnUse">
<stop stop-color="#42B2F1"/>
<stop offset="1" stop-color="#2A54D3"/>
</linearGradient>
<linearGradient id="paint3_linear" x1="26.5505" y1="22.3197" x2="47.9337" y2="31.4249" gradientUnits="userSpaceOnUse">
<stop stop-color="#26259E"/>
<stop offset="1" stop-color="#5F50CC"/>
</linearGradient>
<linearGradient id="paint4_linear" x1="26.5505" y1="22.3197" x2="47.9337" y2="31.4249" gradientUnits="userSpaceOnUse">
<stop stop-color="#26259E"/>
<stop offset="1" stop-color="#5F50CC"/>
</linearGradient>
<linearGradient id="paint5_linear" x1="47.2674" y1="22.3197" x2="68.6506" y2="31.4249" gradientUnits="userSpaceOnUse">
<stop stop-color="#26259E"/>
<stop offset="1" stop-color="#5F50CC"/>
</linearGradient>
<linearGradient id="paint6_linear" x1="15.4667" y1="28.2859" x2="23.1928" y2="37.3003" gradientUnits="userSpaceOnUse">
<stop stop-color="#26259E"/>
<stop offset="1" stop-color="#5F50CC"/>
</linearGradient>
<linearGradient id="paint7_linear" x1="47.2674" y1="22.3197" x2="68.6506" y2="31.4249" gradientUnits="userSpaceOnUse">
<stop stop-color="#26259E"/>
<stop offset="1" stop-color="#5F50CC"/>
</linearGradient>
</defs>
</svg>
