<svg width="48" height="62" viewBox="0 0 48 62" fill="none" xmlns="http://www.w3.org/2000/svg">
<path d="M39.5998 61.44H8.39981C6.27893 61.44 4.55981 59.7209 4.55981 57.6V3.84C4.55981 1.71912 6.27893 0 8.39981 0H39.5998C41.7207 0 43.4398 1.71912 43.4398 3.84V57.6C43.4398 59.7209 41.7207 61.44 39.5998 61.44Z" fill="#69EBFC"/>
<path d="M39.5998 61.44H8.39981C6.27893 61.44 4.55981 59.7209 4.55981 57.6V3.84C4.55981 1.71912 6.27893 0 8.39981 0H39.5998C41.7207 0 43.4398 1.71912 43.4398 3.84V57.6C43.4398 59.7209 41.7207 61.44 39.5998 61.44Z" fill="url(#paint0_linear)"/>
<path d="M39.5998 60.0002H8.39981C6.27893 60.0002 4.55981 58.2811 4.55981 56.1602V57.6002C4.55981 59.7211 6.27893 61.4402 8.39981 61.4402H39.5998C41.7207 61.4402 43.4398 59.7211 43.4398 57.6002V56.1602C43.4398 58.2811 41.7207 60.0002 39.5998 60.0002Z" fill="url(#paint1_linear)"/>
<path d="M39.5998 0H8.39981C6.27893 0 4.55981 1.71912 4.55981 3.84V5.28C4.55981 3.15912 6.27893 1.44 8.39981 1.44H39.5998C41.7207 1.44 43.4398 3.15912 43.4398 5.28V3.84C43.4398 1.71912 41.7207 0 39.5998 0Z" fill="url(#paint2_linear)"/>
<path d="M6.95947 57.1199V7.19991C6.95947 6.13959 7.81915 5.27991 8.87947 5.27991H39.1195C40.1798 5.27991 41.0395 6.13959 41.0395 7.19991V57.1199C41.0395 58.1802 40.1798 59.0399 39.1195 59.0399H8.87947C7.81915 59.0399 6.95947 58.1802 6.95947 57.1199Z" fill="url(#paint3_linear)"/>
<path d="M30.7204 3.59953H17.2804C16.7503 3.59953 16.3204 3.16969 16.3204 2.63953C16.3204 2.10937 16.7503 1.67953 17.2804 1.67953H30.7204C31.2506 1.67953 31.6804 2.10937 31.6804 2.63953C31.6804 3.16969 31.2506 3.59953 30.7204 3.59953Z" fill="#43E8E1"/>
<path d="M34.0796 3.59953C34.6098 3.59953 35.0396 3.16973 35.0396 2.63953C35.0396 2.10934 34.6098 1.67953 34.0796 1.67953C33.5494 1.67953 33.1196 2.10934 33.1196 2.63953C33.1196 3.16973 33.5494 3.59953 34.0796 3.59953Z" fill="#43E8E1"/>
<path d="M0 28.2809V12.5201C0 11.3052 0.98472 10.3205 2.1996 10.3205H45.8004C47.0153 10.3205 48 11.3052 48 12.5201V28.2809C48 29.4957 47.0153 30.4805 45.8004 30.4805H2.1996C0.98472 30.4805 0 29.4957 0 28.2809Z" fill="url(#paint4_linear)"/>
<path d="M11.2792 26.8799C14.858 26.8799 17.7592 23.9787 17.7592 20.3999C17.7592 16.8211 14.858 13.9199 11.2792 13.9199C7.70039 13.9199 4.79919 16.8211 4.79919 20.3999C4.79919 23.9787 7.70039 26.8799 11.2792 26.8799Z" fill="#43E8E1"/>
<path d="M11.2797 22.3198C12.8702 22.3198 14.1597 21.0304 14.1597 19.4398C14.1597 17.8493 12.8702 16.5598 11.2797 16.5598C9.68908 16.5598 8.39966 17.8493 8.39966 19.4398C8.39966 21.0304 9.68908 22.3198 11.2797 22.3198Z" fill="#3377DF"/>
<path d="M11.2802 26.8796C12.9282 26.8796 14.4314 26.2632 15.575 25.25C14.6171 23.9122 13.0511 23.0396 11.2802 23.0396C9.50919 23.0396 7.94319 23.9122 6.98535 25.25C8.12895 26.2632 9.63207 26.8796 11.2802 26.8796Z" fill="#3377DF"/>
<path d="M36.0003 19.4403H21.1203C20.5901 19.4403 20.1603 19.0104 20.1603 18.4803C20.1603 17.9501 20.5901 17.5203 21.1203 17.5203H36.0003C36.5304 17.5203 36.9603 17.9501 36.9603 18.4803C36.9603 19.0104 36.5304 19.4403 36.0003 19.4403Z" fill="#43E8E1"/>
<path d="M40.8003 23.28H21.1203C20.5901 23.28 20.1603 22.8502 20.1603 22.32C20.1603 21.7899 20.5901 21.36 21.1203 21.36H40.8003C41.3304 21.36 41.7603 21.7899 41.7603 22.32C41.7603 22.8502 41.3304 23.28 40.8003 23.28Z" fill="#43E8E1"/>
<path d="M0 51.8002V36.0394C0 34.8245 0.98472 33.8398 2.1996 33.8398H45.8004C47.0153 33.8398 48 34.8245 48 36.0394V51.8002C48 53.015 47.0153 53.9998 45.8004 53.9998H2.1996C0.98472 53.9998 0 53.015 0 51.8002Z" fill="url(#paint5_linear)"/>
<path d="M11.2792 50.4002C14.858 50.4002 17.7592 47.499 17.7592 43.9202C17.7592 40.3413 14.858 37.4402 11.2792 37.4402C7.70039 37.4402 4.79919 40.3413 4.79919 43.9202C4.79919 47.499 7.70039 50.4002 11.2792 50.4002Z" fill="#43E8E1"/>
<path d="M11.2797 45.8401C12.8702 45.8401 14.1597 44.5507 14.1597 42.9601C14.1597 41.3695 12.8702 40.0801 11.2797 40.0801C9.68908 40.0801 8.39966 41.3695 8.39966 42.9601C8.39966 44.5507 9.68908 45.8401 11.2797 45.8401Z" fill="#3377DF"/>
<path d="M11.2802 50.3998C12.9282 50.3998 14.4314 49.7835 15.575 48.7702C14.6171 47.4325 13.0511 46.5598 11.2802 46.5598C9.50919 46.5598 7.94319 47.4325 6.98535 48.7702C8.12895 49.7835 9.63207 50.3998 11.2802 50.3998Z" fill="#3377DF"/>
<path d="M36.0003 42.9596H21.1203C20.5901 42.9596 20.1603 42.5297 20.1603 41.9996C20.1603 41.4694 20.5901 41.0396 21.1203 41.0396H36.0003C36.5304 41.0396 36.9603 41.4694 36.9603 41.9996C36.9603 42.5297 36.5304 42.9596 36.0003 42.9596Z" fill="#43E8E1"/>
<path d="M40.8003 46.8003H21.1203C20.5901 46.8003 20.1603 46.3705 20.1603 45.8403C20.1603 45.3102 20.5901 44.8803 21.1203 44.8803H40.8003C41.3304 44.8803 41.7603 45.3102 41.7603 45.8403C41.7603 46.3705 41.3304 46.8003 40.8003 46.8003Z" fill="#43E8E1"/>
<defs>
<linearGradient id="paint0_linear" x1="-6.09237" y1="54.9323" x2="38.9875" y2="65.1735" gradientUnits="userSpaceOnUse">
<stop stop-color="#26259E"/>
<stop offset="1" stop-color="#5F50CC"/>
</linearGradient>
<linearGradient id="paint1_linear" x1="-6.09237" y1="60.881" x2="-0.157848" y2="76.5691" gradientUnits="userSpaceOnUse">
<stop stop-color="#26259E"/>
<stop offset="1" stop-color="#5F50CC"/>
</linearGradient>
<linearGradient id="paint2_linear" x1="-6.09237" y1="4.72075" x2="-0.157848" y2="20.4088" gradientUnits="userSpaceOnUse">
<stop stop-color="#26259E"/>
<stop offset="1" stop-color="#5F50CC"/>
</linearGradient>
<linearGradient id="paint3_linear" x1="-2.37763" y1="53.3457" x2="37.13" y2="62.3368" gradientUnits="userSpaceOnUse">
<stop stop-color="#26259E"/>
<stop offset="1" stop-color="#5F50CC"/>
</linearGradient>
<linearGradient id="paint4_linear" x1="-1.89115" y1="18.9971" x2="6.67847" y2="41.4878" gradientUnits="userSpaceOnUse">
<stop stop-color="#42B2F1"/>
<stop offset="1" stop-color="#2A54D3"/>
</linearGradient>
<linearGradient id="paint5_linear" x1="-1.89115" y1="42.5164" x2="6.67847" y2="65.0071" gradientUnits="userSpaceOnUse">
<stop stop-color="#42B2F1"/>
<stop offset="1" stop-color="#2A54D3"/>
</linearGradient>
</defs>
</svg>
