<svg width="53" height="58" viewBox="0 0 53 58" fill="none" xmlns="http://www.w3.org/2000/svg">
<path d="M2.98826 57.0735H50.0115C51.6618 57.0735 52.9998 55.7355 52.9998 54.0852V2.98923C52.9998 1.33893 51.6618 0.000976594 50.0115 0.000976594H2.98826C1.33796 0.000741038 0 1.3387 0 2.98923V54.0852C0 55.7355 1.33796 57.0735 2.98826 57.0735Z" fill="url(#paint0_linear)"/>
<path d="M50.0117 0H2.98826C1.33796 0 0 1.33796 0 2.98849V4.23953C0 2.58923 1.33796 1.25127 2.98826 1.25127H50.0117C51.662 1.25127 53 2.58923 53 4.23953V2.98849C53 1.33796 51.662 0 50.0117 0Z" fill="url(#paint1_linear)"/>
<path d="M50.0117 54.5708H2.98826C1.33796 54.5708 0 53.2328 0 51.5823V54.0844C0 55.7349 1.33796 57.0729 2.98826 57.0729H50.0117C51.662 57.0729 53 55.7349 53 54.0846V51.5825C53 53.2328 51.662 54.5708 50.0117 54.5708Z" fill="url(#paint2_linear)"/>
<path d="M42.3781 36.8677H18.7396C18.0567 36.8677 17.5034 36.3141 17.5034 35.6315C17.5034 34.9488 18.057 34.3953 18.7396 34.3953H42.3781C43.0607 34.3953 43.6143 34.9488 43.6143 35.6315C43.6143 36.3141 43.061 36.8677 42.3781 36.8677Z" fill="#43E8E1"/>
<path d="M42.3781 46.8321H18.7396C18.0567 46.8321 17.5034 46.2785 17.5034 45.5959C17.5034 44.913 18.057 44.3597 18.7396 44.3597H42.3781C43.0607 44.3597 43.6143 44.9132 43.6143 45.5959C43.6145 46.2785 43.061 46.8321 42.3781 46.8321Z" fill="#43E8E1"/>
<path d="M30.5875 13.3661C30.5875 13.3661 32.5822 10.7017 32.1349 9.5536C31.7384 8.53577 30.1524 8.78711 29.3593 9.5536C28.5662 10.3201 28.8939 7.99234 26.4997 7.99234C24.1055 7.99234 24.4331 10.3201 23.64 9.5536C22.8469 8.78711 21.2609 8.53577 20.8645 9.5536C20.4171 10.7017 22.4118 13.3661 22.4118 13.3661C22.4118 13.3661 17.8625 18.1415 17.8625 22.6451C17.8625 25.3971 19.1449 28.5363 26.4997 28.5363C33.8544 28.5363 35.1368 25.3971 35.1368 22.6451C35.1368 18.1415 30.5875 13.3661 30.5875 13.3661Z" fill="#42B2F2"/>
<path d="M31.2482 14.0728H21.7516C21.3613 14.0728 21.0449 13.7565 21.0449 13.3662C21.0449 12.9759 21.3613 12.6595 21.7516 12.6595H31.2482C31.6386 12.6595 31.9549 12.9759 31.9549 13.3662C31.9549 13.7565 31.6386 14.0728 31.2482 14.0728Z" fill="#43E8E1"/>
<path d="M26.1413 24.2651C25.6912 24.1991 25.2907 24.025 24.939 23.7426C24.7341 23.578 24.5636 23.3716 24.4274 23.1233C24.262 22.8221 24.3911 22.4433 24.7091 22.3133C24.9621 22.2099 25.2587 22.2977 25.3998 22.5316C25.4452 22.6068 25.4973 22.6788 25.5564 22.7472C25.7183 22.9365 25.9131 23.067 26.1413 23.1389V21.4278L26.061 21.3915C25.8389 21.3077 25.6299 21.2087 25.4349 21.0943C25.2398 20.9805 25.0686 20.8481 24.9216 20.6983C24.7739 20.5483 24.6566 20.3786 24.5702 20.1895C24.4828 20.0001 24.4389 19.7886 24.4389 19.5542C24.4389 19.3382 24.4783 19.1342 24.556 18.9418C24.6347 18.7498 24.7466 18.5785 24.8943 18.4285C25.0413 18.2784 25.2196 18.1536 25.4302 18.0547C25.64 17.9555 25.877 17.8912 26.1411 17.861V17.4877C26.1411 17.2663 26.3206 17.0868 26.542 17.0868C26.7634 17.0868 26.9429 17.2663 26.9429 17.4877V17.8794C27.1834 17.9152 27.3923 17.9786 27.569 18.0688C27.7464 18.1588 27.8981 18.2638 28.0288 18.3795C28.079 18.424 28.1277 18.477 28.1734 18.5345C28.401 18.8193 28.2853 19.2449 27.9525 19.3936C27.7245 19.4953 27.4618 19.4315 27.2939 19.2466C27.2058 19.1495 27.0899 19.0544 26.9429 18.9872V20.5994C27.2018 20.7077 27.4352 20.8189 27.6458 20.9329C27.8557 21.0469 28.0356 21.176 28.1862 21.3202C28.3365 21.4641 28.4502 21.628 28.528 21.8106C28.6066 21.9941 28.645 22.2059 28.645 22.4459C28.645 22.7161 28.5986 22.9566 28.5061 23.1662C28.4125 23.3766 28.2884 23.5565 28.1318 23.7066C27.9753 23.8569 27.7942 23.9772 27.5871 24.0672C27.3801 24.1572 27.1648 24.2203 26.9429 24.2561V24.6479C26.9429 24.8693 26.7634 25.0488 26.542 25.0488C26.3206 25.0488 26.1411 24.8693 26.1411 24.6479V24.2651H26.1413ZM25.5477 19.5544C25.5477 19.6986 25.5941 19.8232 25.6867 19.9283C25.7802 20.0336 25.9314 20.1403 26.1413 20.2482V18.9333C25.9611 18.9813 25.8179 19.0591 25.7093 19.1672C25.6009 19.2755 25.5477 19.4044 25.5477 19.5544ZM27.4929 22.4548C27.4929 22.2987 27.451 22.1693 27.3662 22.0676C27.2823 21.9654 27.1415 21.8634 26.9431 21.7611V23.1391C27.1057 23.0854 27.2378 22.9997 27.3401 22.8826C27.4413 22.7653 27.4929 22.6228 27.4929 22.4548Z" fill="#FFEFE4"/>
<path d="M10.588 36.8674C11.2707 36.8674 11.8242 36.3139 11.8242 35.6312C11.8242 34.9485 11.2707 34.395 10.588 34.395C9.90527 34.395 9.35181 34.9485 9.35181 35.6312C9.35181 36.3139 9.90527 36.8674 10.588 36.8674Z" fill="#43E8E1"/>
<path d="M10.588 46.8321C11.2707 46.8321 11.8242 46.2786 11.8242 45.5959C11.8242 44.9131 11.2707 44.3597 10.588 44.3597C9.90527 44.3597 9.35181 44.9131 9.35181 45.5959C9.35181 46.2786 9.90527 46.8321 10.588 46.8321Z" fill="#43E8E1"/>
<defs>
<linearGradient id="paint0_linear" x1="-14.5207" y1="51.0284" x2="43.6382" y2="70.4174" gradientUnits="userSpaceOnUse">
<stop stop-color="#26259E"/>
<stop offset="1" stop-color="#5F50CC"/>
</linearGradient>
<linearGradient id="paint1_linear" x1="-14.5207" y1="3.79048" x2="-11.4641" y2="17.5086" gradientUnits="userSpaceOnUse">
<stop stop-color="#26259E"/>
<stop offset="1" stop-color="#5F50CC"/>
</linearGradient>
<linearGradient id="paint2_linear" x1="-14.5207" y1="56.4913" x2="-9.55311" y2="73.706" gradientUnits="userSpaceOnUse">
<stop stop-color="#26259E"/>
<stop offset="1" stop-color="#5F50CC"/>
</linearGradient>
</defs>
</svg>
