<svg width="69" height="69" viewBox="0 0 69 69" fill="none" xmlns="http://www.w3.org/2000/svg">
<path d="M67.0824 53.2418H1.93128C0.872228 53.2418 0.0136719 52.3833 0.0136719 51.3242V1.9176C0.0136719 0.858556 0.872228 0 1.93128 0H67.0821C68.1412 0 68.9997 0.858556 68.9997 1.9176V51.3242C69 52.3833 68.1414 53.2418 67.0824 53.2418Z" fill="url(#paint0_linear)"/>
<path d="M67.0824 0H1.93128C0.872228 0 0.0136719 0.858556 0.0136719 1.9176V3.80395C0.0136719 2.7449 0.872228 1.88634 1.93128 1.88634H67.0824C68.1414 1.88634 69 2.7449 69 3.80395V1.9176C69 0.858556 68.1414 0 67.0824 0Z" fill="#8F95E6"/>
<path d="M4.05591 47.2821V6.62808C4.05591 5.19985 5.21358 4.04218 6.64182 4.04218H62.372C63.8002 4.04218 64.9579 5.19985 64.9579 6.62808V47.2821C64.9579 48.3411 64.0993 49.1997 63.0403 49.1997H5.97351C4.91446 49.1997 4.05591 48.3411 4.05591 47.2821Z" fill="url(#paint1_linear)"/>
<path d="M42.8841 53.2419H26.46V63.5993H42.8841V53.2419Z" fill="url(#paint2_linear)"/>
<path d="M50.6501 68.9863H18.7706C17.2831 68.9863 16.0771 67.7803 16.0771 66.2928C16.0771 64.8053 17.2831 63.5994 18.7706 63.5994H50.6501C52.1376 63.5994 53.3435 64.8053 53.3435 66.2928C53.3435 67.7803 52.1376 68.9863 50.6501 68.9863Z" fill="url(#paint3_linear)"/>
<path d="M50.6499 67.1H18.7704C17.6151 67.1 16.6326 66.3713 16.2499 65.3497C16.1397 65.6437 16.0767 65.9606 16.0767 66.2929C16.0767 67.7804 17.2826 68.9863 18.7701 68.9863H50.6496C52.1371 68.9863 53.343 67.7804 53.343 66.2929C53.343 65.9606 53.28 65.6437 53.1697 65.3497C52.7876 66.3713 51.8051 67.1 50.6499 67.1Z" fill="url(#paint4_linear)"/>
<path d="M26.939 43.6105H10.4593C9.84061 43.6105 9.33911 43.109 9.33911 42.4903V24.7843C9.33911 24.1656 9.84061 23.6641 10.4593 23.6641H26.939C27.5577 23.6641 28.0592 24.1656 28.0592 24.7843V42.4903C28.0592 43.109 27.5577 43.6105 26.939 43.6105Z" fill="#43E8E1"/>
<path d="M20.2778 28.3619H19.5098L18.8003 27.8994L18.2126 28.3619L17.6248 27.8994L17.1204 28.3619V23.6641H20.2778V28.3619Z" fill="#F6F9FC"/>
<path d="M18.6775 39.0811H11.2302V41.7961H18.6775V39.0811Z" fill="#F6F9FC"/>
<path d="M17.8696 40.988V39.889H12.0384V40.988H17.8696Z" fill="#F6F9FC"/>
<path d="M24.9272 23.664H12.4708C12.0356 23.664 11.6829 23.3112 11.6829 22.876V10.4197C11.6829 9.98446 12.0356 9.63171 12.4708 9.63171H24.9272C25.3624 9.63171 25.7151 9.98446 25.7151 10.4197V22.876C25.7154 23.3112 25.3624 23.664 24.9272 23.664Z" fill="#43E8E1"/>
<path d="M19.8099 12.9363H19.2696L18.7706 12.6111L18.3569 12.9363L17.9435 12.6111L17.5886 12.9363V9.63147H19.8099V12.9363Z" fill="#F6F9FC"/>
<path d="M17.9648 19.9024H12.7253V21.8125H17.9648V19.9024Z" fill="#F6F9FC"/>
<path d="M17.3965 21.244V20.4709H13.294V21.244H17.3965Z" fill="#F6F9FC"/>
<path d="M39.5133 18.2863H33.0329C32.4325 18.2863 31.9458 17.7996 31.9458 17.1992V10.7188C31.9458 10.1184 32.4325 9.63171 33.0329 9.63171H39.5133C40.1137 9.63171 40.6004 10.1184 40.6004 10.7188V17.1992C40.6004 17.7993 40.1137 18.2863 39.5133 18.2863Z" fill="#F6F9FC"/>
<path d="M35.7781 16.4051C35.5525 16.4051 35.3257 16.3318 35.1354 16.1815L33.857 15.1704C33.4078 14.8149 33.3315 14.1628 33.6867 13.7136C34.0419 13.2644 34.6943 13.1881 35.1435 13.5433L35.6202 13.9203L37.5911 11.5014C37.9531 11.0573 38.6063 10.9908 39.0504 11.3524C39.4945 11.7143 39.561 12.3675 39.1994 12.8116L36.5828 16.0227C36.3782 16.2744 36.0794 16.4051 35.7781 16.4051Z" fill="#43E8E1"/>
<path d="M58.3291 15.1983H45.8822C45.1977 15.1983 44.6428 14.6435 44.6428 13.959C44.6428 13.2745 45.1977 12.7197 45.8822 12.7197H58.3291C59.0135 12.7197 59.5684 13.2745 59.5684 13.959C59.5684 14.6435 59.0135 15.1983 58.3291 15.1983Z" fill="#6770E6"/>
<path d="M39.5133 30.9136H33.0329C32.4325 30.9136 31.9458 30.4269 31.9458 29.8265V23.3458C31.9458 22.7454 32.4325 22.2588 33.0329 22.2588H39.5133C40.1137 22.2588 40.6004 22.7454 40.6004 23.3458V29.8262C40.6004 30.4266 40.1137 30.9136 39.5133 30.9136Z" fill="#F6F9FC"/>
<path d="M35.7781 29.0324C35.5525 29.0324 35.3257 28.9591 35.1354 28.8088L33.857 27.7977C33.4078 27.4422 33.3315 26.7901 33.6867 26.3409C34.0419 25.8917 34.6943 25.8154 35.1435 26.1706L35.6202 26.5476L37.5911 24.1287C37.9531 23.6846 38.6063 23.6181 39.0504 23.9797C39.4945 24.3416 39.561 24.9948 39.1994 25.4389L36.5828 28.65C36.3782 28.9017 36.0794 29.0324 35.7781 29.0324Z" fill="#43E8E1"/>
<path d="M58.3291 27.8256H45.8822C45.1977 27.8256 44.6428 27.2708 44.6428 26.5863C44.6428 25.9018 45.1977 25.347 45.8822 25.347H58.3291C59.0135 25.347 59.5684 25.9018 59.5684 26.5863C59.5684 27.2705 59.0135 27.8256 58.3291 27.8256Z" fill="#6770E6"/>
<path d="M39.5133 43.6104H33.0329C32.4325 43.6104 31.9458 43.1237 31.9458 42.5233V36.0429C31.9458 35.4425 32.4325 34.9558 33.0329 34.9558H39.5133C40.1137 34.9558 40.6004 35.4425 40.6004 36.0429V42.5233C40.6004 43.1237 40.1137 43.6104 39.5133 43.6104Z" fill="#F6F9FC"/>
<path d="M35.7781 41.7292C35.5525 41.7292 35.3257 41.6559 35.1354 41.5055L33.857 40.4944C33.4078 40.139 33.3315 39.4869 33.6867 39.0376C34.0419 38.5884 34.6943 38.5122 35.1435 38.8673L35.6202 39.2443L37.5911 36.8255C37.9531 36.3814 38.6063 36.3148 39.0504 36.6765C39.4945 37.0384 39.561 37.6916 39.1994 38.1357L36.5828 41.3468C36.3782 41.5985 36.0794 41.7292 35.7781 41.7292Z" fill="#43E8E1"/>
<path d="M58.3291 40.5224H45.8822C45.1977 40.5224 44.6428 39.9676 44.6428 39.2831C44.6428 38.5986 45.1977 38.0438 45.8822 38.0438H58.3291C59.0135 38.0438 59.5684 38.5986 59.5684 39.2831C59.5684 39.9676 59.0135 40.5224 58.3291 40.5224Z" fill="#6770E6"/>
<defs>
<linearGradient id="paint0_linear" x1="-18.8868" y1="47.6025" x2="50.2654" y2="79.7692" gradientUnits="userSpaceOnUse">
<stop stop-color="#26259E"/>
<stop offset="1" stop-color="#5F50CC"/>
</linearGradient>
<linearGradient id="paint1_linear" x1="1.65644" y1="23.4775" x2="28.3748" y2="63.1968" gradientUnits="userSpaceOnUse">
<stop stop-color="#42B2F1"/>
<stop offset="1" stop-color="#2A54D3"/>
</linearGradient>
<linearGradient id="paint2_linear" x1="21.9601" y1="62.5022" x2="37.0846" y2="71.1123" gradientUnits="userSpaceOnUse">
<stop stop-color="#26259E"/>
<stop offset="1" stop-color="#5F50CC"/>
</linearGradient>
<linearGradient id="paint3_linear" x1="5.86706" y1="68.4157" x2="12.2062" y2="84.1592" gradientUnits="userSpaceOnUse">
<stop stop-color="#26259E"/>
<stop offset="1" stop-color="#5F50CC"/>
</linearGradient>
<linearGradient id="paint4_linear" x1="5.86658" y1="68.6011" x2="8.99296" y2="80.1027" gradientUnits="userSpaceOnUse">
<stop stop-color="#26259E"/>
<stop offset="1" stop-color="#5F50CC"/>
</linearGradient>
</defs>
</svg>
