<svg width="63" height="63" viewBox="0 0 63 63" fill="none" xmlns="http://www.w3.org/2000/svg">
<path d="M56.5856 63H6.41443C2.87191 63 0 60.1281 0 56.5856V6.41443C0 2.87191 2.87191 0 6.41443 0H56.5856C60.1281 0 63 2.87191 63 6.41443V56.5856C63 60.1281 60.1281 63 56.5856 63Z" fill="url(#paint0_linear)"/>
<path d="M56.5856 61.2772H6.41443C2.87191 61.2772 0 58.4053 0 54.8628V56.5855C0 60.128 2.87191 62.9999 6.41443 62.9999H56.5856C60.1281 62.9999 63 60.128 63 56.5855V54.8628C63 58.4053 60.1281 61.2772 56.5856 61.2772Z" fill="url(#paint1_linear)"/>
<path d="M56.5856 0H6.41443C2.87191 0 0 2.87191 0 6.41443V9.84375H63V6.41443C63 2.87191 60.1281 0 56.5856 0Z" fill="url(#paint2_linear)"/>
<path d="M56.5856 0H6.41443C2.87191 0 0 2.87191 0 6.41443V8.13709C0 4.59457 2.87191 1.72266 6.41443 1.72266H56.5856C60.1281 1.72266 63 4.59457 63 8.13709V6.41443C63 2.87191 60.1281 0 56.5856 0Z" fill="url(#paint3_linear)"/>
<path d="M8.61328 7.13672C9.83651 7.13672 10.8281 6.1451 10.8281 4.92188C10.8281 3.69865 9.83651 2.70703 8.61328 2.70703C7.39006 2.70703 6.39844 3.69865 6.39844 4.92188C6.39844 6.1451 7.39006 7.13672 8.61328 7.13672Z" fill="#43E8E1"/>
<path d="M16.8574 7.13672C18.0806 7.13672 19.0723 6.1451 19.0723 4.92188C19.0723 3.69865 18.0806 2.70703 16.8574 2.70703C15.6342 2.70703 14.6426 3.69865 14.6426 4.92188C14.6426 6.1451 15.6342 7.13672 16.8574 7.13672Z" fill="#43E8E1"/>
<path d="M25.1016 7.13672C26.3248 7.13672 27.3164 6.1451 27.3164 4.92188C27.3164 3.69865 26.3248 2.70703 25.1016 2.70703C23.8783 2.70703 22.8867 3.69865 22.8867 4.92188C22.8867 6.1451 23.8783 7.13672 25.1016 7.13672Z" fill="#43E8E1"/>
<path d="M8.36719 24.6094H54.6328C55.7201 24.6094 56.6016 25.4909 56.6016 26.5781V54.1406C56.6016 55.2279 55.7201 56.1094 54.6328 56.1094H8.36719C7.27995 56.1094 6.39844 55.2279 6.39844 54.1406V26.5781C6.39844 25.4909 7.27995 24.6094 8.36719 24.6094Z" fill="#42B2F2"/>
<path d="M27.5625 46.7578H35.4375C36.5247 46.7578 37.4062 47.6393 37.4062 48.7266C37.4062 49.8138 36.5247 50.6953 35.4375 50.6953H27.5625C26.4753 50.6953 25.5938 49.8138 25.5938 48.7266C25.5938 47.6393 26.4753 46.7578 27.5625 46.7578Z" fill="#F6F9FC"/>
<path d="M22.8867 42.5742H40.1133C40.6569 42.5742 41.0977 43.015 41.0977 43.5586C41.0977 44.1022 40.6569 44.543 40.1133 44.543H22.8867C22.3431 44.543 21.9023 44.1022 21.9023 43.5586C21.9023 43.015 22.3431 42.5742 22.8867 42.5742Z" fill="#F6F9FC"/>
<path d="M25.3477 38.6367H37.6523C38.196 38.6367 38.6367 39.0775 38.6367 39.6211C38.6367 40.1647 38.196 40.6055 37.6523 40.6055H25.3477C24.804 40.6055 24.3633 40.1647 24.3633 39.6211C24.3633 39.0775 24.804 38.6367 25.3477 38.6367Z" fill="#F6F9FC"/>
<path d="M31.5 34.4531C36.9366 34.4531 41.3438 30.0459 41.3438 24.6094C41.3438 19.1728 36.9366 14.7656 31.5 14.7656C26.0634 14.7656 21.6562 19.1728 21.6562 24.6094C21.6562 30.0459 26.0634 34.4531 31.5 34.4531Z" fill="url(#paint4_linear)"/>
<path d="M31.5002 27.526C33.9165 27.526 35.8752 25.5673 35.8752 23.151C35.8752 20.7347 33.9165 18.7759 31.5002 18.7759C29.0839 18.7759 27.1251 20.7347 27.1251 23.151C27.1251 25.5673 29.0839 27.526 31.5002 27.526Z" fill="#43E8E1"/>
<path d="M31.4998 34.4531C34.0033 34.4531 36.2868 33.517 38.024 31.9776C36.5688 29.9454 34.1898 28.6197 31.4998 28.6197C28.8097 28.6197 26.4307 29.9454 24.9756 31.9776C26.7128 33.517 28.9963 34.4531 31.4998 34.4531Z" fill="#43E8E1"/>
<defs>
<linearGradient id="paint0_linear" x1="-17.2605" y1="56.3271" x2="50.7858" y2="80.7556" gradientUnits="userSpaceOnUse">
<stop stop-color="#26259E"/>
<stop offset="1" stop-color="#5F50CC"/>
</linearGradient>
<linearGradient id="paint1_linear" x1="-17.2605" y1="62.138" x2="-8.45686" y2="86.6075" gradientUnits="userSpaceOnUse">
<stop stop-color="#26259E"/>
<stop offset="1" stop-color="#5F50CC"/>
</linearGradient>
<linearGradient id="paint2_linear" x1="-17.2605" y1="8.80111" x2="-5.0265" y2="36.9097" gradientUnits="userSpaceOnUse">
<stop stop-color="#26259E"/>
<stop offset="1" stop-color="#5F50CC"/>
</linearGradient>
<linearGradient id="paint3_linear" x1="-17.2605" y1="7.27522" x2="-8.45686" y2="31.7447" gradientUnits="userSpaceOnUse">
<stop stop-color="#26259E"/>
<stop offset="1" stop-color="#5F50CC"/>
</linearGradient>
<linearGradient id="paint4_linear" x1="16.2623" y1="32.3678" x2="37.5268" y2="40.0017" gradientUnits="userSpaceOnUse">
<stop stop-color="#26259E"/>
<stop offset="1" stop-color="#5F50CC"/>
</linearGradient>
</defs>
</svg>
