<svg width="69" height="69" viewBox="0 0 69 69" fill="none" xmlns="http://www.w3.org/2000/svg">
<path d="M46.1641 2.3353V66.3737C46.1641 67.6635 45.1186 68.709 43.8288 68.709H2.3353C1.04553 68.709 0 67.6635 0 66.3737V2.3353C0 1.04553 1.04553 0 2.3353 0H43.8288C45.1186 0 46.1641 1.04553 46.1641 2.3353Z" fill="url(#paint0_linear)"/>
<path d="M43.8288 0H2.3353C1.04553 0 0 1.04553 0 2.3353V3.67727C0 2.3875 1.04553 1.34197 2.3353 1.34197H43.8288C45.1186 1.34197 46.1641 2.3875 46.1641 3.67727V2.3353C46.1641 1.04553 45.1186 0 43.8288 0Z" fill="url(#paint1_linear)"/>
<path d="M40.8029 61.1514H5.36167C4.0719 61.1514 3.02637 60.1059 3.02637 58.8161V5.32187C3.02637 4.0321 4.0719 2.98657 5.36167 2.98657H40.8029C42.0927 2.98657 43.1382 4.0321 43.1382 5.32187V58.8162C43.1382 60.1059 42.0927 61.1514 40.8029 61.1514Z" fill="#FFF7F2"/>
<path d="M43.8288 67.3676H2.3353C1.04553 67.3676 0 66.322 0 65.0323V66.3742C0 67.664 1.04553 68.7095 2.3353 68.7095H43.8288C45.1186 68.7095 46.1641 67.664 46.1641 66.3742V65.0323C46.1641 66.322 45.1186 67.3676 43.8288 67.3676Z" fill="url(#paint2_linear)"/>
<path d="M23.0817 67.4896C24.3945 67.4896 25.4586 66.4255 25.4586 65.1127C25.4586 63.8 24.3945 62.7358 23.0817 62.7358C21.769 62.7358 20.7048 63.8 20.7048 65.1127C20.7048 66.4255 21.769 67.4896 23.0817 67.4896Z" fill="url(#paint3_linear)"/>
<path d="M29.7675 37.111H16.3968L3.02637 46.5048V61.1516H16.3968H29.7675H43.1381V27.7172L29.7675 37.111Z" fill="#43E8E1"/>
<path d="M43.4423 28.1589L42.8312 27.2763L29.5984 36.4432H16.2244L2.71411 46.0377L3.33585 46.9131L15.8589 38.0194V61.152H16.9324V37.5167H29.2293V61.152H30.3029V37.2611L43.4423 28.1589Z" fill="url(#paint4_linear)"/>
<path d="M16.3968 38.4531C17.2106 38.4531 17.8703 37.7934 17.8703 36.9796C17.8703 36.1658 17.2106 35.5061 16.3968 35.5061C15.583 35.5061 14.9233 36.1658 14.9233 36.9796C14.9233 37.7934 15.583 38.4531 16.3968 38.4531Z" fill="#A1F1FC"/>
<path d="M16.3967 38.9897C15.2881 38.9897 14.3865 38.0879 14.3865 36.9795C14.3865 35.871 15.2883 34.9693 16.3967 34.9693C17.5052 34.9693 18.4069 35.8711 18.4069 36.9795C18.4069 38.0878 17.5051 38.9897 16.3967 38.9897ZM16.3967 36.0428C15.8802 36.0428 15.4601 36.4629 15.4601 36.9793C15.4601 37.4957 15.8804 37.916 16.3967 37.916C16.9131 37.916 17.3333 37.4959 17.3333 36.9793C17.3333 36.4628 16.9131 36.0428 16.3967 36.0428Z" fill="url(#paint5_linear)"/>
<path d="M29.7672 38.4531C30.581 38.4531 31.2407 37.7934 31.2407 36.9796C31.2407 36.1658 30.581 35.5061 29.7672 35.5061C28.9534 35.5061 28.2937 36.1658 28.2937 36.9796C28.2937 37.7934 28.9534 38.4531 29.7672 38.4531Z" fill="#A1F1FC"/>
<path d="M29.7671 38.9897C28.6585 38.9897 27.7568 38.0879 27.7568 36.9795C27.7568 35.871 28.6586 34.9693 29.7671 34.9693C30.8756 34.9693 31.7773 35.8711 31.7773 36.9795C31.7773 38.0878 30.8756 38.9897 29.7671 38.9897ZM29.7671 36.0428C29.2506 36.0428 28.8304 36.4629 28.8304 36.9793C28.8304 37.4957 29.2507 37.916 29.7671 37.916C30.2835 37.916 30.7037 37.4959 30.7037 36.9793C30.7037 36.4628 30.2836 36.0428 29.7671 36.0428Z" fill="url(#paint6_linear)"/>
<path d="M3.02622 47.9482C3.84 47.9482 4.49971 47.2885 4.49971 46.4748C4.49971 45.661 3.84 45.0013 3.02622 45.0013C2.21244 45.0013 1.55273 45.661 1.55273 46.4748C1.55273 47.2885 2.21244 47.9482 3.02622 47.9482Z" fill="#A1F1FC"/>
<path d="M3.02639 48.4849C1.91778 48.4849 1.01611 47.5831 1.01611 46.4746C1.01611 45.3661 1.91792 44.4645 3.02639 44.4645C4.13486 44.4645 5.03653 45.3663 5.03653 46.4746C5.03653 47.583 4.13486 48.4849 3.02639 48.4849ZM3.02639 45.5381C2.50986 45.5381 2.08969 45.9582 2.08969 46.4746C2.08969 46.991 2.51 47.4113 3.02639 47.4113C3.54278 47.4113 3.96295 46.9911 3.96295 46.4746C3.96295 45.9581 3.54278 45.5381 3.02639 45.5381Z" fill="url(#paint7_linear)"/>
<path d="M54.3654 68.6695C52.5659 68.6695 51.1072 67.2108 51.1072 65.4114V31.5843H57.6235V65.4114C57.6235 67.2108 56.1648 68.6695 54.3654 68.6695Z" fill="url(#paint8_linear)"/>
<path d="M54.3663 35.102C62.2875 35.102 68.7089 28.6806 68.7089 20.7594C68.7089 12.8382 62.2875 6.41682 54.3663 6.41682C46.4451 6.41682 40.0237 12.8382 40.0237 20.7594C40.0237 28.6806 46.4451 35.102 54.3663 35.102Z" fill="url(#paint9_linear)"/>
<path d="M54.3661 7.75879C62.0624 7.75879 68.3421 13.8207 68.6926 21.4304C68.7028 21.2079 68.7087 20.9843 68.7087 20.7594C68.7087 12.8383 62.2874 6.41682 54.3661 6.41682C46.4449 6.41682 40.0237 12.8382 40.0237 20.7594C40.0237 20.9843 40.0296 21.2079 40.0398 21.4304C40.3903 13.8207 46.6699 7.75879 54.3661 7.75879Z" fill="url(#paint10_linear)"/>
<path d="M54.3665 30.9014C59.9676 30.9014 64.5082 26.3608 64.5082 20.7597C64.5082 15.1586 59.9676 10.618 54.3665 10.618C48.7654 10.618 44.2249 15.1586 44.2249 20.7597C44.2249 26.3608 48.7654 30.9014 54.3665 30.9014Z" fill="#43E8E1"/>
<path d="M51.1072 42.8856V65.4118C51.1072 67.2113 52.5659 68.67 54.3654 68.67C56.1648 68.67 57.6235 67.2113 57.6235 65.4118V42.8856H51.1072Z" fill="url(#paint11_linear)"/>
<path d="M54.3654 67.3278C52.5659 67.3278 51.1072 65.869 51.1072 64.0696V65.4116C51.1072 67.211 52.5659 68.6697 54.3654 68.6697C56.1648 68.6697 57.6235 67.211 57.6235 65.4116V64.0696C57.6235 65.869 56.1648 67.3278 54.3654 67.3278Z" fill="#5861C7"/>
<path d="M56.8756 17.5593L51.9898 17.2889C51.6165 17.2682 51.3835 17.6869 51.598 17.9932L52.6402 19.4826L45.0684 24.8096C45.3946 25.5575 45.8078 26.2582 46.2963 26.8993L54.0251 21.4619L55.0636 22.9461C55.278 23.2525 55.7511 23.1771 55.8596 22.8193L57.2798 18.1368C57.3639 17.8588 57.1656 17.5754 56.8756 17.5593Z" fill="#FFF7F2"/>
<defs>
<linearGradient id="paint0_linear" x1="-12.6479" y1="61.4314" x2="40.5454" y2="74.2618" gradientUnits="userSpaceOnUse">
<stop stop-color="#26259E"/>
<stop offset="1" stop-color="#5F50CC"/>
</linearGradient>
<linearGradient id="paint1_linear" x1="-12.6479" y1="3.28778" x2="-10.0067" y2="15.1912" gradientUnits="userSpaceOnUse">
<stop stop-color="#26259E"/>
<stop offset="1" stop-color="#5F50CC"/>
</linearGradient>
<linearGradient id="paint2_linear" x1="-12.6479" y1="68.32" x2="-10.0067" y2="80.2235" gradientUnits="userSpaceOnUse">
<stop stop-color="#26259E"/>
<stop offset="1" stop-color="#5F50CC"/>
</linearGradient>
<linearGradient id="paint3_linear" x1="19.4024" y1="66.9861" x2="24.537" y2="68.8294" gradientUnits="userSpaceOnUse">
<stop stop-color="#26259E"/>
<stop offset="1" stop-color="#5F50CC"/>
</linearGradient>
<linearGradient id="paint4_linear" x1="1.10946" y1="41.856" x2="21.9183" y2="69.433" gradientUnits="userSpaceOnUse">
<stop stop-color="#42B2F1"/>
<stop offset="1" stop-color="#2A54D3"/>
</linearGradient>
<linearGradient id="paint5_linear" x1="14.2281" y1="36.6997" x2="16.7841" y2="39.5172" gradientUnits="userSpaceOnUse">
<stop stop-color="#42B2F1"/>
<stop offset="1" stop-color="#2A54D3"/>
</linearGradient>
<linearGradient id="paint6_linear" x1="27.5984" y1="36.6997" x2="30.1545" y2="39.5172" gradientUnits="userSpaceOnUse">
<stop stop-color="#42B2F1"/>
<stop offset="1" stop-color="#2A54D3"/>
</linearGradient>
<linearGradient id="paint7_linear" x1="0.857713" y1="46.1948" x2="3.41378" y2="49.0123" gradientUnits="userSpaceOnUse">
<stop stop-color="#42B2F1"/>
<stop offset="1" stop-color="#2A54D3"/>
</linearGradient>
<linearGradient id="paint8_linear" x1="50.8504" y1="47.5454" x2="59.6952" y2="49.2585" gradientUnits="userSpaceOnUse">
<stop stop-color="#42B2F1"/>
<stop offset="1" stop-color="#2A54D3"/>
</linearGradient>
<linearGradient id="paint9_linear" x1="38.8935" y1="18.7626" x2="57.1308" y2="38.8651" gradientUnits="userSpaceOnUse">
<stop stop-color="#42B2F1"/>
<stop offset="1" stop-color="#2A54D3"/>
</linearGradient>
<linearGradient id="paint10_linear" x1="38.8935" y1="12.8785" x2="46.3256" y2="28.5306" gradientUnits="userSpaceOnUse">
<stop stop-color="#42B2F1"/>
<stop offset="1" stop-color="#2A54D3"/>
</linearGradient>
<linearGradient id="paint11_linear" x1="50.8504" y1="53.9829" x2="59.3662" y2="56.3552" gradientUnits="userSpaceOnUse">
<stop stop-color="#42B2F1"/>
<stop offset="1" stop-color="#2A54D3"/>
</linearGradient>
</defs>
</svg>
